<svg width="24" height="24" viewBox="0 0 24 24" fill="none" xmlns="http://www.w3.org/2000/svg">
<rect width="24" height="24" rx="4" fill="url(#paint0_linear_1165_2219)"/>
<path d="M7.855 15.04C7.74833 15.04 7.66033 15.0053 7.591 14.936C7.527 14.8667 7.495 14.7813 7.495 14.68C7.495 14.6373 7.50833 14.584 7.535 14.52L9.575 9.704C9.61767 9.608 9.67633 9.53067 9.751 9.472C9.831 9.408 9.927 9.376 10.039 9.376H10.119C10.231 9.376 10.3243 9.408 10.399 9.472C10.479 9.53067 10.5403 9.608 10.583 9.704L12.623 14.52C12.6497 14.584 12.663 14.6373 12.663 14.68C12.663 14.7813 12.6283 14.8667 12.559 14.936C12.495 15.0053 12.4097 15.04 12.303 15.04C12.2283 15.04 12.159 15.0213 12.095 14.984C12.0363 14.9413 11.991 14.8853 11.959 14.816L11.439 13.568H8.719L8.199 14.816C8.167 14.8853 8.119 14.9413 8.055 14.984C7.99633 15.0213 7.92967 15.04 7.855 15.04ZM8.999 12.904H11.159L10.079 10.304L8.999 12.904ZM14.7597 15.04C14.6584 15.04 14.5731 15.0053 14.5037 14.936C14.4344 14.8667 14.3997 14.7813 14.3997 14.68V9.744C14.3997 9.64267 14.4344 9.55733 14.5037 9.488C14.5731 9.41333 14.6584 9.376 14.7597 9.376C14.8611 9.376 14.9464 9.41333 15.0157 9.488C15.0904 9.55733 15.1277 9.64267 15.1277 9.744V14.68C15.1277 14.7813 15.0904 14.8667 15.0157 14.936C14.9464 15.0053 14.8611 15.04 14.7597 15.04Z" fill="white"/>
<path d="M7.591 14.936L7.40715 15.1057L7.41422 15.1128L7.591 14.936ZM7.535 14.52L7.3048 14.4225L7.30423 14.4238L7.535 14.52ZM9.575 9.704L9.34651 9.60245L9.3448 9.60649L9.575 9.704ZM9.751 9.472L9.90546 9.66859L9.90717 9.66722L9.751 9.472ZM10.399 9.472L10.2363 9.66181L10.2435 9.66799L10.2512 9.6736L10.399 9.472ZM10.583 9.704L10.8132 9.60647L10.8115 9.60246L10.583 9.704ZM12.623 14.52L12.8538 14.4238L12.8532 14.4225L12.623 14.52ZM12.559 14.936L12.3821 14.7591L12.3753 14.7664L12.559 14.936ZM12.095 14.984L11.948 15.1862L11.9581 15.1936L11.969 15.1999L12.095 14.984ZM11.959 14.816L11.7281 14.9122L11.732 14.9208L11.959 14.816ZM11.439 13.568L11.6698 13.4718L11.6057 13.318H11.439V13.568ZM8.719 13.568V13.318H8.55233L8.48823 13.4718L8.719 13.568ZM8.199 14.816L8.42615 14.9208L8.42977 14.9122L8.199 14.816ZM8.055 14.984L8.18925 15.195L8.19367 15.192L8.055 14.984ZM8.999 12.904L8.76813 12.8081L8.62444 13.154H8.999V12.904ZM11.159 12.904V13.154H11.5336L11.3899 12.8081L11.159 12.904ZM10.079 10.304L10.3099 10.2081L10.079 9.65229L9.84813 10.2081L10.079 10.304ZM7.855 14.79C7.80822 14.79 7.78587 14.7773 7.76778 14.7592L7.41422 15.1128C7.53479 15.2333 7.68845 15.29 7.855 15.29V14.79ZM7.7747 14.7664C7.75665 14.7469 7.745 14.7236 7.745 14.68H7.245C7.245 14.8391 7.29735 14.9865 7.4073 15.1056L7.7747 14.7664ZM7.745 14.68C7.745 14.684 7.74448 14.6808 7.74754 14.6686C7.75051 14.6567 7.75606 14.6395 7.76577 14.6162L7.30423 14.4238C7.27183 14.5016 7.245 14.5901 7.245 14.68H7.745ZM7.7652 14.6175L9.8052 9.80151L9.3448 9.60649L7.3048 14.4225L7.7652 14.6175ZM9.80345 9.80553C9.83136 9.74274 9.86613 9.69948 9.90546 9.66858L9.59654 9.27542C9.48654 9.36186 9.40397 9.47326 9.34655 9.60246L9.80345 9.80553ZM9.90717 9.66722C9.93863 9.64205 9.97813 9.626 10.039 9.626V9.126C9.87587 9.126 9.72337 9.17395 9.59483 9.27678L9.90717 9.66722ZM10.039 9.626H10.119V9.126H10.039V9.626ZM10.119 9.626C10.1801 9.626 10.2132 9.64203 10.2363 9.66181L10.5617 9.28219C10.4355 9.17397 10.2819 9.126 10.119 9.126V9.626ZM10.2512 9.6736C10.2939 9.70497 10.3285 9.74691 10.3545 9.80553L10.8115 9.60246C10.7522 9.46909 10.6641 9.35636 10.5468 9.2704L10.2512 9.6736ZM10.3528 9.80151L12.3928 14.6175L12.8532 14.4225L10.8132 9.60649L10.3528 9.80151ZM12.3922 14.6162C12.4019 14.6395 12.4075 14.6567 12.4105 14.6686C12.4135 14.6808 12.413 14.684 12.413 14.68H12.913C12.913 14.5901 12.8862 14.5016 12.8538 14.4238L12.3922 14.6162ZM12.413 14.68C12.413 14.7175 12.4029 14.7385 12.3822 14.7592L12.7358 15.1128C12.8537 14.9948 12.913 14.8452 12.913 14.68H12.413ZM12.3753 14.7664C12.365 14.7775 12.3499 14.79 12.303 14.79V15.29C12.4694 15.29 12.625 15.2331 12.7427 15.1056L12.3753 14.7664ZM12.303 14.79C12.2722 14.79 12.2464 14.7829 12.221 14.7681L11.969 15.1999C12.0716 15.2598 12.1844 15.29 12.303 15.29V14.79ZM12.242 14.7818C12.2197 14.7656 12.2011 14.7439 12.186 14.7112L11.732 14.9208C11.7809 15.0267 11.8529 15.1171 11.948 15.1862L12.242 14.7818ZM12.1898 14.7198L11.6698 13.4718L11.2082 13.6642L11.7282 14.9122L12.1898 14.7198ZM11.439 13.318H8.719V13.818H11.439V13.318ZM8.48823 13.4718L7.96823 14.7198L8.42977 14.9122L8.94977 13.6642L8.48823 13.4718ZM7.97201 14.7112C7.9595 14.7383 7.94222 14.7587 7.91632 14.776L8.19367 15.192C8.29578 15.1239 8.3745 15.0323 8.42599 14.9208L7.97201 14.7112ZM7.92078 14.7731C7.90521 14.783 7.88578 14.79 7.855 14.79V15.29C7.97355 15.29 8.08746 15.2597 8.18922 15.1949L7.92078 14.7731ZM8.999 13.154H11.159V12.654H8.999V13.154ZM11.3899 12.8081L10.3099 10.2081L9.84813 10.3999L10.9281 12.9999L11.3899 12.8081ZM9.84813 10.2081L8.76813 12.8081L9.22987 12.9999L10.3099 10.3999L9.84813 10.2081ZM14.5037 14.936L14.6805 14.7592H14.6805L14.5037 14.936ZM14.5037 9.488L14.6806 9.6649L14.6869 9.65811L14.5037 9.488ZM15.0157 9.488L14.8326 9.65811L14.8389 9.6649L14.8456 9.6712L15.0157 9.488ZM15.0157 14.936L14.8455 14.7527L14.839 14.7592L15.0157 14.936ZM14.7597 14.79C14.7222 14.79 14.7013 14.7799 14.6805 14.7592L14.327 15.1128C14.4449 15.2307 14.5946 15.29 14.7597 15.29V14.79ZM14.6805 14.7592C14.6598 14.7385 14.6497 14.7175 14.6497 14.68H14.1497C14.1497 14.8452 14.209 14.9948 14.327 15.1128L14.6805 14.7592ZM14.6497 14.68V9.744H14.1497V14.68H14.6497ZM14.6497 9.744C14.6497 9.70649 14.6598 9.6855 14.6805 9.66478L14.327 9.31122C14.209 9.42916 14.1497 9.57884 14.1497 9.744H14.6497ZM14.6869 9.65811C14.7093 9.63407 14.7284 9.626 14.7597 9.626V9.126C14.5885 9.126 14.4369 9.1926 14.3206 9.31789L14.6869 9.65811ZM14.7597 9.626C14.7911 9.626 14.8102 9.63407 14.8326 9.65811L15.1989 9.31789C15.0826 9.1926 14.931 9.126 14.7597 9.126V9.626ZM14.8456 9.6712C14.8697 9.69353 14.8777 9.71262 14.8777 9.744H15.3777C15.3777 9.57271 15.3112 9.42114 15.1859 9.3048L14.8456 9.6712ZM14.8777 9.744V14.68H15.3777V9.744H14.8777ZM14.8777 14.68C14.8777 14.7114 14.8697 14.7305 14.8456 14.7528L15.1859 15.1192C15.3112 15.0029 15.3777 14.8513 15.3777 14.68H14.8777ZM14.839 14.7592C14.8182 14.7799 14.7973 14.79 14.7597 14.79V15.29C14.9249 15.29 15.0746 15.2307 15.1925 15.1128L14.839 14.7592Z" fill="white"/>
<defs>
<linearGradient id="paint0_linear_1165_2219" x1="12" y1="0" x2="12" y2="24" gradientUnits="userSpaceOnUse">
<stop stop-color="#FFA216"/>
<stop offset="1" stop-color="#EF8100"/>
</linearGradient>
</defs>
</svg>
