<svg width="24" height="24" viewBox="0 0 24 24" fill="none" xmlns="http://www.w3.org/2000/svg">
<rect width="24" height="24" rx="4" fill="url(#paint0_linear_1165_2418)"/>
<path d="M5.97344 15.04C5.86677 15.04 5.77877 15.0053 5.70944 14.936C5.64544 14.8667 5.61344 14.7813 5.61344 14.68C5.61344 14.6373 5.62677 14.584 5.65344 14.52L7.69344 9.704C7.7361 9.608 7.79477 9.53067 7.86944 9.472C7.94944 9.408 8.04544 9.376 8.15744 9.376H8.23744C8.34944 9.376 8.44277 9.408 8.51744 9.472C8.59744 9.53067 8.65877 9.608 8.70144 9.704L10.7414 14.52C10.7681 14.584 10.7814 14.6373 10.7814 14.68C10.7814 14.7813 10.7468 14.8667 10.6774 14.936C10.6134 15.0053 10.5281 15.04 10.4214 15.04C10.3468 15.04 10.2774 15.0213 10.2134 14.984C10.1548 14.9413 10.1094 14.8853 10.0774 14.816L9.55744 13.568H6.83744L6.31744 14.816C6.28544 14.8853 6.23744 14.9413 6.17344 14.984C6.11477 15.0213 6.0481 15.04 5.97344 15.04ZM7.11744 12.904H9.27744L8.19744 10.304L7.11744 12.904ZM14.0786 15.04C13.86 15.04 13.6946 14.9173 13.5826 14.672L11.6066 9.88C11.5906 9.83733 11.5826 9.792 11.5826 9.744C11.5826 9.632 11.6146 9.544 11.6786 9.48C11.7426 9.41067 11.8306 9.376 11.9426 9.376C12.0173 9.376 12.084 9.4 12.1426 9.448C12.2066 9.49067 12.2546 9.54933 12.2866 9.624L14.1666 14.312L16.0466 9.624C16.0786 9.54933 16.124 9.49067 16.1826 9.448C16.2466 9.4 16.316 9.376 16.3906 9.376C16.5026 9.376 16.5906 9.41067 16.6546 9.48C16.7186 9.544 16.7506 9.632 16.7506 9.744C16.7506 9.792 16.7426 9.83733 16.7266 9.88L14.7506 14.672C14.6386 14.9173 14.4733 15.04 14.2546 15.04H14.0786ZM18.6413 15.04C18.54 15.04 18.4546 15.0053 18.3853 14.936C18.316 14.8667 18.2813 14.7813 18.2813 14.68V9.744C18.2813 9.64267 18.316 9.55733 18.3853 9.488C18.4546 9.41333 18.54 9.376 18.6413 9.376C18.7426 9.376 18.828 9.41333 18.8973 9.488C18.972 9.55733 19.0093 9.64267 19.0093 9.744V14.68C19.0093 14.7813 18.972 14.8667 18.8973 14.936C18.828 15.0053 18.7426 15.04 18.6413 15.04Z" fill="white"/>
<path d="M5.70944 14.936L5.52559 15.1057L5.53266 15.1128L5.70944 14.936ZM5.65344 14.52L5.42323 14.4225L5.42267 14.4238L5.65344 14.52ZM7.69344 9.704L7.46495 9.60245L7.46324 9.60649L7.69344 9.704ZM7.86944 9.472L8.0239 9.66859L8.02561 9.66722L7.86944 9.472ZM8.51744 9.472L8.35474 9.66181L8.36194 9.66799L8.3696 9.6736L8.51744 9.472ZM8.70144 9.704L8.93167 9.60647L8.92989 9.60246L8.70144 9.704ZM10.7414 14.52L10.9722 14.4238L10.9716 14.4225L10.7414 14.52ZM10.6774 14.936L10.5005 14.7591L10.4937 14.7664L10.6774 14.936ZM10.2134 14.984L10.0664 15.1862L10.0766 15.1936L10.0875 15.1999L10.2134 14.984ZM10.0774 14.816L9.84651 14.9122L9.85045 14.9208L10.0774 14.816ZM9.55744 13.568L9.78821 13.4718L9.7241 13.318H9.55744V13.568ZM6.83744 13.568V13.318H6.67077L6.60667 13.4718L6.83744 13.568ZM6.31744 14.816L6.54459 14.9208L6.54821 14.9122L6.31744 14.816ZM6.17344 14.984L6.30769 15.195L6.31211 15.192L6.17344 14.984ZM7.11744 12.904L6.88656 12.8081L6.74288 13.154H7.11744V12.904ZM9.27744 12.904V13.154H9.65199L9.50831 12.8081L9.27744 12.904ZM8.19744 10.304L8.42831 10.2081L8.19744 9.65229L7.96656 10.2081L8.19744 10.304ZM5.97344 14.79C5.92665 14.79 5.90431 14.7773 5.88621 14.7592L5.53266 15.1128C5.65323 15.2333 5.80689 15.29 5.97344 15.29V14.79ZM5.89314 14.7664C5.87509 14.7469 5.86344 14.7236 5.86344 14.68H5.36344C5.36344 14.8391 5.41579 14.9865 5.52574 15.1056L5.89314 14.7664ZM5.86344 14.68C5.86344 14.684 5.86292 14.6808 5.86597 14.6686C5.86895 14.6567 5.8745 14.6395 5.88421 14.6162L5.42267 14.4238C5.39027 14.5016 5.36344 14.5901 5.36344 14.68H5.86344ZM5.88364 14.6175L7.92364 9.80151L7.46324 9.60649L5.42324 14.4225L5.88364 14.6175ZM7.92189 9.80553C7.9498 9.74274 7.98457 9.69948 8.02389 9.66858L7.71498 9.27542C7.60497 9.36186 7.52241 9.47326 7.46498 9.60246L7.92189 9.80553ZM8.02561 9.66722C8.05707 9.64205 8.09657 9.626 8.15744 9.626V9.126C7.99431 9.126 7.8418 9.17395 7.71326 9.27678L8.02561 9.66722ZM8.15744 9.626H8.23744V9.126H8.15744V9.626ZM8.23744 9.626C8.29857 9.626 8.33165 9.64203 8.35474 9.66181L8.68014 9.28219C8.55389 9.17397 8.4003 9.126 8.23744 9.126V9.626ZM8.3696 9.6736C8.41238 9.70497 8.44693 9.74691 8.47298 9.80553L8.92989 9.60246C8.87061 9.46909 8.7825 9.35636 8.66528 9.2704L8.3696 9.6736ZM8.47124 9.80151L10.5112 14.6175L10.9716 14.4225L8.93164 9.60649L8.47124 9.80151ZM10.5107 14.6162C10.5204 14.6395 10.5259 14.6567 10.5289 14.6686C10.532 14.6808 10.5314 14.684 10.5314 14.68H11.0314C11.0314 14.5901 11.0046 14.5016 10.9722 14.4238L10.5107 14.6162ZM10.5314 14.68C10.5314 14.7175 10.5214 14.7385 10.5007 14.7592L10.8542 15.1128C10.9722 14.9948 11.0314 14.8452 11.0314 14.68H10.5314ZM10.4937 14.7664C10.4835 14.7775 10.4684 14.79 10.4214 14.79V15.29C10.5878 15.29 10.7434 15.2331 10.8611 15.1056L10.4937 14.7664ZM10.4214 14.79C10.3907 14.79 10.3649 14.7829 10.3394 14.7681L10.0875 15.1999C10.19 15.2598 10.3029 15.29 10.4214 15.29V14.79ZM10.3605 14.7818C10.3382 14.7656 10.3195 14.7439 10.3044 14.7112L9.85045 14.9208C9.89936 15.0267 9.97136 15.1171 10.0664 15.1862L10.3605 14.7818ZM10.3082 14.7198L9.78821 13.4718L9.32667 13.6642L9.84667 14.9122L10.3082 14.7198ZM9.55744 13.318H6.83744V13.818H9.55744V13.318ZM6.60667 13.4718L6.08667 14.7198L6.54821 14.9122L7.06821 13.6642L6.60667 13.4718ZM6.09045 14.7112C6.07794 14.7383 6.06065 14.7587 6.03476 14.776L6.31211 15.192C6.41422 15.1239 6.49294 15.0323 6.54443 14.9208L6.09045 14.7112ZM6.03922 14.7731C6.02364 14.783 6.00422 14.79 5.97344 14.79V15.29C6.09199 15.29 6.2059 15.2597 6.30766 15.1949L6.03922 14.7731ZM7.11744 13.154H9.27744V12.654H7.11744V13.154ZM9.50831 12.8081L8.42831 10.2081L7.96656 10.3999L9.04656 12.9999L9.50831 12.8081ZM7.96656 10.2081L6.88656 12.8081L7.34831 12.9999L8.42831 10.3999L7.96656 10.2081ZM13.5826 14.672L13.3513 14.7674L13.3552 14.7758L13.5826 14.672ZM11.6066 9.88L11.3724 9.96783L11.3755 9.9753L11.6066 9.88ZM11.6786 9.48L11.8555 9.65692L11.8623 9.64957L11.6786 9.48ZM12.1426 9.448L11.9843 9.64149L11.9938 9.64923L12.004 9.65601L12.1426 9.448ZM12.2866 9.624L12.5187 9.53092L12.5164 9.52552L12.2866 9.624ZM14.1666 14.312L13.9346 14.4051L14.1666 14.9837L14.3987 14.4051L14.1666 14.312ZM16.0466 9.624L15.8168 9.52549L15.8146 9.53095L16.0466 9.624ZM16.1826 9.448L16.3297 9.65021L16.3326 9.648L16.1826 9.448ZM16.6546 9.48L16.4708 9.64971L16.4778 9.65678L16.6546 9.48ZM16.7266 9.88L16.9579 9.97535L16.9607 9.96778L16.7266 9.88ZM14.7506 14.672L14.9782 14.7759L14.9817 14.7673L14.7506 14.672ZM14.0786 14.79C14.0194 14.79 13.9764 14.7745 13.9396 14.7472C13.8998 14.7177 13.8538 14.664 13.81 14.5682L13.3552 14.7758C13.4235 14.9254 13.5162 15.0557 13.6417 15.1488C13.7702 15.2441 13.9192 15.29 14.0786 15.29V14.79ZM13.8137 14.5767L11.8377 9.7847L11.3755 9.9753L13.3515 14.7673L13.8137 14.5767ZM11.8407 9.79222C11.8358 9.7791 11.8326 9.76364 11.8326 9.744H11.3326C11.3326 9.82036 11.3455 9.89557 11.3725 9.96778L11.8407 9.79222ZM11.8326 9.744C11.8326 9.68162 11.8489 9.66328 11.8554 9.65678L11.5018 9.30322C11.3804 9.42472 11.3326 9.58238 11.3326 9.744H11.8326ZM11.8623 9.64957C11.8702 9.64108 11.8862 9.626 11.9426 9.626V9.126C11.775 9.126 11.6151 9.18025 11.4949 9.31043L11.8623 9.64957ZM11.9426 9.626C11.9586 9.626 11.9696 9.62943 11.9843 9.64149L12.3009 9.25451C12.1983 9.17057 12.076 9.126 11.9426 9.126V9.626ZM12.004 9.65601C12.0253 9.67023 12.0428 9.68976 12.0568 9.72248L12.5164 9.52552C12.4664 9.40891 12.388 9.3111 12.2813 9.23999L12.004 9.65601ZM12.0546 9.71705L13.9346 14.4051L14.3987 14.2189L12.5187 9.53095L12.0546 9.71705ZM14.3987 14.4051L16.2787 9.71705L15.8146 9.53095L13.9346 14.2189L14.3987 14.4051ZM16.2764 9.72248C16.2929 9.68412 16.3116 9.66329 16.3297 9.65018L16.0356 9.24582C15.9363 9.31804 15.8644 9.41455 15.8168 9.52552L16.2764 9.72248ZM16.3326 9.648C16.3566 9.62999 16.374 9.626 16.3906 9.626V9.126C16.2579 9.126 16.1366 9.17001 16.0326 9.248L16.3326 9.648ZM16.3906 9.626C16.447 9.626 16.4631 9.64108 16.4709 9.64957L16.8383 9.31043C16.7182 9.18025 16.5582 9.126 16.3906 9.126V9.626ZM16.4778 9.65678C16.4844 9.66328 16.5006 9.68162 16.5006 9.744H17.0006C17.0006 9.58238 16.9529 9.42472 16.8314 9.30322L16.4778 9.65678ZM16.5006 9.744C16.5006 9.76364 16.4975 9.7791 16.4925 9.79222L16.9607 9.96778C16.9878 9.89557 17.0006 9.82036 17.0006 9.744H16.5006ZM16.4955 9.7847L14.5195 14.5767L14.9817 14.7673L16.9577 9.9753L16.4955 9.7847ZM14.5232 14.5682C14.4795 14.664 14.4335 14.7177 14.3937 14.7472C14.3568 14.7745 14.3139 14.79 14.2546 14.79V15.29C14.4141 15.29 14.5631 15.2441 14.6916 15.1488C14.8171 15.0557 14.9098 14.9254 14.978 14.7758L14.5232 14.5682ZM14.2546 14.79H14.0786V15.29H14.2546V14.79ZM18.3853 14.936L18.5621 14.7592L18.3853 14.936ZM18.3853 9.488L18.5622 9.6649L18.5685 9.65811L18.3853 9.488ZM18.8973 9.488L18.7141 9.65811L18.7204 9.6649L18.7272 9.6712L18.8973 9.488ZM18.8973 14.936L18.7271 14.7527L18.7205 14.7592L18.8973 14.936ZM18.6413 14.79C18.6038 14.79 18.5828 14.7799 18.5621 14.7592L18.2085 15.1128C18.3265 15.2307 18.4762 15.29 18.6413 15.29V14.79ZM18.5621 14.7592C18.5414 14.7385 18.5313 14.7175 18.5313 14.68H18.0313C18.0313 14.8452 18.0906 14.9948 18.2085 15.1128L18.5621 14.7592ZM18.5313 14.68V9.744H18.0313V14.68H18.5313ZM18.5313 9.744C18.5313 9.70649 18.5414 9.6855 18.5621 9.66478L18.2085 9.31122C18.0906 9.42916 18.0313 9.57884 18.0313 9.744H18.5313ZM18.5685 9.65811C18.5908 9.63407 18.6099 9.626 18.6413 9.626V9.126C18.47 9.126 18.3185 9.1926 18.2021 9.31789L18.5685 9.65811ZM18.6413 9.626C18.6727 9.626 18.6918 9.63407 18.7141 9.65811L19.0805 9.31789C18.9642 9.1926 18.8126 9.126 18.6413 9.126V9.626ZM18.7272 9.6712C18.7512 9.69353 18.7593 9.71262 18.7593 9.744H19.2593C19.2593 9.57271 19.1927 9.42114 19.0674 9.3048L18.7272 9.6712ZM18.7593 9.744V14.68H19.2593V9.744H18.7593ZM18.7593 14.68C18.7593 14.7114 18.7512 14.7305 18.7272 14.7528L19.0674 15.1192C19.1927 15.0029 19.2593 14.8513 19.2593 14.68H18.7593ZM18.7205 14.7592C18.6998 14.7799 18.6788 14.79 18.6413 14.79V15.29C18.8065 15.29 18.9561 15.2307 19.0741 15.1128L18.7205 14.7592Z" fill="white"/>
<defs>
<linearGradient id="paint0_linear_1165_2418" x1="12" y1="0" x2="12" y2="24" gradientUnits="userSpaceOnUse">
<stop stop-color="#CB74F4"/>
<stop offset="0.942892" stop-color="#A849F3"/>
</linearGradient>
</defs>
</svg>
