<svg width="24" height="24" viewBox="0 0 24 24" fill="none" xmlns="http://www.w3.org/2000/svg">
<rect width="24" height="24" rx="4" fill="url(#paint0_linear_1165_2226)"/>
<path d="M3.54475 15C3.44342 15 3.35808 14.9653 3.28875 14.896C3.21942 14.8267 3.18475 14.7413 3.18475 14.64V9.784C3.18475 9.68267 3.21942 9.59733 3.28875 9.528C3.35808 9.45333 3.44342 9.416 3.54475 9.416H5.15275C5.76075 9.416 6.27542 9.552 6.69675 9.824C7.12342 10.0907 7.44342 10.4373 7.65675 10.864C7.87008 11.2907 7.97675 11.7387 7.97675 12.208C7.97675 12.6773 7.87008 13.1253 7.65675 13.552C7.44342 13.9787 7.12342 14.328 6.69675 14.6C6.27542 14.8667 5.76075 15 5.15275 15H3.54475ZM5.06475 14.32C5.50208 14.32 5.88608 14.232 6.21675 14.056C6.54742 13.8747 6.80342 13.6267 6.98475 13.312C7.16608 12.992 7.25675 12.624 7.25675 12.208C7.25675 11.792 7.16608 11.4267 6.98475 11.112C6.80342 10.792 6.54742 10.544 6.21675 10.368C5.88608 10.1867 5.50208 10.096 5.06475 10.096H3.91275V14.32H5.06475ZM12.2246 15.08C11.6646 15.08 11.1739 14.9573 10.7526 14.712C10.3312 14.4667 10.0059 14.128 9.77656 13.696C9.54723 13.264 9.42723 12.768 9.41656 12.208C9.42723 11.648 9.54723 11.152 9.77656 10.72C10.0059 10.288 10.3312 9.94933 10.7526 9.704C11.1739 9.45867 11.6646 9.336 12.2246 9.336C12.7846 9.336 13.2726 9.45867 13.6886 9.704C14.1099 9.94933 14.4352 10.2907 14.6646 10.728C14.8992 11.16 15.0219 11.6533 15.0326 12.208C15.0219 12.7627 14.8992 13.2587 14.6646 13.696C14.4352 14.128 14.1099 14.4667 13.6886 14.712C13.2726 14.9573 12.7846 15.08 12.2246 15.08ZM12.2246 14.4C12.6512 14.4 13.0219 14.304 13.3366 14.112C13.6512 13.92 13.8912 13.6587 14.0566 13.328C14.2219 12.9973 14.3046 12.624 14.3046 12.208C14.3046 11.792 14.2219 11.4187 14.0566 11.088C13.8912 10.7573 13.6512 10.496 13.3366 10.304C13.0219 10.112 12.6512 10.016 12.2246 10.016C11.7926 10.016 11.4192 10.112 11.1046 10.304C10.7952 10.496 10.5579 10.7573 10.3926 11.088C10.2272 11.4187 10.1446 11.792 10.1446 12.208C10.1446 12.624 10.2272 12.9973 10.3926 13.328C10.5579 13.6587 10.7952 13.92 11.1046 14.112C11.4192 14.304 11.7926 14.4 12.2246 14.4ZM19.2687 15.08C18.7354 15.08 18.2554 14.9653 17.8287 14.736C17.4074 14.5013 17.0741 14.168 16.8287 13.736C16.5887 13.2987 16.4687 12.7893 16.4687 12.208C16.4687 11.6267 16.5887 11.12 16.8287 10.688C17.0741 10.2507 17.4074 9.91733 17.8287 9.688C18.2554 9.45333 18.7354 9.336 19.2687 9.336C19.6314 9.336 19.9541 9.37867 20.2367 9.464C20.5247 9.54933 20.8101 9.672 21.0927 9.832C21.2101 9.896 21.2687 9.99733 21.2687 10.136C21.2687 10.216 21.2394 10.288 21.1807 10.352C21.1221 10.4107 21.0447 10.44 20.9487 10.44C20.8954 10.44 20.8474 10.4293 20.8047 10.408C20.5701 10.2853 20.3407 10.192 20.1167 10.128C19.8927 10.064 19.6341 10.032 19.3407 10.032C18.8821 10.032 18.4901 10.128 18.1647 10.32C17.8447 10.5067 17.6021 10.7653 17.4367 11.096C17.2767 11.4213 17.1967 11.792 17.1967 12.208C17.1967 12.624 17.2767 12.9973 17.4367 13.328C17.6021 13.6533 17.8447 13.912 18.1647 14.104C18.4901 14.2907 18.8821 14.384 19.3407 14.384C19.6341 14.384 19.8927 14.352 20.1167 14.288C20.3407 14.224 20.5701 14.1307 20.8047 14.008C20.8474 13.9867 20.8954 13.976 20.9487 13.976C21.0447 13.976 21.1221 14.0053 21.1807 14.064C21.2394 14.1227 21.2687 14.1947 21.2687 14.28C21.2687 14.4187 21.2101 14.52 21.0927 14.584C20.8101 14.744 20.5247 14.8667 20.2367 14.952C19.9541 15.0373 19.6314 15.08 19.2687 15.08Z" fill="white"/>
<path d="M3.28875 14.896L3.46553 14.7192L3.28875 14.896ZM3.28875 9.528L3.46565 9.7049L3.47195 9.69811L3.28875 9.528ZM6.69675 9.824L6.56114 10.0341L6.56425 10.036L6.69675 9.824ZM7.65675 10.864L7.43314 10.9758L7.43314 10.9758L7.65675 10.864ZM7.65675 13.552L7.43314 13.4402H7.43314L7.65675 13.552ZM6.69675 14.6L6.83045 14.8112L6.83114 14.8108L6.69675 14.6ZM6.21675 14.056L6.33422 14.2767L6.33696 14.2752L6.21675 14.056ZM6.98475 13.312L7.20136 13.4368L7.20226 13.4353L6.98475 13.312ZM6.98475 11.112L6.76724 11.2353L6.76814 11.2368L6.98475 11.112ZM6.21675 10.368L6.09653 10.5872L6.09929 10.5887L6.21675 10.368ZM3.91275 10.096V9.846H3.66275V10.096H3.91275ZM3.91275 14.32H3.66275V14.57H3.91275V14.32ZM3.54475 14.75C3.50724 14.75 3.48625 14.7399 3.46553 14.7192L3.11197 15.0728C3.22992 15.1907 3.37959 15.25 3.54475 15.25V14.75ZM3.46553 14.7192C3.4448 14.6985 3.43475 14.6775 3.43475 14.64H2.93475C2.93475 14.8052 2.99403 14.9548 3.11197 15.0728L3.46553 14.7192ZM3.43475 14.64V9.784H2.93475V14.64H3.43475ZM3.43475 9.784C3.43475 9.74649 3.4448 9.7255 3.46553 9.70478L3.11197 9.35122C2.99403 9.46917 2.93475 9.61884 2.93475 9.784H3.43475ZM3.47195 9.69811C3.49428 9.67407 3.51337 9.666 3.54475 9.666V9.166C3.37346 9.166 3.22189 9.2326 3.10555 9.35789L3.47195 9.69811ZM3.54475 9.666H5.15275V9.166H3.54475V9.666ZM5.15275 9.666C5.72295 9.666 6.1881 9.7932 6.56116 10.034L6.83234 9.61396C6.36274 9.3108 5.79855 9.166 5.15275 9.166V9.666ZM6.56425 10.036C6.95414 10.2797 7.24153 10.5926 7.43314 10.9758L7.88036 10.7522C7.64531 10.2821 7.29269 9.90165 6.82925 9.612L6.56425 10.036ZM7.43314 10.9758C7.62941 11.3683 7.72675 11.7781 7.72675 12.208H8.22675C8.22675 11.6992 8.11075 11.213 7.88036 10.7522L7.43314 10.9758ZM7.72675 12.208C7.72675 12.6379 7.62941 13.0477 7.43314 13.4402L7.88036 13.6638C8.11075 13.203 8.22675 12.7168 8.22675 12.208H7.72675ZM7.43314 13.4402C7.24128 13.8239 6.95329 14.14 6.56236 14.3892L6.83114 14.8108C7.29354 14.516 7.64555 14.1334 7.88036 13.6638L7.43314 13.4402ZM6.56305 14.3888C6.1897 14.6251 5.72384 14.75 5.15275 14.75V15.25C5.79766 15.25 6.36113 15.1083 6.83045 14.8112L6.56305 14.3888ZM5.15275 14.75H3.54475V15.25H5.15275V14.75ZM5.06475 14.57C5.53617 14.57 5.96176 14.4749 6.33421 14.2767L6.09929 13.8353C5.8104 13.9891 5.468 14.07 5.06475 14.07V14.57ZM6.33696 14.2752C6.70618 14.0727 6.99624 13.7928 7.20136 13.4368L6.76814 13.1872C6.61059 13.4606 6.38865 13.6766 6.09654 13.8368L6.33696 14.2752ZM7.20226 13.4353C7.40756 13.073 7.50675 12.6614 7.50675 12.208H7.00675C7.00675 12.5866 6.92461 12.911 6.76724 13.1887L7.20226 13.4353ZM7.50675 12.208C7.50675 11.7547 7.40759 11.345 7.20136 10.9872L6.76814 11.2368C6.92458 11.5083 7.00675 11.8293 7.00675 12.208H7.50675ZM7.20226 10.9887C6.99705 10.6266 6.70599 10.3452 6.33421 10.1473L6.09929 10.5887C6.38885 10.7428 6.60978 10.9574 6.76724 11.2353L7.20226 10.9887ZM6.33696 10.1488C5.96394 9.94424 5.53735 9.846 5.06475 9.846V10.346C5.46682 10.346 5.80822 10.4291 6.09654 10.5872L6.33696 10.1488ZM5.06475 9.846H3.91275V10.346H5.06475V9.846ZM3.66275 10.096V14.32H4.16275V10.096H3.66275ZM3.91275 14.57H5.06475V14.07H3.91275V14.57ZM10.7526 14.712L10.8784 14.496L10.7526 14.712ZM9.77656 13.696L9.55575 13.8132L9.77656 13.696ZM9.41656 12.208L9.16643 12.2032L9.16661 12.2128L9.41656 12.208ZM9.77656 10.72L9.99738 10.8372L9.77656 10.72ZM10.7526 9.704L10.6268 9.48796L10.7526 9.704ZM13.6886 9.704L13.5616 9.91934L13.5628 9.92004L13.6886 9.704ZM14.6646 10.728L14.4431 10.8441L14.4449 10.8473L14.6646 10.728ZM15.0326 12.208L15.2827 12.2128L15.2825 12.2032L15.0326 12.208ZM14.6646 13.696L14.4443 13.5778L14.4437 13.5788L14.6646 13.696ZM13.6886 14.712L13.5628 14.496L13.5616 14.4967L13.6886 14.712ZM13.3366 14.112L13.2063 13.8986H13.2063L13.3366 14.112ZM14.0566 13.328L14.2802 13.4398V13.4398L14.0566 13.328ZM14.0566 11.088L14.2802 10.9762V10.9762L14.0566 11.088ZM13.3366 10.304L13.2063 10.5174L13.3366 10.304ZM11.1046 10.304L10.9743 10.0906L10.9727 10.0916L11.1046 10.304ZM10.3926 11.088L10.169 10.9762V10.9762L10.3926 11.088ZM10.3926 13.328L10.169 13.4398L10.3926 13.328ZM11.1046 14.112L10.9727 14.3244L10.9743 14.3254L11.1046 14.112ZM12.2246 14.83C11.7021 14.83 11.2561 14.7159 10.8784 14.496L10.6268 14.928C11.0917 15.1987 11.627 15.33 12.2246 15.33V14.83ZM10.8784 14.496C10.4974 14.2741 10.2049 13.9698 9.99738 13.5788L9.55575 13.8132C9.80685 14.2862 10.165 14.6592 10.6268 14.928L10.8784 14.496ZM9.99738 13.5788C9.78896 13.1862 9.67654 12.7297 9.66652 12.2032L9.16661 12.2128C9.17791 12.8063 9.3055 13.3418 9.55575 13.8132L9.99738 13.5788ZM9.66652 12.2128C9.67654 11.6863 9.78896 11.2298 9.99738 10.8372L9.55575 10.6028C9.3055 11.0742 9.17791 11.6097 9.16661 12.2032L9.66652 12.2128ZM9.99738 10.8372C10.2049 10.4462 10.4974 10.1419 10.8784 9.92004L10.6268 9.48796C10.165 9.75681 9.80685 10.1298 9.55575 10.6028L9.99738 10.8372ZM10.8784 9.92004C11.2561 9.70008 11.7021 9.586 12.2246 9.586V9.086C11.627 9.086 11.0917 9.21725 10.6268 9.48796L10.8784 9.92004ZM12.2246 9.586C12.7471 9.586 13.1898 9.70011 13.5616 9.91934L13.8156 9.48866C13.3553 9.21723 12.822 9.086 12.2246 9.086V9.586ZM13.5628 9.92004C13.9429 10.1414 14.2354 10.4478 14.4432 10.8441L14.886 10.6119C14.6351 10.1335 14.2769 9.75727 13.8144 9.48796L13.5628 9.92004ZM14.4449 10.8473C14.6581 11.2398 14.7726 11.693 14.7826 12.2128L15.2825 12.2032C15.2712 11.6137 15.1404 11.0802 14.8842 10.6087L14.4449 10.8473ZM14.7826 12.2032C14.7726 12.723 14.6581 13.1793 14.4443 13.5778L14.8849 13.8142C15.1404 13.338 15.2712 12.8024 15.2825 12.2128L14.7826 12.2032ZM14.4437 13.5788C14.2362 13.9698 13.9437 14.2741 13.5628 14.496L13.8144 14.928C14.2761 14.6592 14.6343 14.2862 14.8854 13.8132L14.4437 13.5788ZM13.5616 14.4967C13.1898 14.7159 12.7471 14.83 12.2246 14.83V15.33C12.822 15.33 13.3553 15.1988 13.8156 14.9273L13.5616 14.4967ZM12.2246 14.65C12.6898 14.65 13.1071 14.5449 13.4668 14.3254L13.2063 13.8986C12.9367 14.0631 12.6126 14.15 12.2246 14.15V14.65ZM13.4668 14.3254C13.8216 14.1089 14.0939 13.8123 14.2802 13.4398L13.833 13.2162C13.6885 13.505 13.4808 13.7311 13.2063 13.8986L13.4668 14.3254ZM14.2802 13.4398C14.4649 13.0703 14.5546 12.6579 14.5546 12.208H14.0546C14.0546 12.5901 13.9789 12.9244 13.833 13.2162L14.2802 13.4398ZM14.5546 12.208C14.5546 11.7581 14.4649 11.3457 14.2802 10.9762L13.833 11.1998C13.9789 11.4916 14.0546 11.8259 14.0546 12.208H14.5546ZM14.2802 10.9762C14.0939 10.6037 13.8216 10.3071 13.4668 10.0906L13.2063 10.5174C13.4808 10.6849 13.6885 10.911 13.833 11.1998L14.2802 10.9762ZM13.4668 10.0906C13.1071 9.8711 12.6898 9.766 12.2246 9.766V10.266C12.6126 10.266 12.9367 10.3529 13.2063 10.5174L13.4668 10.0906ZM12.2246 9.766C11.7546 9.766 11.3345 9.87081 10.9743 10.0906L11.2348 10.5174C11.5039 10.3532 11.8305 10.266 12.2246 10.266V9.766ZM10.9727 10.0916C10.6234 10.3084 10.3546 10.6048 10.169 10.9762L10.6162 11.1998C10.7611 10.9098 10.967 10.6836 11.2364 10.5164L10.9727 10.0916ZM10.169 10.9762C9.9842 11.3457 9.89456 11.7581 9.89456 12.208H10.3946C10.3946 11.8259 10.4703 11.4916 10.6162 11.1998L10.169 10.9762ZM9.89456 12.208C9.89456 12.6579 9.9842 13.0703 10.169 13.4398L10.6162 13.2162C10.4703 12.9244 10.3946 12.5901 10.3946 12.208H9.89456ZM10.169 13.4398C10.3546 13.8112 10.6234 14.1076 10.9727 14.3244L11.2364 13.8996C10.967 13.7324 10.7611 13.5062 10.6162 13.2162L10.169 13.4398ZM10.9743 14.3254C11.3345 14.5452 11.7546 14.65 12.2246 14.65V14.15C11.8305 14.15 11.5039 14.0628 11.2348 13.8986L10.9743 14.3254ZM17.8287 14.736L17.7071 14.9544L17.7104 14.9562L17.8287 14.736ZM16.8287 13.736L16.6096 13.8563L16.6114 13.8595L16.8287 13.736ZM16.8287 10.688L16.6107 10.5657L16.6102 10.5666L16.8287 10.688ZM17.8287 9.688L17.9483 9.90758L17.9492 9.90705L17.8287 9.688ZM20.2367 9.464L20.1645 9.70333L20.1657 9.7037L20.2367 9.464ZM21.0928 9.832L20.9696 10.0496L20.973 10.0515L21.0928 9.832ZM21.1807 10.352L21.3577 10.5289L21.365 10.5209L21.1807 10.352ZM20.8047 10.408L20.6889 10.6296L20.6929 10.6316L20.8047 10.408ZM20.1167 10.128L20.1854 9.88762L20.1167 10.128ZM18.1647 10.32L18.2907 10.5359L18.2918 10.5353L18.1647 10.32ZM17.4367 11.096L17.2131 10.9842L17.2124 10.9857L17.4367 11.096ZM17.4367 13.328L17.2117 13.4369L17.2139 13.4413L17.4367 13.328ZM18.1647 14.104L18.0361 14.3184L18.0403 14.3208L18.1647 14.104ZM20.1167 14.288L20.1854 14.5284L20.1167 14.288ZM20.8047 14.008L20.6929 13.7844L20.6889 13.7864L20.8047 14.008ZM21.1807 14.064L21.3575 13.8872V13.8872L21.1807 14.064ZM21.0928 14.584L20.973 14.3645L20.9696 14.3664L21.0928 14.584ZM20.2367 14.952L20.1657 14.7123L20.1645 14.7127L20.2367 14.952ZM19.2687 14.83C18.7725 14.83 18.3338 14.7236 17.9471 14.5158L17.7104 14.9562C18.177 15.207 18.6984 15.33 19.2687 15.33V14.83ZM17.9504 14.5176C17.5703 14.3059 17.2696 14.006 17.0461 13.6125L16.6114 13.8595C16.8786 14.33 17.2445 14.6968 17.7071 14.9544L17.9504 14.5176ZM17.0479 13.6157C16.8313 13.2209 16.7187 12.7543 16.7187 12.208H16.2187C16.2187 12.8244 16.3462 13.3764 16.6096 13.8563L17.0479 13.6157ZM16.7187 12.208C16.7187 11.6616 16.8313 11.1982 17.0473 10.8094L16.6102 10.5666C16.3462 11.0418 16.2187 11.5917 16.2187 12.208H16.7187ZM17.0468 10.8103C17.2702 10.4121 17.5702 10.1134 17.9483 9.90758L17.7092 9.46842C17.2446 9.7213 16.878 10.0893 16.6107 10.5657L17.0468 10.8103ZM17.9492 9.90705C18.3355 9.69458 18.7734 9.586 19.2687 9.586V9.086C18.6974 9.086 18.1753 9.21209 17.7083 9.46895L17.9492 9.90705ZM19.2687 9.586C19.6123 9.586 19.9099 9.62647 20.1645 9.70333L20.309 9.22467C19.9983 9.13086 19.6505 9.086 19.2687 9.086V9.586ZM20.1657 9.7037C20.4342 9.78324 20.7021 9.89814 20.9696 10.0496L21.2159 9.61444C20.9181 9.44586 20.6153 9.31543 20.3078 9.2243L20.1657 9.7037ZM20.973 10.0515C20.9973 10.0647 21.0051 10.0756 21.0084 10.0813C21.0119 10.0874 21.0187 10.1025 21.0187 10.136H21.5187C21.5187 10.0308 21.4962 9.92595 21.4411 9.83074C21.3857 9.73504 21.3056 9.66331 21.2125 9.61253L20.973 10.0515ZM21.0187 10.136C21.0187 10.1479 21.0168 10.1609 20.9965 10.1831L21.365 10.5209C21.462 10.4151 21.5187 10.2841 21.5187 10.136H21.0187ZM21.004 10.1752C20.9996 10.1796 20.9897 10.19 20.9487 10.19V10.69C21.0998 10.69 21.2446 10.6417 21.3575 10.5288L21.004 10.1752ZM20.9487 10.19C20.9296 10.19 20.9206 10.1864 20.9166 10.1844L20.6929 10.6316C20.7742 10.6723 20.8612 10.69 20.9487 10.69V10.19ZM20.9206 10.1864C20.6729 10.057 20.4278 9.95686 20.1854 9.88762L20.0481 10.3684C20.2537 10.4271 20.4673 10.5137 20.6889 10.6296L20.9206 10.1864ZM20.1854 9.88762C19.9342 9.81584 19.6516 9.782 19.3407 9.782V10.282C19.6166 10.282 19.8513 10.3122 20.0481 10.3684L20.1854 9.88762ZM19.3407 9.782C18.847 9.782 18.409 9.88557 18.0377 10.1047L18.2918 10.5353C18.5712 10.3704 18.9172 10.282 19.3407 10.282V9.782ZM18.0388 10.1041C17.6769 10.3152 17.4003 10.61 17.2131 10.9842L17.6604 11.2078C17.8039 10.9207 18.0126 10.6982 18.2907 10.5359L18.0388 10.1041ZM17.2124 10.9857C17.0332 11.3501 16.9467 11.7594 16.9467 12.208H17.4467C17.4467 11.8246 17.5203 11.4926 17.6611 11.2063L17.2124 10.9857ZM16.9467 12.208C16.9467 12.6567 17.0332 13.068 17.2117 13.4369L17.6618 13.2191C17.5203 12.9266 17.4467 12.5913 17.4467 12.208H16.9467ZM17.2139 13.4413C17.401 13.8095 17.6768 14.1028 18.0361 14.3184L18.2934 13.8896C18.0127 13.7212 17.8032 13.4972 17.6596 13.2147L17.2139 13.4413ZM18.0403 14.3208C18.4111 14.5336 18.8481 14.634 19.3407 14.634V14.134C18.9161 14.134 18.569 14.0477 18.2892 13.8872L18.0403 14.3208ZM19.3407 14.634C19.6516 14.634 19.9342 14.6002 20.1854 14.5284L20.0481 14.0476C19.8513 14.1038 19.6166 14.134 19.3407 14.134V14.634ZM20.1854 14.5284C20.4278 14.4591 20.6729 14.359 20.9206 14.2296L20.6889 13.7864C20.4673 13.9023 20.2537 13.9889 20.0481 14.0476L20.1854 14.5284ZM20.9166 14.2316C20.9206 14.2296 20.9296 14.226 20.9487 14.226V13.726C20.8612 13.726 20.7742 13.7437 20.6929 13.7844L20.9166 14.2316ZM20.9487 14.226C20.9897 14.226 20.9996 14.2364 21.004 14.2408L21.3575 13.8872C21.2446 13.7743 21.0998 13.726 20.9487 13.726V14.226ZM21.004 14.2408C21.0143 14.2511 21.0187 14.2589 21.0187 14.28H21.5187C21.5187 14.1305 21.4646 13.9942 21.3575 13.8872L21.004 14.2408ZM21.0187 14.28C21.0187 14.3135 21.0119 14.3286 21.0084 14.3347C21.0051 14.3404 20.9973 14.3513 20.973 14.3645L21.2125 14.8035C21.3056 14.7527 21.3857 14.681 21.4411 14.5853C21.4962 14.49 21.5187 14.3852 21.5187 14.28H21.0187ZM20.9696 14.3664C20.7021 14.5179 20.4342 14.6328 20.1657 14.7123L20.3078 15.1917C20.6153 15.1006 20.9181 14.9701 21.2159 14.8016L20.9696 14.3664ZM20.1645 14.7127C19.9099 14.7895 19.6123 14.83 19.2687 14.83V15.33C19.6505 15.33 19.9983 15.2851 20.309 15.1913L20.1645 14.7127Z" fill="white"/>
<defs>
<linearGradient id="paint0_linear_1165_2226" x1="12" y1="0" x2="12" y2="24" gradientUnits="userSpaceOnUse">
<stop stop-color="#6ABDF8"/>
<stop offset="1" stop-color="#008BD6"/>
</linearGradient>
</defs>
</svg>
