<svg width="24" height="24" viewBox="0 0 24 24" fill="none" xmlns="http://www.w3.org/2000/svg">
<rect width="24" height="24" rx="4" fill="url(#paint0_linear_1165_2422)"/>
<path d="M8.58644 15.08C8.0371 15.08 7.5491 14.96 7.12244 14.72C6.69577 14.4747 6.3651 14.136 6.13044 13.704C5.89577 13.2667 5.77844 12.7707 5.77844 12.216C5.77844 11.6507 5.9011 11.1493 6.14644 10.712C6.39177 10.2747 6.7251 9.936 7.14644 9.696C7.5731 9.456 8.0451 9.336 8.56244 9.336C8.97844 9.336 9.3411 9.38667 9.65044 9.488C9.9651 9.58933 10.2664 9.73067 10.5544 9.912C10.5971 9.93333 10.6344 9.97067 10.6664 10.024C10.6984 10.0773 10.7144 10.136 10.7144 10.2C10.7144 10.2907 10.6824 10.368 10.6184 10.432C10.5598 10.496 10.4798 10.528 10.3784 10.528C10.3198 10.528 10.2638 10.5147 10.2104 10.488C9.95977 10.3387 9.7091 10.2267 9.45844 10.152C9.20777 10.0773 8.93577 10.04 8.64244 10.04C8.2371 10.04 7.87177 10.1253 7.54644 10.296C7.2211 10.4667 6.9651 10.7173 6.77844 11.048C6.5971 11.3733 6.50644 11.7627 6.50644 12.216C6.50644 12.632 6.59177 13.0053 6.76244 13.336C6.93844 13.6613 7.1891 13.92 7.51444 14.112C7.8451 14.2987 8.23444 14.392 8.68244 14.392C9.18377 14.392 9.65044 14.2747 10.0824 14.04V12.592H8.76244C8.67177 12.592 8.59444 12.56 8.53044 12.496C8.46644 12.432 8.43444 12.3547 8.43444 12.264C8.43444 12.1733 8.46644 12.096 8.53044 12.032C8.59444 11.968 8.67177 11.936 8.76244 11.936H10.3384C10.4451 11.936 10.5358 11.9733 10.6104 12.048C10.6851 12.1227 10.7224 12.2133 10.7224 12.32V14.136C10.7224 14.248 10.6931 14.3493 10.6344 14.44C10.5811 14.5253 10.5091 14.5893 10.4184 14.632C9.8211 14.9307 9.21044 15.08 8.58644 15.08ZM13.0891 15.04C12.9878 15.04 12.9025 15.0053 12.8331 14.936C12.7638 14.8667 12.7291 14.7813 12.7291 14.68V9.744C12.7291 9.64267 12.7638 9.55733 12.8331 9.488C12.9025 9.41333 12.9878 9.376 13.0891 9.376C13.1905 9.376 13.2758 9.41333 13.3451 9.488C13.4198 9.55733 13.4571 9.64267 13.4571 9.744V14.68C13.4571 14.7813 13.4198 14.8667 13.3451 14.936C13.2758 15.0053 13.1905 15.04 13.0891 15.04ZM15.9304 15.04C15.829 15.04 15.7437 15.0053 15.6744 14.936C15.605 14.8667 15.5704 14.7813 15.5704 14.68V9.784C15.5704 9.68267 15.605 9.59733 15.6744 9.528C15.7437 9.45333 15.829 9.416 15.9304 9.416H19.0424C19.1384 9.416 19.2184 9.45067 19.2824 9.52C19.3517 9.584 19.3864 9.664 19.3864 9.76C19.3864 9.856 19.3517 9.936 19.2824 10C19.2184 10.064 19.1384 10.096 19.0424 10.096H16.2984V11.864H18.7624C18.8584 11.864 18.9384 11.8987 19.0024 11.968C19.0717 12.032 19.1064 12.112 19.1064 12.208C19.1064 12.304 19.0717 12.384 19.0024 12.448C18.9384 12.512 18.8584 12.544 18.7624 12.544H16.2984V14.68C16.2984 14.7813 16.261 14.8667 16.1864 14.936C16.117 15.0053 16.0317 15.04 15.9304 15.04Z" fill="white"/>
<path d="M7.12244 14.72L6.99781 14.9367L6.99987 14.9379L7.12244 14.72ZM6.13044 13.704L5.91014 13.8222L5.91076 13.8233L6.13044 13.704ZM6.14644 10.712L6.36447 10.8343L6.14644 10.712ZM7.14644 9.696L7.02387 9.4781L7.0227 9.47877L7.14644 9.696ZM9.65044 9.488L9.57261 9.72558L9.5738 9.72597L9.65044 9.488ZM10.5544 9.912L10.4212 10.1236L10.4316 10.1301L10.4426 10.1356L10.5544 9.912ZM10.6664 10.024L10.4521 10.1526L10.4521 10.1526L10.6664 10.024ZM10.6184 10.432L10.4415 10.2551L10.4341 10.2631L10.6184 10.432ZM10.2104 10.488L10.0825 10.7028L10.0904 10.7075L10.0986 10.7116L10.2104 10.488ZM9.45844 10.152L9.52981 9.9124L9.45844 10.152ZM7.54644 10.296L7.66258 10.5174L7.54644 10.296ZM6.77844 11.048L6.56073 10.9251L6.56007 10.9263L6.77844 11.048ZM6.76244 13.336L6.54024 13.4507L6.54255 13.455L6.76244 13.336ZM7.51444 14.112L7.38735 14.3273L7.39154 14.3297L7.51444 14.112ZM10.0824 14.04L10.2018 14.2597L10.3324 14.1887V14.04H10.0824ZM10.0824 12.592H10.3324V12.342H10.0824V12.592ZM10.6344 14.44L10.4245 14.3042L10.4224 14.3075L10.6344 14.44ZM10.4184 14.632L10.312 14.4057L10.3066 14.4084L10.4184 14.632ZM8.58644 14.83C8.07469 14.83 7.62985 14.7186 7.245 14.5021L6.99987 14.9379C7.46836 15.2014 7.99951 15.33 8.58644 15.33V14.83ZM7.24706 14.5033C6.86043 14.281 6.56269 13.976 6.35012 13.5847L5.91076 13.8233C6.16752 14.296 6.53112 14.6684 6.99782 14.9367L7.24706 14.5033ZM6.35073 13.5858C6.13777 13.1889 6.02844 12.7343 6.02844 12.216H5.52844C5.52844 12.807 5.65377 13.3444 5.91015 13.8222L6.35073 13.5858ZM6.02844 12.216C6.02844 11.6879 6.14266 11.2297 6.36447 10.8343L5.9284 10.5897C5.65955 11.0689 5.52844 11.6134 5.52844 12.216H6.02844ZM6.36447 10.8343C6.58838 10.4352 6.8897 10.13 7.27018 9.91323L7.0227 9.47877C6.5605 9.74205 6.19516 10.1142 5.9284 10.5897L6.36447 10.8343ZM7.269 9.91389C7.65611 9.69615 8.08551 9.586 8.56244 9.586V9.086C8.0047 9.086 7.4901 9.21585 7.02387 9.47811L7.269 9.91389ZM8.56244 9.586C8.95898 9.586 9.29427 9.6344 9.57261 9.72558L9.72826 9.25042C9.38794 9.13894 8.9979 9.086 8.56244 9.086V9.586ZM9.5738 9.72597C9.868 9.82071 10.1504 9.95303 10.4212 10.1236L10.6876 9.70044C10.3825 9.50831 10.0622 9.35796 9.72707 9.25003L9.5738 9.72597ZM10.4426 10.1356C10.4316 10.1301 10.4372 10.1279 10.4521 10.1526L10.8808 9.89538C10.8317 9.81345 10.7626 9.73656 10.6662 9.68839L10.4426 10.1356ZM10.4521 10.1526C10.4601 10.1659 10.4644 10.1799 10.4644 10.2H10.9644C10.9644 10.0921 10.9368 9.98873 10.8808 9.89538L10.4521 10.1526ZM10.4644 10.2C10.4644 10.2245 10.4587 10.2382 10.4417 10.2552L10.7952 10.6088C10.9062 10.4978 10.9644 10.3568 10.9644 10.2H10.4644ZM10.4341 10.2631C10.4309 10.2667 10.4225 10.278 10.3784 10.278V10.778C10.537 10.778 10.6887 10.7253 10.8027 10.6009L10.4341 10.2631ZM10.3784 10.278C10.3592 10.278 10.3415 10.274 10.3222 10.2644L10.0986 10.7116C10.1861 10.7553 10.2803 10.778 10.3784 10.778V10.278ZM10.3384 10.2732C10.072 10.1145 9.80242 9.99361 9.52981 9.9124L9.38707 10.3916C9.61579 10.4597 9.84757 10.5628 10.0825 10.7028L10.3384 10.2732ZM9.52981 9.9124C9.25336 9.83006 8.95705 9.79 8.64244 9.79V10.29C8.9145 10.29 9.16218 10.3246 9.38707 10.3916L9.52981 9.9124ZM8.64244 9.79C8.2009 9.79 7.79505 9.88327 7.4303 10.0746L7.66258 10.5174C7.94849 10.3674 8.27331 10.29 8.64244 10.29V9.79ZM7.4303 10.0746C7.06085 10.2684 6.77023 10.554 6.56073 10.9251L6.99614 11.1709C7.15998 10.8807 7.38136 10.6649 7.66258 10.5174L7.4303 10.0746ZM6.56007 10.9263C6.35393 11.2961 6.25644 11.7293 6.25644 12.216H6.75644C6.75644 11.7961 6.84027 11.4506 6.99681 11.1697L6.56007 10.9263ZM6.25644 12.216C6.25644 12.6671 6.34925 13.0805 6.54028 13.4507L6.98459 13.2213C6.83429 12.9301 6.75644 12.5969 6.75644 12.216H6.25644ZM6.54255 13.455C6.74064 13.8211 7.0238 14.1127 7.38737 14.3273L7.6415 13.8967C7.35441 13.7273 7.13623 13.5015 6.98232 13.217L6.54255 13.455ZM7.39154 14.3297C7.76594 14.5411 8.19915 14.642 8.68244 14.642V14.142C8.26972 14.142 7.92427 14.0563 7.63734 13.8943L7.39154 14.3297ZM8.68244 14.642C9.2246 14.642 9.7324 14.5146 10.2018 14.2597L9.96311 13.8203C9.56848 14.0347 9.14295 14.142 8.68244 14.142V14.642ZM10.3324 14.04V12.592H9.83244V14.04H10.3324ZM10.0824 12.342H8.76244V12.842H10.0824V12.342ZM8.76244 12.342C8.73795 12.342 8.72424 12.3362 8.70721 12.3192L8.35366 12.6728C8.46464 12.7838 8.6056 12.842 8.76244 12.842V12.342ZM8.70721 12.3192C8.69019 12.3022 8.68444 12.2885 8.68444 12.264H8.18444C8.18444 12.4208 8.24269 12.5618 8.35366 12.6728L8.70721 12.3192ZM8.68444 12.264C8.68444 12.2395 8.69019 12.2258 8.70721 12.2088L8.35366 11.8552C8.24269 11.9662 8.18444 12.1072 8.18444 12.264H8.68444ZM8.70721 12.2088C8.72424 12.1918 8.73795 12.186 8.76244 12.186V11.686C8.6056 11.686 8.46464 11.7442 8.35366 11.8552L8.70721 12.2088ZM8.76244 12.186H10.3384V11.686H8.76244V12.186ZM10.3384 12.186C10.3796 12.186 10.4064 12.1975 10.4337 12.2248L10.7872 11.8712C10.6651 11.7491 10.5107 11.686 10.3384 11.686V12.186ZM10.4337 12.2248C10.4609 12.252 10.4724 12.2789 10.4724 12.32H10.9724C10.9724 12.1478 10.9093 11.9933 10.7872 11.8712L10.4337 12.2248ZM10.4724 12.32V14.136H10.9724V12.32H10.4724ZM10.4724 14.136C10.4724 14.2017 10.456 14.2555 10.4245 14.3042L10.8443 14.5758C10.9302 14.4431 10.9724 14.2943 10.9724 14.136H10.4724ZM10.4224 14.3075C10.3944 14.3523 10.359 14.3837 10.312 14.4058L10.5249 14.8582C10.6592 14.795 10.7678 14.6984 10.8464 14.5725L10.4224 14.3075ZM10.3066 14.4084C9.74152 14.691 9.16893 14.83 8.58644 14.83V15.33C9.25195 15.33 9.90069 15.1704 10.5302 14.8556L10.3066 14.4084ZM12.8331 14.936L13.0099 14.7592L12.8331 14.936ZM12.8331 9.488L13.01 9.6649L13.0163 9.65811L12.8331 9.488ZM13.3451 9.488L13.1619 9.65811L13.1682 9.6649L13.175 9.6712L13.3451 9.488ZM13.3451 14.936L13.1749 14.7527L13.1683 14.7592L13.3451 14.936ZM13.0891 14.79C13.0516 14.79 13.0306 14.7799 13.0099 14.7592L12.6563 15.1128C12.7743 15.2307 12.924 15.29 13.0891 15.29V14.79ZM13.0099 14.7592C12.9892 14.7385 12.9791 14.7175 12.9791 14.68H12.4791C12.4791 14.8452 12.5384 14.9948 12.6563 15.1128L13.0099 14.7592ZM12.9791 14.68V9.744H12.4791V14.68H12.9791ZM12.9791 9.744C12.9791 9.70649 12.9892 9.6855 13.0099 9.66478L12.6563 9.31122C12.5384 9.42916 12.4791 9.57884 12.4791 9.744H12.9791ZM13.0163 9.65811C13.0387 9.63407 13.0577 9.626 13.0891 9.626V9.126C12.9178 9.126 12.7663 9.1926 12.6499 9.31789L13.0163 9.65811ZM13.0891 9.626C13.1205 9.626 13.1396 9.63407 13.1619 9.65811L13.5283 9.31789C13.412 9.1926 13.2604 9.126 13.0891 9.126V9.626ZM13.175 9.6712C13.1991 9.69353 13.2071 9.71262 13.2071 9.744H13.7071C13.7071 9.57271 13.6405 9.42114 13.5152 9.3048L13.175 9.6712ZM13.2071 9.744V14.68H13.7071V9.744H13.2071ZM13.2071 14.68C13.2071 14.7114 13.1991 14.7305 13.175 14.7528L13.5152 15.1192C13.6405 15.0029 13.7071 14.8513 13.7071 14.68H13.2071ZM13.1683 14.7592C13.1476 14.7799 13.1266 14.79 13.0891 14.79V15.29C13.2543 15.29 13.404 15.2307 13.5219 15.1128L13.1683 14.7592ZM15.6744 14.936L15.8512 14.7592L15.6744 14.936ZM15.6744 9.528L15.8513 9.7049L15.8576 9.69811L15.6744 9.528ZM19.2824 9.52L19.0987 9.68957L19.1055 9.69692L19.1128 9.7037L19.2824 9.52ZM19.2824 10L19.1127 9.81615L19.1056 9.82322L19.2824 10ZM16.2984 10.096V9.846H16.0484V10.096H16.2984ZM16.2984 11.864H16.0484V12.114H16.2984V11.864ZM19.0024 11.968L18.8187 12.1376L18.8255 12.1449L18.8328 12.1517L19.0024 11.968ZM19.0024 12.448L18.8327 12.2642L18.8256 12.2712L19.0024 12.448ZM16.2984 12.544V12.294H16.0484V12.544H16.2984ZM16.1864 14.936L16.0161 14.7527L16.0096 14.7592L16.1864 14.936ZM15.9304 14.79C15.8929 14.79 15.8719 14.7799 15.8512 14.7592L15.4976 15.1128C15.6155 15.2307 15.7652 15.29 15.9304 15.29V14.79ZM15.8512 14.7592C15.8304 14.7385 15.8204 14.7175 15.8204 14.68H15.3204C15.3204 14.8452 15.3797 14.9948 15.4976 15.1128L15.8512 14.7592ZM15.8204 14.68V9.784H15.3204V14.68H15.8204ZM15.8204 9.784C15.8204 9.74649 15.8304 9.7255 15.8512 9.70478L15.4976 9.35122C15.3797 9.46917 15.3204 9.61884 15.3204 9.784H15.8204ZM15.8576 9.69811C15.8799 9.67407 15.899 9.666 15.9304 9.666V9.166C15.7591 9.166 15.6075 9.2326 15.4912 9.35789L15.8576 9.69811ZM15.9304 9.666H19.0424V9.166H15.9304V9.666ZM19.0424 9.666C19.07 9.666 19.0829 9.67251 19.0987 9.68957L19.4661 9.35043C19.3538 9.22882 19.2068 9.166 19.0424 9.166V9.666ZM19.1128 9.7037C19.1299 9.71944 19.1364 9.73239 19.1364 9.76H19.6364C19.6364 9.59561 19.5736 9.44855 19.4519 9.3363L19.1128 9.7037ZM19.1364 9.76C19.1364 9.78761 19.1299 9.80056 19.1128 9.8163L19.4519 10.1837C19.5736 10.0714 19.6364 9.92439 19.6364 9.76H19.1364ZM19.1056 9.82322C19.0915 9.83727 19.0765 9.846 19.0424 9.846V10.346C19.2002 10.346 19.3452 10.2907 19.4592 10.1768L19.1056 9.82322ZM19.0424 9.846H16.2984V10.346H19.0424V9.846ZM16.0484 10.096V11.864H16.5484V10.096H16.0484ZM16.2984 12.114H18.7624V11.614H16.2984V12.114ZM18.7624 12.114C18.79 12.114 18.8029 12.1205 18.8187 12.1376L19.1861 11.7984C19.0738 11.6768 18.9268 11.614 18.7624 11.614V12.114ZM18.8328 12.1517C18.8499 12.1674 18.8564 12.1804 18.8564 12.208H19.3564C19.3564 12.0436 19.2936 11.8966 19.1719 11.7843L18.8328 12.1517ZM18.8564 12.208C18.8564 12.2356 18.8499 12.2486 18.8328 12.2643L19.1719 12.6317C19.2936 12.5194 19.3564 12.3724 19.3564 12.208H18.8564ZM18.8256 12.2712C18.8115 12.2853 18.7965 12.294 18.7624 12.294V12.794C18.9202 12.794 19.0652 12.7387 19.1792 12.6248L18.8256 12.2712ZM18.7624 12.294H16.2984V12.794H18.7624V12.294ZM16.0484 12.544V14.68H16.5484V12.544H16.0484ZM16.0484 14.68C16.0484 14.7114 16.0403 14.7305 16.0163 14.7528L16.3565 15.1192C16.4818 15.0029 16.5484 14.8513 16.5484 14.68H16.0484ZM16.0096 14.7592C15.9889 14.7799 15.9679 14.79 15.9304 14.79V15.29C16.0955 15.29 16.2452 15.2307 16.3632 15.1128L16.0096 14.7592Z" fill="white"/>
<defs>
<linearGradient id="paint0_linear_1165_2422" x1="12" y1="0" x2="12" y2="24" gradientUnits="userSpaceOnUse">
<stop stop-color="#A28AFF"/>
<stop offset="1" stop-color="#7655FB"/>
</linearGradient>
</defs>
</svg>
