<svg width="24" height="24" viewBox="0 0 24 24" fill="none" xmlns="http://www.w3.org/2000/svg">
<rect width="24" height="24" rx="4" fill="url(#paint0_linear_1165_2220)"/>
<path d="M5.70587 15.08C5.31654 15.08 4.96187 14.9893 4.64187 14.808C4.52454 14.7387 4.46587 14.64 4.46587 14.512C4.46587 14.4267 4.49254 14.352 4.54587 14.288C4.60454 14.2187 4.67921 14.184 4.76987 14.184C4.82321 14.184 4.87121 14.1947 4.91387 14.216C5.15921 14.3333 5.40721 14.392 5.65787 14.392C5.94587 14.392 6.17787 14.3093 6.35387 14.144C6.53521 13.9787 6.62587 13.6667 6.62587 13.208V9.744C6.62587 9.64267 6.66054 9.55733 6.72987 9.488C6.79921 9.41333 6.88454 9.376 6.98587 9.376C7.08721 9.376 7.17254 9.41333 7.24187 9.488C7.31654 9.55733 7.35387 9.64267 7.35387 9.744V13.16C7.35387 13.8587 7.19654 14.3547 6.88187 14.648C6.57254 14.936 6.18054 15.08 5.70587 15.08ZM9.78444 15.04C9.6831 15.04 9.59777 15.0053 9.52844 14.936C9.4591 14.8667 9.42444 14.7813 9.42444 14.68V9.784C9.42444 9.68267 9.4591 9.59733 9.52844 9.528C9.59777 9.45333 9.6831 9.416 9.78444 9.416H11.6084C12.1151 9.416 12.5284 9.50133 12.8484 9.672C13.1684 9.84267 13.3978 10.0613 13.5364 10.328C13.6751 10.5947 13.7444 10.8827 13.7444 11.192C13.7444 11.5013 13.6751 11.7893 13.5364 12.056C13.3978 12.3227 13.1684 12.5413 12.8484 12.712C12.5284 12.8827 12.1151 12.968 11.6084 12.968H10.1524V14.68C10.1524 14.7813 10.1151 14.8667 10.0404 14.936C9.9711 15.0053 9.88577 15.04 9.78444 15.04ZM11.5364 12.28C12.0804 12.28 12.4618 12.176 12.6804 11.968C12.9044 11.76 13.0164 11.5013 13.0164 11.192C13.0164 10.8827 12.9044 10.624 12.6804 10.416C12.4618 10.208 12.0804 10.104 11.5364 10.104H10.1524V12.28H11.5364ZM17.8314 15.08C17.2821 15.08 16.7941 14.96 16.3674 14.72C15.9408 14.4747 15.6101 14.136 15.3754 13.704C15.1408 13.2667 15.0234 12.7707 15.0234 12.216C15.0234 11.6507 15.1461 11.1493 15.3914 10.712C15.6368 10.2747 15.9701 9.936 16.3914 9.696C16.8181 9.456 17.2901 9.336 17.8074 9.336C18.2234 9.336 18.5861 9.38667 18.8954 9.488C19.2101 9.58933 19.5114 9.73067 19.7994 9.912C19.8421 9.93333 19.8794 9.97067 19.9114 10.024C19.9434 10.0773 19.9594 10.136 19.9594 10.2C19.9594 10.2907 19.9274 10.368 19.8634 10.432C19.8048 10.496 19.7248 10.528 19.6234 10.528C19.5648 10.528 19.5088 10.5147 19.4554 10.488C19.2048 10.3387 18.9541 10.2267 18.7034 10.152C18.4528 10.0773 18.1808 10.04 17.8874 10.04C17.4821 10.04 17.1168 10.1253 16.7914 10.296C16.4661 10.4667 16.2101 10.7173 16.0234 11.048C15.8421 11.3733 15.7514 11.7627 15.7514 12.216C15.7514 12.632 15.8368 13.0053 16.0074 13.336C16.1834 13.6613 16.4341 13.92 16.7594 14.112C17.0901 14.2987 17.4794 14.392 17.9274 14.392C18.4288 14.392 18.8954 14.2747 19.3274 14.04V12.592H18.0074C17.9168 12.592 17.8394 12.56 17.7754 12.496C17.7114 12.432 17.6794 12.3547 17.6794 12.264C17.6794 12.1733 17.7114 12.096 17.7754 12.032C17.8394 11.968 17.9168 11.936 18.0074 11.936H19.5834C19.6901 11.936 19.7808 11.9733 19.8554 12.048C19.9301 12.1227 19.9674 12.2133 19.9674 12.32V14.136C19.9674 14.248 19.9381 14.3493 19.8794 14.44C19.8261 14.5253 19.7541 14.5893 19.6634 14.632C19.0661 14.9307 18.4554 15.08 17.8314 15.08Z" fill="white"/>
<path d="M4.64187 14.808L4.51467 15.0233L4.51862 15.0255L4.64187 14.808ZM4.54587 14.288L4.35502 14.1265L4.35382 14.128L4.54587 14.288ZM4.91387 14.216L4.80205 14.4396L4.80601 14.4415L4.91387 14.216ZM6.35387 14.144L6.18542 13.9592L6.18271 13.9618L6.35387 14.144ZM6.72987 9.488L6.90677 9.6649L6.91307 9.65811L6.72987 9.488ZM7.24187 9.488L7.05868 9.65811L7.06498 9.6649L7.07176 9.6712L7.24187 9.488ZM6.88187 14.648L7.05223 14.831L7.05234 14.8309L6.88187 14.648ZM5.70587 14.83C5.35712 14.83 5.04533 14.7493 4.76513 14.5905L4.51862 15.0255C4.87842 15.2294 5.27596 15.33 5.70587 15.33V14.83ZM4.76906 14.5928C4.72184 14.5649 4.71587 14.5448 4.71587 14.512H4.21587C4.21587 14.7352 4.32724 14.9125 4.51469 15.0232L4.76906 14.5928ZM4.71587 14.512C4.71587 14.4836 4.72302 14.4659 4.73793 14.448L4.35382 14.128C4.26207 14.2381 4.21587 14.3697 4.21587 14.512H4.71587ZM4.73672 14.4495C4.74505 14.4396 4.75001 14.4373 4.75115 14.4368C4.75228 14.4362 4.75718 14.434 4.76987 14.434V13.934C4.60552 13.934 4.4611 14.0012 4.35503 14.1265L4.73672 14.4495ZM4.76987 14.434C4.78903 14.434 4.79804 14.4376 4.80207 14.4396L5.02568 13.9924C4.94438 13.9517 4.85739 13.934 4.76987 13.934V14.434ZM4.80601 14.4415C5.08212 14.5736 5.36678 14.642 5.65787 14.642V14.142C5.44763 14.142 5.2363 14.0931 5.02174 13.9905L4.80601 14.4415ZM5.65787 14.642C5.99646 14.642 6.294 14.5433 6.52504 14.3262L6.18271 13.9618C6.06175 14.0754 5.89529 14.142 5.65787 14.142V14.642ZM6.52231 14.3287C6.78591 14.0884 6.87587 13.6814 6.87587 13.208H6.37587C6.37587 13.6519 6.2845 13.8689 6.18544 13.9593L6.52231 14.3287ZM6.87587 13.208V9.744H6.37587V13.208H6.87587ZM6.87587 9.744C6.87587 9.70649 6.88593 9.6855 6.90665 9.66478L6.5531 9.31122C6.43516 9.42917 6.37587 9.57884 6.37587 9.744H6.87587ZM6.91307 9.65811C6.9354 9.63407 6.95449 9.626 6.98587 9.626V9.126C6.81459 9.126 6.66302 9.1926 6.54668 9.31789L6.91307 9.65811ZM6.98587 9.626C7.01725 9.626 7.03635 9.63407 7.05868 9.65811L7.42507 9.31789C7.30873 9.1926 7.15716 9.126 6.98587 9.126V9.626ZM7.07176 9.6712C7.09581 9.69353 7.10387 9.71262 7.10387 9.744H7.60387C7.60387 9.57271 7.53728 9.42114 7.41199 9.3048L7.07176 9.6712ZM7.10387 9.744V13.16H7.60387V9.744H7.10387ZM7.10387 13.16C7.10387 13.8312 6.95123 14.2416 6.71141 14.4651L7.05234 14.8309C7.44185 14.4678 7.60387 13.8862 7.60387 13.16H7.10387ZM6.71152 14.465C6.45426 14.7045 6.12573 14.83 5.70587 14.83V15.33C6.23535 15.33 6.69082 15.1675 7.05223 14.831L6.71152 14.465ZM9.52844 14.936L9.70521 14.7592H9.70521L9.52844 14.936ZM9.52844 9.528L9.70534 9.7049L9.71164 9.69811L9.52844 9.528ZM12.8484 9.672L12.9661 9.45141L12.8484 9.672ZM13.5364 10.328L13.3146 10.4433V10.4433L13.5364 10.328ZM13.5364 12.056L13.3146 11.9407L13.3146 11.9407L13.5364 12.056ZM12.8484 12.712L12.9661 12.9326L12.8484 12.712ZM10.1524 12.968V12.718H9.90244V12.968H10.1524ZM10.0404 14.936L9.87021 14.7527L9.86366 14.7592L10.0404 14.936ZM12.6804 11.968L12.5103 11.7848L12.5081 11.7869L12.6804 11.968ZM12.6804 10.416L12.5081 10.5972L12.5103 10.5992L12.6804 10.416ZM10.1524 10.104V9.854H9.90244V10.104H10.1524ZM10.1524 12.28H9.90244V12.53H10.1524V12.28ZM9.78444 14.79C9.74693 14.79 9.72594 14.7799 9.70521 14.7592L9.35166 15.1128C9.4696 15.2307 9.61928 15.29 9.78444 15.29V14.79ZM9.70521 14.7592C9.68449 14.7385 9.67444 14.7175 9.67444 14.68H9.17444C9.17444 14.8452 9.23372 14.9948 9.35166 15.1128L9.70521 14.7592ZM9.67444 14.68V9.784H9.17444V14.68H9.67444ZM9.67444 9.784C9.67444 9.74649 9.68449 9.7255 9.70521 9.70478L9.35166 9.35122C9.23372 9.46917 9.17444 9.61884 9.17444 9.784H9.67444ZM9.71164 9.69811C9.73396 9.67407 9.75306 9.666 9.78444 9.666V9.166C9.61315 9.166 9.46158 9.2326 9.34524 9.35789L9.71164 9.69811ZM9.78444 9.666H11.6084V9.166H9.78444V9.666ZM11.6084 9.666C12.0895 9.666 12.4585 9.74737 12.7308 9.89259L12.9661 9.45141C12.5984 9.2553 12.1407 9.166 11.6084 9.166V9.666ZM12.7308 9.89259C13.0156 10.0445 13.2037 10.23 13.3146 10.4433L13.7582 10.2127C13.5918 9.89263 13.3213 9.64085 12.9661 9.45141L12.7308 9.89259ZM13.3146 10.4433C13.4342 10.6733 13.4944 10.9216 13.4944 11.192H13.9944C13.9944 10.8437 13.916 10.516 13.7582 10.2127L13.3146 10.4433ZM13.4944 11.192C13.4944 11.4624 13.4342 11.7107 13.3146 11.9407L13.7582 12.1713C13.916 11.868 13.9944 11.5403 13.9944 11.192H13.4944ZM13.3146 11.9407C13.2037 12.154 13.0156 12.3395 12.7308 12.4914L12.9661 12.9326C13.3213 12.7432 13.5918 12.4914 13.7582 12.1713L13.3146 11.9407ZM12.7308 12.4914C12.4585 12.6366 12.0895 12.718 11.6084 12.718V13.218C12.1407 13.218 12.5984 13.1287 12.9661 12.9326L12.7308 12.4914ZM11.6084 12.718H10.1524V13.218H11.6084V12.718ZM9.90244 12.968V14.68H10.4024V12.968H9.90244ZM9.90244 14.68C9.90244 14.7114 9.89437 14.7305 9.87032 14.7528L10.2105 15.1192C10.3358 15.0029 10.4024 14.8513 10.4024 14.68H9.90244ZM9.86366 14.7592C9.84294 14.7799 9.82195 14.79 9.78444 14.79V15.29C9.94959 15.29 10.0993 15.2307 10.2172 15.1128L9.86366 14.7592ZM11.5364 12.53C12.0979 12.53 12.5622 12.4255 12.8527 12.1491L12.5081 11.7869C12.3613 11.9265 12.0629 12.03 11.5364 12.03V12.53ZM12.8505 12.1512C13.1262 11.8953 13.2664 11.5699 13.2664 11.192H12.7664C12.7664 11.4328 12.6827 11.6247 12.5103 11.7848L12.8505 12.1512ZM13.2664 11.192C13.2664 10.8141 13.1262 10.4887 12.8505 10.2328L12.5103 10.5992C12.6827 10.7593 12.7664 10.9512 12.7664 11.192H13.2664ZM12.8527 10.2349C12.5622 9.95854 12.0979 9.854 11.5364 9.854V10.354C12.0629 10.354 12.3613 10.4575 12.5081 10.5971L12.8527 10.2349ZM11.5364 9.854H10.1524V10.354H11.5364V9.854ZM9.90244 10.104V12.28H10.4024V10.104H9.90244ZM10.1524 12.53H11.5364V12.03H10.1524V12.53ZM16.3674 14.72L16.2428 14.9367L16.2449 14.9379L16.3674 14.72ZM15.3754 13.704L15.1551 13.8222L15.1558 13.8233L15.3754 13.704ZM15.3914 10.712L15.6095 10.8343H15.6095L15.3914 10.712ZM16.3914 9.696L16.2689 9.4781L16.2677 9.47877L16.3914 9.696ZM18.8954 9.488L18.8176 9.72558L18.8188 9.72597L18.8954 9.488ZM19.7994 9.912L19.6662 10.1236L19.6766 10.1301L19.6876 10.1356L19.7994 9.912ZM19.9114 10.024L19.6971 10.1526L19.6971 10.1526L19.9114 10.024ZM19.8634 10.432L19.6865 10.2551L19.6791 10.2631L19.8634 10.432ZM19.4554 10.488L19.3275 10.7028L19.3354 10.7075L19.3436 10.7116L19.4554 10.488ZM18.7034 10.152L18.7748 9.9124L18.7034 10.152ZM16.7914 10.296L16.9076 10.5174L16.7914 10.296ZM16.0234 11.048L15.8057 10.9251L15.8051 10.9263L16.0234 11.048ZM16.0074 13.336L15.7852 13.4507L15.7876 13.455L16.0074 13.336ZM16.7594 14.112L16.6323 14.3273L16.6365 14.3297L16.7594 14.112ZM19.3274 14.04L19.4468 14.2597L19.5774 14.1887V14.04H19.3274ZM19.3274 12.592H19.5774V12.342H19.3274V12.592ZM19.8794 14.44L19.6695 14.3042L19.6674 14.3075L19.8794 14.44ZM19.6634 14.632L19.557 14.4057L19.5516 14.4084L19.6634 14.632ZM17.8314 14.83C17.3197 14.83 16.8749 14.7186 16.49 14.5021L16.2449 14.9379C16.7134 15.2014 17.2445 15.33 17.8314 15.33V14.83ZM16.4921 14.5033C16.1054 14.281 15.8077 13.976 15.5951 13.5847L15.1558 13.8233C15.4125 14.296 15.7761 14.6684 16.2428 14.9367L16.4921 14.5033ZM15.5957 13.5858C15.3828 13.1889 15.2734 12.7343 15.2734 12.216H14.7734C14.7734 12.807 14.8988 13.3444 15.1551 13.8222L15.5957 13.5858ZM15.2734 12.216C15.2734 11.6879 15.3877 11.2297 15.6095 10.8343L15.1734 10.5897C14.9046 11.0689 14.7734 11.6134 14.7734 12.216H15.2734ZM15.6095 10.8343C15.8334 10.4352 16.1347 10.13 16.5152 9.91323L16.2677 9.47877C15.8055 9.74205 15.4402 10.1142 15.1734 10.5897L15.6095 10.8343ZM16.514 9.91389C16.9011 9.69615 17.3305 9.586 17.8074 9.586V9.086C17.2497 9.086 16.7351 9.21585 16.2689 9.47811L16.514 9.91389ZM17.8074 9.586C18.204 9.586 18.5393 9.6344 18.8176 9.72558L18.9733 9.25042C18.6329 9.13894 18.2429 9.086 17.8074 9.086V9.586ZM18.8188 9.72597C19.113 9.82071 19.3954 9.95303 19.6662 10.1236L19.9326 9.70044C19.6275 9.50831 19.3072 9.35796 18.9721 9.25003L18.8188 9.72597ZM19.6876 10.1356C19.6766 10.1301 19.6822 10.1279 19.6971 10.1526L20.1258 9.89538C20.0767 9.81345 20.0076 9.73656 19.9112 9.68839L19.6876 10.1356ZM19.6971 10.1526C19.7051 10.1659 19.7094 10.1799 19.7094 10.2H20.2094C20.2094 10.0921 20.1818 9.98873 20.1258 9.89538L19.6971 10.1526ZM19.7094 10.2C19.7094 10.2245 19.7037 10.2382 19.6867 10.2552L20.0402 10.6088C20.1512 10.4978 20.2094 10.3568 20.2094 10.2H19.7094ZM19.6791 10.2631C19.6759 10.2667 19.6675 10.278 19.6234 10.278V10.778C19.782 10.778 19.9337 10.7253 20.0477 10.6009L19.6791 10.2631ZM19.6234 10.278C19.6042 10.278 19.5865 10.274 19.5672 10.2644L19.3436 10.7116C19.4311 10.7553 19.5253 10.778 19.6234 10.778V10.278ZM19.5834 10.2732C19.317 10.1145 19.0474 9.99361 18.7748 9.9124L18.6321 10.3916C18.8608 10.4597 19.0926 10.5628 19.3275 10.7028L19.5834 10.2732ZM18.7748 9.9124C18.4984 9.83006 18.202 9.79 17.8874 9.79V10.29C18.1595 10.29 18.4072 10.3246 18.6321 10.3916L18.7748 9.9124ZM17.8874 9.79C17.4459 9.79 17.04 9.88327 16.6753 10.0746L16.9076 10.5174C17.1935 10.3674 17.5183 10.29 17.8874 10.29V9.79ZM16.6753 10.0746C16.3058 10.2684 16.0152 10.554 15.8057 10.9251L16.2411 11.1709C16.405 10.8807 16.6264 10.6649 16.9076 10.5174L16.6753 10.0746ZM15.8051 10.9263C15.5989 11.2961 15.5014 11.7293 15.5014 12.216H16.0014C16.0014 11.7961 16.0853 11.4506 16.2418 11.1697L15.8051 10.9263ZM15.5014 12.216C15.5014 12.6671 15.5942 13.0805 15.7853 13.4507L16.2296 13.2213C16.0793 12.9301 16.0014 12.5969 16.0014 12.216H15.5014ZM15.7876 13.455C15.9856 13.8211 16.2688 14.1127 16.6324 14.3273L16.8865 13.8967C16.5994 13.7273 16.3812 13.5015 16.2273 13.217L15.7876 13.455ZM16.6365 14.3297C17.0109 14.5411 17.4442 14.642 17.9274 14.642V14.142C17.5147 14.142 17.1693 14.0563 16.8823 13.8943L16.6365 14.3297ZM17.9274 14.642C18.4696 14.642 18.9774 14.5146 19.4468 14.2597L19.2081 13.8203C18.8135 14.0347 18.3879 14.142 17.9274 14.142V14.642ZM19.5774 14.04V12.592H19.0774V14.04H19.5774ZM19.3274 12.342H18.0074V12.842H19.3274V12.342ZM18.0074 12.342C17.9829 12.342 17.9692 12.3362 17.9522 12.3192L17.5987 12.6728C17.7096 12.7838 17.8506 12.842 18.0074 12.842V12.342ZM17.9522 12.3192C17.9352 12.3022 17.9294 12.2885 17.9294 12.264H17.4294C17.4294 12.4208 17.4877 12.5618 17.5987 12.6728L17.9522 12.3192ZM17.9294 12.264C17.9294 12.2395 17.9352 12.2258 17.9522 12.2088L17.5987 11.8552C17.4877 11.9662 17.4294 12.1072 17.4294 12.264H17.9294ZM17.9522 12.2088C17.9692 12.1918 17.9829 12.186 18.0074 12.186V11.686C17.8506 11.686 17.7096 11.7442 17.5987 11.8552L17.9522 12.2088ZM18.0074 12.186H19.5834V11.686H18.0074V12.186ZM19.5834 12.186C19.6246 12.186 19.6514 12.1975 19.6787 12.2248L20.0322 11.8712C19.9101 11.7491 19.7557 11.686 19.5834 11.686V12.186ZM19.6787 12.2248C19.7059 12.252 19.7174 12.2789 19.7174 12.32H20.2174C20.2174 12.1478 20.1543 11.9933 20.0322 11.8712L19.6787 12.2248ZM19.7174 12.32V14.136H20.2174V12.32H19.7174ZM19.7174 14.136C19.7174 14.2017 19.701 14.2555 19.6695 14.3042L20.0893 14.5758C20.1752 14.4431 20.2174 14.2943 20.2174 14.136H19.7174ZM19.6674 14.3075C19.6394 14.3523 19.604 14.3837 19.557 14.4058L19.7699 14.8582C19.9042 14.795 20.0128 14.6984 20.0914 14.5725L19.6674 14.3075ZM19.5516 14.4084C18.9865 14.691 18.4139 14.83 17.8314 14.83V15.33C18.4969 15.33 19.1457 15.1704 19.7752 14.8556L19.5516 14.4084Z" fill="white"/>
<defs>
<linearGradient id="paint0_linear_1165_2220" x1="12" y1="0" x2="12" y2="24" gradientUnits="userSpaceOnUse">
<stop stop-color="#ED81FF"/>
<stop offset="1" stop-color="#DC5DD7"/>
</linearGradient>
</defs>
</svg>
