<svg width="24" height="24" viewBox="0 0 24 24" fill="none" xmlns="http://www.w3.org/2000/svg">
<rect width="24" height="24" rx="4" fill="url(#paint0_linear_1165_2424)"/>
<path d="M3.25569 15.04C3.15435 15.04 3.06902 15.0053 2.99969 14.936C2.93035 14.8667 2.89569 14.7813 2.89569 14.68V9.904C2.89569 9.76 2.94635 9.63733 3.04769 9.536C3.14902 9.42933 3.27169 9.376 3.41569 9.376H3.67969C3.78635 9.376 3.88235 9.408 3.96769 9.472C4.05835 9.536 4.12502 9.616 4.16769 9.712L5.98369 14.24L7.79969 9.712C7.84235 9.616 7.90635 9.536 7.99169 9.472C8.08235 9.408 8.18102 9.376 8.28769 9.376H8.55169C8.69569 9.376 8.81835 9.42933 8.91969 9.536C9.02102 9.63733 9.07169 9.76 9.07169 9.904V14.68C9.07169 14.7813 9.03702 14.8667 8.96769 14.936C8.89835 15.0053 8.81302 15.04 8.71169 15.04C8.61035 15.04 8.52235 15.0053 8.44769 14.936C8.37835 14.8667 8.34369 14.7813 8.34369 14.68V10.136L6.49569 14.704C6.45302 14.8053 6.38369 14.888 6.28769 14.952C6.19702 15.0107 6.09569 15.04 5.98369 15.04C5.87169 15.04 5.76769 15.0107 5.67169 14.952C5.58102 14.888 5.51435 14.8053 5.47169 14.704L3.62369 10.136V14.68C3.62369 14.7813 3.58635 14.8667 3.51169 14.936C3.44235 15.0053 3.35702 15.04 3.25569 15.04ZM11.5423 15.04C11.4409 15.04 11.3556 15.0053 11.2863 14.936C11.2169 14.8667 11.1823 14.7813 11.1823 14.68V9.744C11.1823 9.64267 11.2169 9.55733 11.2863 9.488C11.3556 9.41333 11.4409 9.376 11.5423 9.376C11.6436 9.376 11.7289 9.41333 11.7983 9.488C11.8729 9.55733 11.9103 9.64267 11.9103 9.744V12.288L14.6463 9.504C14.7209 9.41867 14.8116 9.376 14.9183 9.376C15.0089 9.376 15.0863 9.408 15.1503 9.472C15.2196 9.53067 15.2543 9.60533 15.2543 9.696C15.2543 9.80267 15.2249 9.88533 15.1663 9.944L13.3183 11.784L15.4383 14.456C15.4969 14.5307 15.5263 14.608 15.5263 14.688C15.5316 14.784 15.4996 14.8667 15.4303 14.936C15.3609 15.0053 15.2756 15.04 15.1743 15.04C15.0516 15.04 14.9556 14.992 14.8863 14.896L12.8223 12.264L11.9103 13.184V14.68C11.9103 14.7813 11.8729 14.8667 11.7983 14.936C11.7289 15.0053 11.6436 15.04 11.5423 15.04ZM19.0136 15.04C18.795 15.04 18.6296 14.9173 18.5176 14.672L16.5416 9.88C16.5256 9.83733 16.5176 9.792 16.5176 9.744C16.5176 9.632 16.5496 9.544 16.6136 9.48C16.6776 9.41067 16.7656 9.376 16.8776 9.376C16.9523 9.376 17.019 9.4 17.0776 9.448C17.1416 9.49067 17.1896 9.54933 17.2216 9.624L19.1016 14.312L20.9816 9.624C21.0136 9.54933 21.059 9.49067 21.1176 9.448C21.1816 9.4 21.251 9.376 21.3256 9.376C21.4376 9.376 21.5256 9.41067 21.5896 9.48C21.6536 9.544 21.6856 9.632 21.6856 9.744C21.6856 9.792 21.6776 9.83733 21.6616 9.88L19.6856 14.672C19.5736 14.9173 19.4083 15.04 19.1896 15.04H19.0136Z" fill="white"/>
<path d="M2.99969 14.936L3.17646 14.7592L2.99969 14.936ZM3.04769 9.536L3.22452 9.71283L3.22894 9.70819L3.04769 9.536ZM3.96769 9.472L3.81763 9.67208L3.82352 9.67624L3.96769 9.472ZM4.16769 9.712L4.39988 9.61888L4.39614 9.61047L4.16769 9.712ZM5.98369 14.24L5.75165 14.3331L5.98369 14.9116L6.21572 14.3331L5.98369 14.24ZM7.79969 9.712L7.57108 9.6104L7.56765 9.61894L7.79969 9.712ZM7.99169 9.472L7.84746 9.26767L7.84169 9.272L7.99169 9.472ZM8.91969 9.536L8.73838 9.70824L8.74291 9.71278L8.91969 9.536ZM8.96769 14.936L9.14446 15.1128H9.14446L8.96769 14.936ZM8.44769 14.936L8.27079 15.1129L8.27757 15.1192L8.44769 14.936ZM8.34369 10.136H8.59369L8.11193 10.0422L8.34369 10.136ZM6.49569 14.704L6.72612 14.801L6.72744 14.7978L6.49569 14.704ZM6.28769 14.952L6.42351 15.1619L6.42636 15.16L6.28769 14.952ZM5.67169 14.952L5.52752 15.1562L5.53427 15.161L5.54132 15.1653L5.67169 14.952ZM5.47169 14.704L5.23991 14.7978L5.24128 14.801L5.47169 14.704ZM3.62369 10.136L3.85544 10.0422L3.37369 10.136H3.62369ZM3.51169 14.936L3.34146 14.7527L3.33491 14.7592L3.51169 14.936ZM3.25569 14.79C3.21818 14.79 3.19719 14.7799 3.17646 14.7592L2.82291 15.1128C2.94085 15.2307 3.09053 15.29 3.25569 15.29V14.79ZM3.17646 14.7592C3.15574 14.7385 3.14569 14.7175 3.14569 14.68H2.64569C2.64569 14.8452 2.70497 14.9948 2.82291 15.1128L3.17646 14.7592ZM3.14569 14.68V9.904H2.64569V14.68H3.14569ZM3.14569 9.904C3.14569 9.82594 3.17027 9.76697 3.22446 9.71278L2.87091 9.35922C2.72244 9.50769 2.64569 9.69406 2.64569 9.904H3.14569ZM3.22894 9.70819C3.28423 9.64998 3.34188 9.626 3.41569 9.626V9.126C3.2015 9.126 3.01381 9.20868 2.86644 9.36381L3.22894 9.70819ZM3.41569 9.626H3.67969V9.126H3.41569V9.626ZM3.67969 9.626C3.73226 9.626 3.77563 9.64046 3.81769 9.672L4.11769 9.272C3.98908 9.17554 3.84045 9.126 3.67969 9.126V9.626ZM3.82352 9.67624C3.8795 9.71576 3.91593 9.7611 3.93923 9.81353L4.39614 9.61047C4.33411 9.4709 4.2372 9.35624 4.11186 9.26776L3.82352 9.67624ZM3.93565 9.80506L5.75165 14.3331L6.21572 14.1469L4.39972 9.61894L3.93565 9.80506ZM6.21572 14.3331L8.03172 9.80506L7.56765 9.61894L5.75165 14.1469L6.21572 14.3331ZM8.02814 9.81353C8.05321 9.75713 8.08993 9.71082 8.14169 9.672L7.84169 9.272C7.72278 9.36118 7.6315 9.47487 7.57123 9.61047L8.02814 9.81353ZM8.13586 9.67624C8.18616 9.64073 8.23483 9.626 8.28769 9.626V9.126C8.12721 9.126 7.97855 9.17527 7.84752 9.26776L8.13586 9.67624ZM8.28769 9.626H8.55169V9.126H8.28769V9.626ZM8.55169 9.626C8.6255 9.626 8.68314 9.64998 8.73844 9.70819L9.10094 9.36381C8.95356 9.20868 8.76588 9.126 8.55169 9.126V9.626ZM8.74291 9.71278C8.79711 9.76697 8.82169 9.82594 8.82169 9.904H9.32169C9.32169 9.69406 9.24494 9.5077 9.09646 9.35922L8.74291 9.71278ZM8.82169 9.904V14.68H9.32169V9.904H8.82169ZM8.82169 14.68C8.82169 14.7175 8.81164 14.7385 8.79091 14.7592L9.14446 15.1128C9.26241 14.9948 9.32169 14.8452 9.32169 14.68H8.82169ZM8.79091 14.7592C8.77019 14.7799 8.7492 14.79 8.71169 14.79V15.29C8.87685 15.29 9.02652 15.2307 9.14446 15.1128L8.79091 14.7592ZM8.71169 14.79C8.67384 14.79 8.64651 14.7795 8.6178 14.7528L8.27757 15.1192C8.3982 15.2312 8.54686 15.29 8.71169 15.29V14.79ZM8.62446 14.7592C8.60374 14.7385 8.59369 14.7175 8.59369 14.68H8.09369C8.09369 14.8452 8.15297 14.9948 8.27091 15.1128L8.62446 14.7592ZM8.59369 14.68V10.136H8.09369V14.68H8.59369ZM8.11193 10.0422L6.26393 14.6102L6.72744 14.7978L8.57544 10.2298L8.11193 10.0422ZM6.26528 14.607C6.24261 14.6608 6.20633 14.7058 6.14901 14.744L6.42636 15.16C6.56104 15.0702 6.66343 14.9498 6.7261 14.801L6.26528 14.607ZM6.15187 14.7421C6.10322 14.7736 6.04938 14.79 5.98369 14.79V15.29C6.14199 15.29 6.29082 15.2477 6.4235 15.1619L6.15187 14.7421ZM5.98369 14.79C5.91791 14.79 5.85899 14.7735 5.80205 14.7387L5.54132 15.1653C5.67639 15.2479 5.82547 15.29 5.98369 15.29V14.79ZM5.81586 14.7478C5.76302 14.7105 5.72643 14.6648 5.7021 14.607L5.24128 14.801C5.30227 14.9459 5.39902 15.0655 5.52752 15.1562L5.81586 14.7478ZM5.70344 14.6102L3.85544 10.0422L3.39193 10.2298L5.23993 14.7978L5.70344 14.6102ZM3.37369 10.136V14.68H3.87369V10.136H3.37369ZM3.37369 14.68C3.37369 14.7114 3.36562 14.7305 3.34157 14.7528L3.6818 15.1192C3.80709 15.0029 3.87369 14.8513 3.87369 14.68H3.37369ZM3.33491 14.7592C3.31419 14.7799 3.2932 14.79 3.25569 14.79V15.29C3.42085 15.29 3.57052 15.2307 3.68846 15.1128L3.33491 14.7592ZM11.2863 14.936L11.463 14.7592L11.2863 14.936ZM11.2863 9.488L11.4631 9.6649L11.4694 9.65811L11.2863 9.488ZM11.7983 9.488L11.6151 9.65811L11.6214 9.6649L11.6281 9.6712L11.7983 9.488ZM11.9102 12.288H11.6602V12.8991L12.0886 12.4632L11.9102 12.288ZM14.6462 9.504L14.8246 9.67923L14.8296 9.67407L14.8344 9.66863L14.6462 9.504ZM15.1503 9.472L14.9735 9.64878L14.9808 9.65613L14.9888 9.66285L15.1503 9.472ZM15.1663 9.944L15.3426 10.1212L15.343 10.1208L15.1663 9.944ZM13.3183 11.784L13.1419 11.6068L12.9836 11.7644L13.1224 11.9394L13.3183 11.784ZM15.4382 14.456L15.6348 14.3015L15.6341 14.3006L15.4382 14.456ZM15.5263 14.688H15.2759L15.2766 14.7019L15.5263 14.688ZM15.4303 14.936L15.607 15.1128L15.4303 14.936ZM14.8862 14.896L15.0891 14.7495L15.083 14.7417L14.8862 14.896ZM12.8223 12.264L13.019 12.1097L12.8442 11.8868L12.6447 12.088L12.8223 12.264ZM11.9102 13.184L11.7327 13.008L11.6602 13.0811V13.184H11.9102ZM11.7983 14.936L11.628 14.7527L11.6215 14.7592L11.7983 14.936ZM11.5422 14.79C11.5047 14.79 11.4838 14.7799 11.463 14.7592L11.1095 15.1128C11.2274 15.2307 11.3771 15.29 11.5422 15.29V14.79ZM11.463 14.7592C11.4423 14.7385 11.4323 14.7175 11.4323 14.68H10.9323C10.9323 14.8452 10.9915 14.9948 11.1095 15.1128L11.463 14.7592ZM11.4323 14.68V9.744H10.9323V14.68H11.4323ZM11.4323 9.744C11.4323 9.70649 11.4423 9.6855 11.463 9.66478L11.1095 9.31122C10.9915 9.42916 10.9323 9.57884 10.9323 9.744H11.4323ZM11.4694 9.65811C11.4918 9.63407 11.5109 9.626 11.5422 9.626V9.126C11.371 9.126 11.2194 9.1926 11.1031 9.31789L11.4694 9.65811ZM11.5422 9.626C11.5736 9.626 11.5927 9.63407 11.6151 9.65811L11.9814 9.31789C11.8651 9.1926 11.7135 9.126 11.5422 9.126V9.626ZM11.6281 9.6712C11.6522 9.69353 11.6602 9.71262 11.6602 9.744H12.1602C12.1602 9.57271 12.0937 9.42114 11.9684 9.3048L11.6281 9.6712ZM11.6602 9.744V12.288H12.1602V9.744H11.6602ZM12.0886 12.4632L14.8246 9.67923L14.4679 9.32877L11.7319 12.1128L12.0886 12.4632ZM14.8344 9.66863C14.865 9.63367 14.8887 9.626 14.9183 9.626V9.126C14.7345 9.126 14.5769 9.20366 14.4581 9.33937L14.8344 9.66863ZM14.9183 9.626C14.9427 9.626 14.9564 9.63175 14.9735 9.64878L15.327 9.29522C15.2161 9.18425 15.0751 9.126 14.9183 9.126V9.626ZM14.9888 9.66285C14.9986 9.67118 15.001 9.67613 15.0015 9.67728C15.002 9.67841 15.0042 9.68331 15.0042 9.696H15.5042C15.5042 9.53165 15.4371 9.38723 15.3117 9.28115L14.9888 9.66285ZM15.0042 9.696C15.0042 9.7268 15 9.745 14.9966 9.7544C14.9937 9.76274 14.991 9.76568 14.9895 9.76722L15.343 10.1208C15.4609 10.0029 15.5042 9.84915 15.5042 9.696H15.0042ZM14.9899 9.76684L13.1419 11.6068L13.4946 11.9612L15.3426 10.1212L14.9899 9.76684ZM13.1224 11.9394L15.2424 14.6114L15.6341 14.3006L13.5141 11.6286L13.1224 11.9394ZM15.2417 14.6105C15.2724 14.6496 15.2763 14.674 15.2763 14.688H15.7763C15.7763 14.542 15.7214 14.4117 15.6348 14.3015L15.2417 14.6105ZM15.2766 14.7019C15.2779 14.7253 15.2737 14.739 15.2535 14.7592L15.607 15.1128C15.7255 14.9943 15.7852 14.8427 15.7759 14.6741L15.2766 14.7019ZM15.2535 14.7592C15.2327 14.7799 15.2118 14.79 15.1742 14.79V15.29C15.3394 15.29 15.4891 15.2307 15.607 15.1128L15.2535 14.7592ZM15.1742 14.79C15.1285 14.79 15.1093 14.7778 15.0889 14.7496L14.6836 15.0424C14.8019 15.2062 14.9747 15.29 15.1742 15.29V14.79ZM15.083 14.7417L13.019 12.1097L12.6255 12.4183L14.6895 15.0503L15.083 14.7417ZM12.6447 12.088L11.7327 13.008L12.0878 13.36L12.9998 12.44L12.6447 12.088ZM11.6602 13.184V14.68H12.1602V13.184H11.6602ZM11.6602 14.68C11.6602 14.7114 11.6522 14.7305 11.6281 14.7528L11.9684 15.1192C12.0937 15.0029 12.1602 14.8513 12.1602 14.68H11.6602ZM11.6215 14.7592C11.6007 14.7799 11.5798 14.79 11.5422 14.79V15.29C11.7074 15.29 11.8571 15.2307 11.975 15.1128L11.6215 14.7592ZM18.5176 14.672L18.2863 14.7674L18.2902 14.7758L18.5176 14.672ZM16.5416 9.88L16.3074 9.96783L16.3105 9.9753L16.5416 9.88ZM16.6136 9.48L16.7905 9.65692L16.7973 9.64957L16.6136 9.48ZM17.0776 9.448L16.9193 9.64149L16.9288 9.64923L16.9389 9.65601L17.0776 9.448ZM17.2216 9.624L17.4537 9.53092L17.4514 9.52552L17.2216 9.624ZM19.1016 14.312L18.8696 14.4051L19.1016 14.9837L19.3337 14.4051L19.1016 14.312ZM20.9816 9.624L20.7518 9.52549L20.7496 9.53095L20.9816 9.624ZM21.1176 9.448L21.2647 9.65021L21.2676 9.648L21.1176 9.448ZM21.5896 9.48L21.4058 9.64971L21.4128 9.65678L21.5896 9.48ZM21.6616 9.88L21.8929 9.97535L21.8957 9.96778L21.6616 9.88ZM19.6856 14.672L19.9132 14.7759L19.9167 14.7673L19.6856 14.672ZM19.0136 14.79C18.9544 14.79 18.9114 14.7745 18.8746 14.7472C18.8348 14.7177 18.7888 14.664 18.745 14.5682L18.2902 14.7758C18.3585 14.9254 18.4512 15.0557 18.5767 15.1488C18.7052 15.2441 18.8542 15.29 19.0136 15.29V14.79ZM18.7487 14.5767L16.7727 9.7847L16.3105 9.9753L18.2865 14.7673L18.7487 14.5767ZM16.7757 9.79222C16.7708 9.7791 16.7676 9.76364 16.7676 9.744H16.2676C16.2676 9.82036 16.2805 9.89557 16.3075 9.96778L16.7757 9.79222ZM16.7676 9.744C16.7676 9.68162 16.7839 9.66328 16.7904 9.65678L16.4368 9.30322C16.3154 9.42472 16.2676 9.58238 16.2676 9.744H16.7676ZM16.7973 9.64957C16.8052 9.64108 16.8212 9.626 16.8776 9.626V9.126C16.71 9.126 16.5501 9.18025 16.4299 9.31043L16.7973 9.64957ZM16.8776 9.626C16.8936 9.626 16.9046 9.62943 16.9193 9.64149L17.2359 9.25451C17.1333 9.17057 17.011 9.126 16.8776 9.126V9.626ZM16.9389 9.65601C16.9603 9.67023 16.9778 9.68976 16.9918 9.72248L17.4514 9.52552C17.4014 9.40891 17.323 9.3111 17.2163 9.23999L16.9389 9.65601ZM16.9896 9.71705L18.8696 14.4051L19.3337 14.2189L17.4537 9.53095L16.9896 9.71705ZM19.3337 14.4051L21.2137 9.71705L20.7496 9.53095L18.8696 14.2189L19.3337 14.4051ZM21.2114 9.72248C21.2279 9.68412 21.2466 9.66329 21.2647 9.65018L20.9706 9.24582C20.8713 9.31804 20.7994 9.41455 20.7518 9.52552L21.2114 9.72248ZM21.2676 9.648C21.2916 9.62999 21.309 9.626 21.3256 9.626V9.126C21.1929 9.126 21.0716 9.17001 20.9676 9.248L21.2676 9.648ZM21.3256 9.626C21.382 9.626 21.3981 9.64108 21.4059 9.64957L21.7733 9.31043C21.6532 9.18025 21.4932 9.126 21.3256 9.126V9.626ZM21.4128 9.65678C21.4194 9.66328 21.4356 9.68162 21.4356 9.744H21.9356C21.9356 9.58238 21.8879 9.42472 21.7664 9.30322L21.4128 9.65678ZM21.4356 9.744C21.4356 9.76364 21.4325 9.7791 21.4275 9.79222L21.8957 9.96778C21.9228 9.89557 21.9356 9.82036 21.9356 9.744H21.4356ZM21.4305 9.7847L19.4545 14.5767L19.9167 14.7673L21.8927 9.9753L21.4305 9.7847ZM19.4582 14.5682C19.4145 14.664 19.3685 14.7177 19.3287 14.7472C19.2918 14.7745 19.2489 14.79 19.1896 14.79V15.29C19.3491 15.29 19.4981 15.2441 19.6266 15.1488C19.7521 15.0557 19.8448 14.9254 19.913 14.7758L19.4582 14.5682ZM19.1896 14.79H19.0136V15.29H19.1896V14.79Z" fill="white"/>
<defs>
<linearGradient id="paint0_linear_1165_2424" x1="12" y1="0" x2="12" y2="24" gradientUnits="userSpaceOnUse">
<stop stop-color="#CB74F4"/>
<stop offset="0.942892" stop-color="#A849F3"/>
</linearGradient>
</defs>
</svg>
