<svg width="24" height="24" viewBox="0 0 24 24" fill="none" xmlns="http://www.w3.org/2000/svg">
<rect width="24" height="24" rx="4" fill="url(#paint0_linear_1165_2420)"/>
<path d="M3.5135 15.04C3.41217 15.04 3.32683 15.0053 3.2575 14.936C3.18817 14.8667 3.1535 14.7813 3.1535 14.68V9.904C3.1535 9.76 3.20417 9.63733 3.3055 9.536C3.40683 9.42933 3.5295 9.376 3.6735 9.376H3.9375C4.04417 9.376 4.14017 9.408 4.2255 9.472C4.31617 9.536 4.38283 9.616 4.4255 9.712L6.2415 14.24L8.0575 9.712C8.10017 9.616 8.16417 9.536 8.2495 9.472C8.34017 9.408 8.43883 9.376 8.5455 9.376H8.8095C8.9535 9.376 9.07617 9.42933 9.1775 9.536C9.27883 9.63733 9.3295 9.76 9.3295 9.904V14.68C9.3295 14.7813 9.29483 14.8667 9.2255 14.936C9.15617 15.0053 9.07083 15.04 8.9695 15.04C8.86817 15.04 8.78017 15.0053 8.7055 14.936C8.63617 14.8667 8.6015 14.7813 8.6015 14.68V10.136L6.7535 14.704C6.71083 14.8053 6.6415 14.888 6.5455 14.952C6.45483 15.0107 6.3535 15.04 6.2415 15.04C6.1295 15.04 6.0255 15.0107 5.9295 14.952C5.83883 14.888 5.77217 14.8053 5.7295 14.704L3.8815 10.136V14.68C3.8815 14.7813 3.84417 14.8667 3.7695 14.936C3.70017 15.0053 3.61483 15.04 3.5135 15.04ZM11.8001 15.04C11.6987 15.04 11.6134 15.0053 11.5441 14.936C11.4747 14.8667 11.4401 14.7813 11.4401 14.68V9.784C11.4401 9.68267 11.4747 9.59733 11.5441 9.528C11.6134 9.45333 11.6987 9.416 11.8001 9.416H13.6241C14.1307 9.416 14.5441 9.50133 14.8641 9.672C15.1841 9.84267 15.4134 10.0613 15.5521 10.328C15.6907 10.5947 15.7601 10.8827 15.7601 11.192C15.7601 11.5013 15.6907 11.7893 15.5521 12.056C15.4134 12.3227 15.1841 12.5413 14.8641 12.712C14.5441 12.8827 14.1307 12.968 13.6241 12.968H12.1681V14.68C12.1681 14.7813 12.1307 14.8667 12.0561 14.936C11.9867 15.0053 11.9014 15.04 11.8001 15.04ZM13.5521 12.28C14.0961 12.28 14.4774 12.176 14.6961 11.968C14.9201 11.76 15.0321 11.5013 15.0321 11.192C15.0321 10.8827 14.9201 10.624 14.6961 10.416C14.4774 10.208 14.0961 10.104 13.5521 10.104H12.1681V12.28H13.5521ZM18.9511 15.08C18.3591 15.08 17.8017 14.9733 17.2791 14.76C17.2151 14.7333 17.1644 14.696 17.1271 14.648C17.0897 14.5947 17.0711 14.5307 17.0711 14.456C17.0711 14.3653 17.1004 14.288 17.1591 14.224C17.2231 14.1547 17.3004 14.12 17.3911 14.12C17.4391 14.12 17.4897 14.1307 17.5431 14.152C17.9271 14.3067 18.3511 14.384 18.8151 14.384C19.2311 14.384 19.5804 14.3173 19.8631 14.184C20.1511 14.0453 20.2951 13.816 20.2951 13.496C20.2951 12.824 19.7057 12.488 18.5271 12.488H18.3991C18.3084 12.488 18.2284 12.456 18.1591 12.392C18.0951 12.3227 18.0631 12.2427 18.0631 12.152C18.0631 12.0613 18.0951 11.984 18.1591 11.92C18.2284 11.8507 18.3084 11.816 18.3991 11.816H18.4471C18.9804 11.816 19.3884 11.736 19.6711 11.576C19.9537 11.4107 20.0951 11.168 20.0951 10.848C20.0951 10.592 19.9884 10.3893 19.7751 10.24C19.5617 10.0907 19.2471 10.016 18.8311 10.016C18.3831 10.016 17.9697 10.104 17.5911 10.28C17.5377 10.3013 17.4897 10.312 17.4471 10.312C17.3671 10.312 17.2977 10.2853 17.2391 10.232C17.1804 10.1733 17.1511 10.1013 17.1511 10.016C17.1511 9.89333 17.2044 9.80267 17.3111 9.744C17.8231 9.472 18.3511 9.336 18.8951 9.336C19.5084 9.336 19.9831 9.46133 20.3191 9.712C20.6551 9.96267 20.8231 10.3173 20.8231 10.776C20.8231 11.144 20.7297 11.4347 20.5431 11.648C20.3617 11.856 20.1324 12.0107 19.8551 12.112C20.1591 12.1813 20.4284 12.328 20.6631 12.552C20.9031 12.7707 21.0231 13.0987 21.0231 13.536C21.0231 14.0267 20.8284 14.408 20.4391 14.68C20.0551 14.9467 19.5591 15.08 18.9511 15.08Z" fill="white"/>
<path d="M3.2575 14.936L3.43428 14.7592L3.2575 14.936ZM3.3055 9.536L3.48233 9.71283L3.48675 9.70819L3.3055 9.536ZM4.2255 9.472L4.07544 9.67208L4.08133 9.67624L4.2255 9.472ZM4.4255 9.712L4.65769 9.61888L4.65395 9.61047L4.4255 9.712ZM6.2415 14.24L6.00947 14.3331L6.2415 14.9116L6.47353 14.3331L6.2415 14.24ZM8.0575 9.712L7.82889 9.6104L7.82547 9.61894L8.0575 9.712ZM8.2495 9.472L8.10527 9.26767L8.0995 9.272L8.2495 9.472ZM9.1775 9.536L8.99619 9.70824L9.00072 9.71278L9.1775 9.536ZM9.2255 14.936L9.40228 15.1128H9.40228L9.2255 14.936ZM8.7055 14.936L8.5286 15.1129L8.53539 15.1192L8.7055 14.936ZM8.6015 10.136H8.8515L8.36975 10.0422L8.6015 10.136ZM6.7535 14.704L6.98393 14.801L6.98525 14.7978L6.7535 14.704ZM6.5455 14.952L6.68133 15.1619L6.68418 15.16L6.5455 14.952ZM5.9295 14.952L5.78533 15.1562L5.79208 15.161L5.79914 15.1653L5.9295 14.952ZM5.7295 14.704L5.49772 14.7978L5.49909 14.801L5.7295 14.704ZM3.8815 10.136L4.11325 10.0422L3.6315 10.136H3.8815ZM3.7695 14.936L3.59927 14.7527L3.59272 14.7592L3.7695 14.936ZM3.5135 14.79C3.47599 14.79 3.455 14.7799 3.43428 14.7592L3.08072 15.1128C3.19867 15.2307 3.34834 15.29 3.5135 15.29V14.79ZM3.43428 14.7592C3.41355 14.7385 3.4035 14.7175 3.4035 14.68H2.9035C2.9035 14.8452 2.96278 14.9948 3.08072 15.1128L3.43428 14.7592ZM3.4035 14.68V9.904H2.9035V14.68H3.4035ZM3.4035 9.904C3.4035 9.82594 3.42808 9.76697 3.48228 9.71278L3.12872 9.35922C2.98025 9.50769 2.9035 9.69406 2.9035 9.904H3.4035ZM3.48675 9.70819C3.54204 9.64998 3.59969 9.626 3.6735 9.626V9.126C3.45931 9.126 3.27162 9.20868 3.12425 9.36381L3.48675 9.70819ZM3.6735 9.626H3.9375V9.126H3.6735V9.626ZM3.9375 9.626C3.99007 9.626 4.03344 9.64046 4.0755 9.672L4.3755 9.272C4.24689 9.17554 4.09826 9.126 3.9375 9.126V9.626ZM4.08133 9.67624C4.13732 9.71576 4.17374 9.7611 4.19705 9.81353L4.65395 9.61047C4.59192 9.4709 4.49502 9.35624 4.36967 9.26776L4.08133 9.67624ZM4.19347 9.80506L6.00947 14.3331L6.47353 14.1469L4.65753 9.61894L4.19347 9.80506ZM6.47353 14.3331L8.28953 9.80506L7.82547 9.61894L6.00947 14.1469L6.47353 14.3331ZM8.28595 9.81353C8.31102 9.75713 8.34774 9.71082 8.3995 9.672L8.0995 9.272C7.98059 9.36118 7.88931 9.47487 7.82905 9.61047L8.28595 9.81353ZM8.39367 9.67624C8.44397 9.64073 8.49264 9.626 8.5455 9.626V9.126C8.38503 9.126 8.23636 9.17527 8.10533 9.26776L8.39367 9.67624ZM8.5455 9.626H8.8095V9.126H8.5455V9.626ZM8.8095 9.626C8.88331 9.626 8.94096 9.64998 8.99625 9.70819L9.35875 9.36381C9.21138 9.20868 9.02369 9.126 8.8095 9.126V9.626ZM9.00072 9.71278C9.05492 9.76697 9.0795 9.82594 9.0795 9.904H9.5795C9.5795 9.69406 9.50275 9.5077 9.35428 9.35922L9.00072 9.71278ZM9.0795 9.904V14.68H9.5795V9.904H9.0795ZM9.0795 14.68C9.0795 14.7175 9.06945 14.7385 9.04872 14.7592L9.40228 15.1128C9.52022 14.9948 9.5795 14.8452 9.5795 14.68H9.0795ZM9.04872 14.7592C9.028 14.7799 9.00701 14.79 8.9695 14.79V15.29C9.13466 15.29 9.28433 15.2307 9.40228 15.1128L9.04872 14.7592ZM8.9695 14.79C8.93166 14.79 8.90432 14.7795 8.87561 14.7528L8.53539 15.1192C8.65601 15.2312 8.80468 15.29 8.9695 15.29V14.79ZM8.88228 14.7592C8.86155 14.7385 8.8515 14.7175 8.8515 14.68H8.3515C8.3515 14.8452 8.41078 14.9948 8.52872 15.1128L8.88228 14.7592ZM8.8515 14.68V10.136H8.3515V14.68H8.8515ZM8.36975 10.0422L6.52175 14.6102L6.98525 14.7978L8.83325 10.2298L8.36975 10.0422ZM6.52309 14.607C6.50042 14.6608 6.46415 14.7058 6.40682 14.744L6.68418 15.16C6.81885 15.0702 6.92125 14.9498 6.98391 14.801L6.52309 14.607ZM6.40969 14.7421C6.36104 14.7736 6.3072 14.79 6.2415 14.79V15.29C6.3998 15.29 6.54863 15.2477 6.68131 15.1619L6.40969 14.7421ZM6.2415 14.79C6.17572 14.79 6.1168 14.7735 6.05986 14.7387L5.79914 15.1653C5.9342 15.2479 6.08328 15.29 6.2415 15.29V14.79ZM6.07367 14.7478C6.02084 14.7105 5.98425 14.6648 5.95991 14.607L5.49909 14.801C5.56009 14.9459 5.65683 15.0655 5.78533 15.1562L6.07367 14.7478ZM5.96125 14.6102L4.11325 10.0422L3.64975 10.2298L5.49775 14.7978L5.96125 14.6102ZM3.6315 10.136V14.68H4.1315V10.136H3.6315ZM3.6315 14.68C3.6315 14.7114 3.62343 14.7305 3.59939 14.7528L3.93961 15.1192C4.0649 15.0029 4.1315 14.8513 4.1315 14.68H3.6315ZM3.59272 14.7592C3.572 14.7799 3.55101 14.79 3.5135 14.79V15.29C3.67866 15.29 3.82833 15.2307 3.94628 15.1128L3.59272 14.7592ZM11.5441 14.936L11.7208 14.7592L11.5441 14.936ZM11.5441 9.528L11.721 9.7049L11.7273 9.69811L11.5441 9.528ZM14.8641 9.672L14.9817 9.45141L14.8641 9.672ZM15.5521 10.328L15.3303 10.4433V10.4433L15.5521 10.328ZM15.5521 12.056L15.3303 11.9407V11.9407L15.5521 12.056ZM14.8641 12.712L14.9817 12.9326L14.8641 12.712ZM12.1681 12.968V12.718H11.9181V12.968H12.1681ZM12.0561 14.936L11.8858 14.7527L11.8793 14.7592L12.0561 14.936ZM14.6961 11.968L14.5259 11.7848L14.5238 11.7869L14.6961 11.968ZM14.6961 10.416L14.5237 10.5972L14.5259 10.5992L14.6961 10.416ZM12.1681 10.104V9.854H11.9181V10.104H12.1681ZM12.1681 12.28H11.9181V12.53H12.1681V12.28ZM11.8001 14.79C11.7626 14.79 11.7416 14.7799 11.7208 14.7592L11.3673 15.1128C11.4852 15.2307 11.6349 15.29 11.8001 15.29V14.79ZM11.7208 14.7592C11.7001 14.7385 11.6901 14.7175 11.6901 14.68H11.1901C11.1901 14.8452 11.2493 14.9948 11.3673 15.1128L11.7208 14.7592ZM11.6901 14.68V9.784H11.1901V14.68H11.6901ZM11.6901 9.784C11.6901 9.74649 11.7001 9.7255 11.7208 9.70478L11.3673 9.35122C11.2493 9.46917 11.1901 9.61884 11.1901 9.784H11.6901ZM11.7273 9.69811C11.7496 9.67407 11.7687 9.666 11.8001 9.666V9.166C11.6288 9.166 11.4772 9.2326 11.3609 9.35789L11.7273 9.69811ZM11.8001 9.666H13.6241V9.166H11.8001V9.666ZM13.6241 9.666C14.1051 9.666 14.4741 9.74737 14.7464 9.89259L14.9817 9.45141C14.614 9.2553 14.1564 9.166 13.6241 9.166V9.666ZM14.7464 9.89259C15.0312 10.0445 15.2193 10.23 15.3303 10.4433L15.7739 10.2127C15.6075 9.89263 15.3369 9.64085 14.9817 9.45141L14.7464 9.89259ZM15.3303 10.4433C15.4498 10.6733 15.5101 10.9216 15.5101 11.192H16.0101C16.0101 10.8437 15.9316 10.516 15.7739 10.2127L15.3303 10.4433ZM15.5101 11.192C15.5101 11.4624 15.4498 11.7107 15.3303 11.9407L15.7739 12.1713C15.9316 11.868 16.0101 11.5403 16.0101 11.192H15.5101ZM15.3303 11.9407C15.2193 12.154 15.0312 12.3395 14.7464 12.4914L14.9817 12.9326C15.3369 12.7432 15.6075 12.4914 15.7739 12.1713L15.3303 11.9407ZM14.7464 12.4914C14.4741 12.6366 14.1051 12.718 13.6241 12.718V13.218C14.1564 13.218 14.614 13.1287 14.9817 12.9326L14.7464 12.4914ZM13.6241 12.718H12.1681V13.218H13.6241V12.718ZM11.9181 12.968V14.68H12.4181V12.968H11.9181ZM11.9181 14.68C11.9181 14.7114 11.91 14.7305 11.886 14.7528L12.2262 15.1192C12.3515 15.0029 12.4181 14.8513 12.4181 14.68H11.9181ZM11.8793 14.7592C11.8586 14.7799 11.8376 14.79 11.8001 14.79V15.29C11.9652 15.29 12.1149 15.2307 12.2328 15.1128L11.8793 14.7592ZM13.5521 12.53C14.1136 12.53 14.5779 12.4255 14.8684 12.1491L14.5238 11.7869C14.3769 11.9265 14.0786 12.03 13.5521 12.03V12.53ZM14.8662 12.1512C15.1418 11.8953 15.2821 11.5699 15.2821 11.192H14.7821C14.7821 11.4328 14.6983 11.6247 14.5259 11.7848L14.8662 12.1512ZM15.2821 11.192C15.2821 10.8141 15.1418 10.4887 14.8662 10.2328L14.5259 10.5992C14.6983 10.7593 14.7821 10.9512 14.7821 11.192H15.2821ZM14.8684 10.2349C14.5779 9.95854 14.1136 9.854 13.5521 9.854V10.354C14.0786 10.354 14.3769 10.4575 14.5238 10.5971L14.8684 10.2349ZM13.5521 9.854H12.1681V10.354H13.5521V9.854ZM11.9181 10.104V12.28H12.4181V10.104H11.9181ZM12.1681 12.53H13.5521V12.03H12.1681V12.53ZM17.2791 14.76L17.1829 14.9908L17.1846 14.9915L17.2791 14.76ZM17.1271 14.648L16.922 14.7915L16.9297 14.8015L17.1271 14.648ZM17.1591 14.224L16.9754 14.0544L16.9748 14.0551L17.1591 14.224ZM17.5431 14.152L17.6365 13.9201L17.6359 13.9199L17.5431 14.152ZM19.8631 14.184L19.9697 14.4101L19.9715 14.4093L19.8631 14.184ZM18.1591 12.392L17.9754 12.5616L17.9821 12.5689L17.9895 12.5757L18.1591 12.392ZM18.1591 11.92L18.3358 12.0968L18.1591 11.92ZM19.6711 11.576L19.7942 11.7936L19.7973 11.7918L19.6711 11.576ZM17.5911 10.28L17.684 10.5125L17.6964 10.5067L17.5911 10.28ZM17.2391 10.232L17.0621 10.409L17.0709 10.417L17.2391 10.232ZM17.3111 9.744L17.1938 9.5232L17.1906 9.52495L17.3111 9.744ZM20.3191 9.712L20.4686 9.51162L20.3191 9.712ZM20.5431 11.648L20.3549 11.4834L20.3546 11.4837L20.5431 11.648ZM19.8551 12.112L19.7693 11.8772L18.9745 12.1676L19.7995 12.3557L19.8551 12.112ZM20.6631 12.552L20.4904 12.7329L20.4947 12.7368L20.6631 12.552ZM20.4391 14.68L20.5817 14.8853L20.5822 14.8849L20.4391 14.68ZM18.9511 14.83C18.3899 14.83 17.8648 14.729 17.3735 14.5285L17.1846 14.9915C17.7387 15.2176 18.3283 15.33 18.9511 15.33V14.83ZM17.3752 14.5292C17.3454 14.5168 17.3317 14.5039 17.3244 14.4945L16.9297 14.8015C16.9971 14.8881 17.0847 14.9499 17.1829 14.9908L17.3752 14.5292ZM17.3319 14.5046C17.3281 14.4993 17.3211 14.4872 17.3211 14.456H16.8211C16.8211 14.5742 16.8513 14.69 16.9223 14.7914L17.3319 14.5046ZM17.3211 14.456C17.3211 14.4248 17.329 14.4086 17.3434 14.3929L16.9748 14.0551C16.8718 14.1674 16.8211 14.3058 16.8211 14.456H17.3211ZM17.3428 14.3936C17.3616 14.3731 17.3733 14.37 17.3911 14.37V13.87C17.2275 13.87 17.0845 13.9362 16.9754 14.0544L17.3428 14.3936ZM17.3911 14.37C17.4017 14.37 17.4207 14.3723 17.4502 14.3841L17.6359 13.9199C17.5587 13.889 17.4765 13.87 17.3911 13.87V14.37ZM17.4497 14.3839C17.8667 14.5519 18.3229 14.634 18.8151 14.634V14.134C18.3792 14.134 17.9874 14.0615 17.6365 13.9201L17.4497 14.3839ZM18.8151 14.634C19.2563 14.634 19.6446 14.5635 19.9697 14.4101L19.7564 13.9579C19.5162 14.0712 19.2058 14.134 18.8151 14.134V14.634ZM19.9715 14.4093C20.1502 14.3232 20.2975 14.2022 20.3988 14.0409C20.5 13.8797 20.5451 13.6944 20.5451 13.496H20.0451C20.0451 13.6176 20.0181 13.707 19.9753 13.7751C19.9326 13.8431 19.8639 13.9061 19.7546 13.9587L19.9715 14.4093ZM20.5451 13.496C20.5451 13.0691 20.3486 12.7348 19.9769 12.5228C19.626 12.3228 19.132 12.238 18.5271 12.238V12.738C19.1008 12.738 19.4908 12.8212 19.7292 12.9572C19.9468 13.0812 20.0451 13.2509 20.0451 13.496H20.5451ZM18.5271 12.238H18.3991V12.738H18.5271V12.238ZM18.3991 12.238C18.374 12.238 18.3539 12.2316 18.3286 12.2083L17.9895 12.5757C18.1029 12.6804 18.2428 12.738 18.3991 12.738V12.238ZM18.3428 12.2224C18.3195 12.1972 18.3131 12.1771 18.3131 12.152H17.8131C17.8131 12.3083 17.8706 12.4481 17.9754 12.5616L18.3428 12.2224ZM18.3131 12.152C18.3131 12.1275 18.3188 12.1138 18.3358 12.0968L17.9823 11.7432C17.8713 11.8542 17.8131 11.9952 17.8131 12.152H18.3131ZM18.3358 12.0968C18.3625 12.0701 18.3804 12.066 18.3991 12.066V11.566C18.2364 11.566 18.0943 11.6312 17.9823 11.7432L18.3358 12.0968ZM18.3991 12.066H18.4471V11.566H18.3991V12.066ZM18.4471 12.066C18.9989 12.066 19.4571 11.9844 19.7942 11.7936L19.5479 11.3584C19.3196 11.4876 18.9619 11.566 18.4471 11.566V12.066ZM19.7973 11.7918C20.1544 11.5829 20.3451 11.2593 20.3451 10.848H19.8451C19.8451 11.0767 19.7531 11.2384 19.5448 11.3602L19.7973 11.7918ZM20.3451 10.848C20.3451 10.5088 20.1972 10.2303 19.9184 10.0352L19.6317 10.4448C19.7796 10.5483 19.8451 10.6752 19.8451 10.848H20.3451ZM19.9184 10.0352C19.6447 9.84361 19.2702 9.766 18.8311 9.766V10.266C19.2239 10.266 19.4787 10.3377 19.6317 10.4448L19.9184 10.0352ZM18.8311 9.766C18.3494 9.766 17.8997 9.86085 17.4857 10.0533L17.6964 10.5067C18.0397 10.3471 18.4168 10.266 18.8311 10.266V9.766ZM17.4982 10.0479C17.4648 10.0612 17.449 10.062 17.4471 10.062V10.562C17.5305 10.562 17.6107 10.5414 17.6839 10.5121L17.4982 10.0479ZM17.4471 10.062C17.4286 10.062 17.4194 10.0581 17.4072 10.047L17.0709 10.417C17.176 10.5126 17.3055 10.562 17.4471 10.562V10.062ZM17.4158 10.0552C17.4055 10.0449 17.4011 10.0371 17.4011 10.016H16.9011C16.9011 10.1655 16.9553 10.3018 17.0623 10.4088L17.4158 10.0552ZM17.4011 10.016C17.4011 9.99175 17.406 9.98369 17.4065 9.98275C17.407 9.98192 17.4113 9.97418 17.4315 9.96305L17.1906 9.52495C17.1041 9.57249 17.0284 9.63941 16.9756 9.72924C16.9228 9.81898 16.9011 9.91758 16.9011 10.016H17.4011ZM17.4284 9.96478C17.9067 9.71067 18.3946 9.586 18.8951 9.586V9.086C18.3075 9.086 17.7394 9.23333 17.1938 9.52322L17.4284 9.96478ZM18.8951 9.586C19.4785 9.586 19.8926 9.70578 20.1696 9.91238L20.4686 9.51162C20.0735 9.21688 19.5383 9.086 18.8951 9.086V9.586ZM20.1696 9.91238C20.4357 10.1109 20.5731 10.3877 20.5731 10.776H21.0731C21.0731 10.247 20.8744 9.81439 20.4686 9.51162L20.1696 9.91238ZM20.5731 10.776C20.5731 11.1019 20.491 11.3278 20.3549 11.4834L20.7312 11.8126C20.9684 11.5415 21.0731 11.1861 21.0731 10.776H20.5731ZM20.3546 11.4837C20.2029 11.6577 20.0098 11.7893 19.7693 11.8772L19.9409 12.3468C20.255 12.2321 20.5205 12.0543 20.7315 11.8123L20.3546 11.4837ZM19.7995 12.3557C20.0577 12.4146 20.287 12.5387 20.4904 12.7328L20.8357 12.3712C20.5698 12.1173 20.2604 11.948 19.9107 11.8683L19.7995 12.3557ZM20.4947 12.7368C20.6664 12.8933 20.7731 13.1435 20.7731 13.536H21.2731C21.2731 13.0538 21.1397 12.6481 20.8314 12.3672L20.4947 12.7368ZM20.7731 13.536C20.7731 13.9482 20.6157 14.2516 20.2959 14.4751L20.5822 14.8849C21.0411 14.5644 21.2731 14.1051 21.2731 13.536H20.7731ZM20.2965 14.4747C19.9653 14.7046 19.5233 14.83 18.9511 14.83V15.33C19.5948 15.33 20.1448 15.1887 20.5817 14.8853L20.2965 14.4747Z" fill="white"/>
<defs>
<linearGradient id="paint0_linear_1165_2420" x1="12" y1="0" x2="12" y2="24" gradientUnits="userSpaceOnUse">
<stop stop-color="#7CA9FF"/>
<stop offset="1" stop-color="#4377DC"/>
</linearGradient>
</defs>
</svg>
