<svg width="24" height="24" viewBox="0 0 24 24" fill="none" xmlns="http://www.w3.org/2000/svg">
<rect width="24" height="24" rx="4" fill="url(#paint0_linear_1165_2222)"/>
<path d="M4.451 15.04C4.34967 15.04 4.26433 15.0053 4.195 14.936C4.12567 14.8667 4.091 14.7813 4.091 14.68V9.784C4.091 9.68267 4.12567 9.59733 4.195 9.528C4.26433 9.45333 4.34967 9.416 4.451 9.416H6.275C6.78167 9.416 7.195 9.50133 7.515 9.672C7.835 9.84267 8.06433 10.0613 8.203 10.328C8.34167 10.5947 8.411 10.8827 8.411 11.192C8.411 11.5013 8.34167 11.7893 8.203 12.056C8.06433 12.3227 7.835 12.5413 7.515 12.712C7.195 12.8827 6.78167 12.968 6.275 12.968H4.819V14.68C4.819 14.7813 4.78167 14.8667 4.707 14.936C4.63767 15.0053 4.55233 15.04 4.451 15.04ZM6.203 12.28C6.747 12.28 7.12833 12.176 7.347 11.968C7.571 11.76 7.683 11.5013 7.683 11.192C7.683 10.8827 7.571 10.624 7.347 10.416C7.12833 10.208 6.747 10.104 6.203 10.104H4.819V12.28H6.203ZM10.386 15C10.2847 15 10.1993 14.9653 10.13 14.896C10.0607 14.8267 10.026 14.7413 10.026 14.64V9.784C10.026 9.68267 10.0607 9.59733 10.13 9.528C10.1993 9.45333 10.2847 9.416 10.386 9.416H11.994C12.602 9.416 13.1167 9.552 13.538 9.824C13.9647 10.0907 14.2847 10.4373 14.498 10.864C14.7113 11.2907 14.818 11.7387 14.818 12.208C14.818 12.6773 14.7113 13.1253 14.498 13.552C14.2847 13.9787 13.9647 14.328 13.538 14.6C13.1167 14.8667 12.602 15 11.994 15H10.386ZM11.906 14.32C12.3433 14.32 12.7273 14.232 13.058 14.056C13.3887 13.8747 13.6447 13.6267 13.826 13.312C14.0073 12.992 14.098 12.624 14.098 12.208C14.098 11.792 14.0073 11.4267 13.826 11.112C13.6447 10.792 13.3887 10.544 13.058 10.368C12.7273 10.1867 12.3433 10.096 11.906 10.096H10.754V14.32H11.906ZM16.9538 15.04C16.8525 15.04 16.7671 15.0053 16.6978 14.936C16.6285 14.8667 16.5938 14.7813 16.5938 14.68V9.784C16.5938 9.68267 16.6285 9.59733 16.6978 9.528C16.7671 9.45333 16.8525 9.416 16.9538 9.416H20.0658C20.1618 9.416 20.2418 9.45067 20.3058 9.52C20.3751 9.584 20.4098 9.664 20.4098 9.76C20.4098 9.856 20.3751 9.936 20.3058 10C20.2418 10.064 20.1618 10.096 20.0658 10.096H17.3218V11.864H19.7858C19.8818 11.864 19.9618 11.8987 20.0258 11.968C20.0951 12.032 20.1298 12.112 20.1298 12.208C20.1298 12.304 20.0951 12.384 20.0258 12.448C19.9618 12.512 19.8818 12.544 19.7858 12.544H17.3218V14.68C17.3218 14.7813 17.2845 14.8667 17.2098 14.936C17.1405 15.0053 17.0551 15.04 16.9538 15.04Z" fill="white"/>
<path d="M4.195 14.936L4.37178 14.7592L4.195 14.936ZM4.195 9.528L4.3719 9.7049L4.3782 9.69811L4.195 9.528ZM7.515 9.672L7.63265 9.45141L7.515 9.672ZM8.203 10.328L7.9812 10.4433V10.4433L8.203 10.328ZM8.203 12.056L7.9812 11.9407V11.9407L8.203 12.056ZM7.515 12.712L7.63265 12.9326L7.515 12.712ZM4.819 12.968V12.718H4.569V12.968H4.819ZM4.707 14.936L4.53677 14.7527L4.53022 14.7592L4.707 14.936ZM7.347 11.968L7.17687 11.7848L7.1747 11.7869L7.347 11.968ZM7.347 10.416L7.17468 10.5972L7.17689 10.5992L7.347 10.416ZM4.819 10.104V9.854H4.569V10.104H4.819ZM4.819 12.28H4.569V12.53H4.819V12.28ZM4.451 14.79C4.41349 14.79 4.3925 14.7799 4.37178 14.7592L4.01822 15.1128C4.13617 15.2307 4.28584 15.29 4.451 15.29V14.79ZM4.37178 14.7592C4.35105 14.7385 4.341 14.7175 4.341 14.68H3.841C3.841 14.8452 3.90028 14.9948 4.01822 15.1128L4.37178 14.7592ZM4.341 14.68V9.784H3.841V14.68H4.341ZM4.341 9.784C4.341 9.74649 4.35105 9.7255 4.37178 9.70478L4.01822 9.35122C3.90028 9.46917 3.841 9.61884 3.841 9.784H4.341ZM4.3782 9.69811C4.40053 9.67407 4.41962 9.666 4.451 9.666V9.166C4.27971 9.166 4.12814 9.2326 4.0118 9.35789L4.3782 9.69811ZM4.451 9.666H6.275V9.166H4.451V9.666ZM6.275 9.666C6.75602 9.666 7.12507 9.74737 7.39735 9.89259L7.63265 9.45141C7.26493 9.2553 6.80731 9.166 6.275 9.166V9.666ZM7.39735 9.89259C7.68216 10.0445 7.87028 10.23 7.9812 10.4433L8.4248 10.2127C8.25839 9.89263 7.98784 9.64085 7.63265 9.45141L7.39735 9.89259ZM7.9812 10.4433C8.10079 10.6733 8.161 10.9216 8.161 11.192H8.661C8.661 10.8437 8.58255 10.516 8.4248 10.2127L7.9812 10.4433ZM8.161 11.192C8.161 11.4624 8.10079 11.7107 7.9812 11.9407L8.4248 12.1713C8.58255 11.868 8.661 11.5403 8.661 11.192H8.161ZM7.9812 11.9407C7.87028 12.154 7.68216 12.3395 7.39735 12.4914L7.63265 12.9326C7.98784 12.7432 8.25839 12.4914 8.4248 12.1713L7.9812 11.9407ZM7.39735 12.4914C7.12507 12.6366 6.75602 12.718 6.275 12.718V13.218C6.80731 13.218 7.26493 13.1287 7.63265 12.9326L7.39735 12.4914ZM6.275 12.718H4.819V13.218H6.275V12.718ZM4.569 12.968V14.68H5.069V12.968H4.569ZM4.569 14.68C4.569 14.7114 4.56093 14.7305 4.53689 14.7528L4.87711 15.1192C5.0024 15.0029 5.069 14.8513 5.069 14.68H4.569ZM4.53022 14.7592C4.5095 14.7799 4.48851 14.79 4.451 14.79V15.29C4.61616 15.29 4.76583 15.2307 4.88378 15.1128L4.53022 14.7592ZM6.203 12.53C6.7645 12.53 7.22881 12.4255 7.5193 12.1491L7.1747 11.7869C7.02786 11.9265 6.7295 12.03 6.203 12.03V12.53ZM7.51711 12.1512C7.79274 11.8953 7.933 11.5699 7.933 11.192H7.433C7.433 11.4328 7.34926 11.6247 7.17689 11.7848L7.51711 12.1512ZM7.933 11.192C7.933 10.8141 7.79274 10.4887 7.51711 10.2328L7.17689 10.5992C7.34926 10.7593 7.433 10.9512 7.433 11.192H7.933ZM7.5193 10.2349C7.22881 9.95854 6.7645 9.854 6.203 9.854V10.354C6.7295 10.354 7.02786 10.4575 7.1747 10.5971L7.5193 10.2349ZM6.203 9.854H4.819V10.354H6.203V9.854ZM4.569 10.104V12.28H5.069V10.104H4.569ZM4.819 12.53H6.203V12.03H4.819V12.53ZM10.13 14.896L10.3068 14.7192H10.3068L10.13 14.896ZM10.13 9.528L10.3069 9.7049L10.3132 9.69811L10.13 9.528ZM13.538 9.824L13.4024 10.0341L13.4055 10.036L13.538 9.824ZM14.498 10.864L14.2744 10.9758V10.9758L14.498 10.864ZM14.498 13.552L14.2744 13.4402L14.498 13.552ZM13.538 14.6L13.6717 14.8112L13.6724 14.8108L13.538 14.6ZM13.058 14.056L13.1755 14.2767L13.1782 14.2752L13.058 14.056ZM13.826 13.312L14.0426 13.4368L14.0435 13.4353L13.826 13.312ZM13.826 11.112L13.6085 11.2353L13.6094 11.2368L13.826 11.112ZM13.058 10.368L12.9378 10.5872L12.9405 10.5887L13.058 10.368ZM10.754 10.096V9.846H10.504V10.096H10.754ZM10.754 14.32H10.504V14.57H10.754V14.32ZM10.386 14.75C10.3485 14.75 10.3275 14.7399 10.3068 14.7192L9.95322 15.0728C10.0712 15.1907 10.2208 15.25 10.386 15.25V14.75ZM10.3068 14.7192C10.2861 14.6985 10.276 14.6775 10.276 14.64H9.776C9.776 14.8052 9.83528 14.9548 9.95322 15.0728L10.3068 14.7192ZM10.276 14.64V9.784H9.776V14.64H10.276ZM10.276 9.784C10.276 9.74649 10.2861 9.7255 10.3068 9.70478L9.95322 9.35122C9.83528 9.46917 9.776 9.61884 9.776 9.784H10.276ZM10.3132 9.69811C10.3355 9.67407 10.3546 9.666 10.386 9.666V9.166C10.2147 9.166 10.0631 9.2326 9.9468 9.35789L10.3132 9.69811ZM10.386 9.666H11.994V9.166H10.386V9.666ZM11.994 9.666C12.5642 9.666 13.0293 9.7932 13.4024 10.034L13.6736 9.61396C13.204 9.3108 12.6398 9.166 11.994 9.166V9.666ZM13.4055 10.036C13.7954 10.2797 14.0828 10.5926 14.2744 10.9758L14.7216 10.7522C14.4866 10.2821 14.1339 9.90165 13.6705 9.612L13.4055 10.036ZM14.2744 10.9758C14.4707 11.3683 14.568 11.7781 14.568 12.208H15.068C15.068 11.6992 14.952 11.213 14.7216 10.7522L14.2744 10.9758ZM14.568 12.208C14.568 12.6379 14.4707 13.0477 14.2744 13.4402L14.7216 13.6638C14.952 13.203 15.068 12.7168 15.068 12.208H14.568ZM14.2744 13.4402C14.0825 13.8239 13.7945 14.14 13.4036 14.3892L13.6724 14.8108C14.1348 14.516 14.4868 14.1334 14.7216 13.6638L14.2744 13.4402ZM13.4043 14.3888C13.0309 14.6251 12.5651 14.75 11.994 14.75V15.25C12.6389 15.25 13.2024 15.1083 13.6717 14.8112L13.4043 14.3888ZM11.994 14.75H10.386V15.25H11.994V14.75ZM11.906 14.57C12.3774 14.57 12.803 14.4749 13.1755 14.2767L12.9405 13.8353C12.6517 13.9891 12.3092 14.07 11.906 14.07V14.57ZM13.1782 14.2752C13.5474 14.0727 13.8375 13.7928 14.0426 13.4368L13.6094 13.1872C13.4518 13.4606 13.2299 13.6766 12.9378 13.8368L13.1782 14.2752ZM14.0435 13.4353C14.2488 13.073 14.348 12.6614 14.348 12.208H13.848C13.848 12.5866 13.7659 12.911 13.6085 13.1887L14.0435 13.4353ZM14.348 12.208C14.348 11.7547 14.2488 11.345 14.0426 10.9872L13.6094 11.2368C13.7658 11.5083 13.848 11.8293 13.848 12.208H14.348ZM14.0435 10.9887C13.8383 10.6266 13.5472 10.3452 13.1755 10.1473L12.9405 10.5887C13.2301 10.7428 13.451 10.9574 13.6085 11.2353L14.0435 10.9887ZM13.1782 10.1488C12.8052 9.94424 12.3786 9.846 11.906 9.846V10.346C12.3081 10.346 12.6495 10.4291 12.9378 10.5872L13.1782 10.1488ZM11.906 9.846H10.754V10.346H11.906V9.846ZM10.504 10.096V14.32H11.004V10.096H10.504ZM10.754 14.57H11.906V14.07H10.754V14.57ZM16.6978 14.936L16.8746 14.7592L16.6978 14.936ZM16.6978 9.528L16.8747 9.7049L16.881 9.69811L16.6978 9.528ZM20.3058 9.52L20.1221 9.68957L20.1289 9.69692L20.1362 9.7037L20.3058 9.52ZM20.3058 10L20.1361 9.81615L20.129 9.82322L20.3058 10ZM17.3218 10.096V9.846H17.0718V10.096H17.3218ZM17.3218 11.864H17.0718V12.114H17.3218V11.864ZM20.0258 11.968L19.8421 12.1376L19.8489 12.1449L19.8562 12.1517L20.0258 11.968ZM20.0258 12.448L19.8561 12.2642L19.849 12.2712L20.0258 12.448ZM17.3218 12.544V12.294H17.0718V12.544H17.3218ZM17.2098 14.936L17.0396 14.7527L17.033 14.7592L17.2098 14.936ZM16.9538 14.79C16.9163 14.79 16.8953 14.7799 16.8746 14.7592L16.521 15.1128C16.639 15.2307 16.7887 15.29 16.9538 15.29V14.79ZM16.8746 14.7592C16.8539 14.7385 16.8438 14.7175 16.8438 14.68H16.3438C16.3438 14.8452 16.4031 14.9948 16.521 15.1128L16.8746 14.7592ZM16.8438 14.68V9.784H16.3438V14.68H16.8438ZM16.8438 9.784C16.8438 9.74649 16.8539 9.7255 16.8746 9.70478L16.521 9.35122C16.4031 9.46917 16.3438 9.61884 16.3438 9.784H16.8438ZM16.881 9.69811C16.9033 9.67407 16.9224 9.666 16.9538 9.666V9.166C16.7825 9.166 16.631 9.2326 16.5146 9.35789L16.881 9.69811ZM16.9538 9.666H20.0658V9.166H16.9538V9.666ZM20.0658 9.666C20.0934 9.666 20.1064 9.67251 20.1221 9.68957L20.4895 9.35043C20.3773 9.22882 20.2302 9.166 20.0658 9.166V9.666ZM20.1362 9.7037C20.1533 9.71944 20.1598 9.73239 20.1598 9.76H20.6598C20.6598 9.59561 20.597 9.44855 20.4754 9.3363L20.1362 9.7037ZM20.1598 9.76C20.1598 9.78761 20.1533 9.80056 20.1362 9.8163L20.4754 10.1837C20.597 10.0714 20.6598 9.92439 20.6598 9.76H20.1598ZM20.129 9.82322C20.115 9.83727 20.1 9.846 20.0658 9.846V10.346C20.2237 10.346 20.3686 10.2907 20.4826 10.1768L20.129 9.82322ZM20.0658 9.846H17.3218V10.346H20.0658V9.846ZM17.0718 10.096V11.864H17.5718V10.096H17.0718ZM17.3218 12.114H19.7858V11.614H17.3218V12.114ZM19.7858 12.114C19.8134 12.114 19.8264 12.1205 19.8421 12.1376L20.2095 11.7984C20.0973 11.6768 19.9502 11.614 19.7858 11.614V12.114ZM19.8562 12.1517C19.8733 12.1674 19.8798 12.1804 19.8798 12.208H20.3798C20.3798 12.0436 20.317 11.8966 20.1954 11.7843L19.8562 12.1517ZM19.8798 12.208C19.8798 12.2356 19.8733 12.2486 19.8562 12.2643L20.1954 12.6317C20.317 12.5194 20.3798 12.3724 20.3798 12.208H19.8798ZM19.849 12.2712C19.835 12.2853 19.82 12.294 19.7858 12.294V12.794C19.9437 12.794 20.0886 12.7387 20.2026 12.6248L19.849 12.2712ZM19.7858 12.294H17.3218V12.794H19.7858V12.294ZM17.0718 12.544V14.68H17.5718V12.544H17.0718ZM17.0718 14.68C17.0718 14.7114 17.0637 14.7305 17.0397 14.7528L17.3799 15.1192C17.5052 15.0029 17.5718 14.8513 17.5718 14.68H17.0718ZM17.033 14.7592C17.0123 14.7799 16.9913 14.79 16.9538 14.79V15.29C17.119 15.29 17.2686 15.2307 17.3866 15.1128L17.033 14.7592Z" fill="white"/>
<defs>
<linearGradient id="paint0_linear_1165_2222" x1="12" y1="0" x2="12" y2="24" gradientUnits="userSpaceOnUse">
<stop stop-color="#FF7981"/>
<stop offset="1" stop-color="#E85567"/>
</linearGradient>
</defs>
</svg>
