<svg width="24" height="24" viewBox="0 0 24 24" fill="none" xmlns="http://www.w3.org/2000/svg">
<rect width="24" height="24" rx="4" fill="url(#paint0_linear_1165_2230)"/>
<path d="M5.2635 15.04C5.16217 15.04 5.07683 15.0053 5.0075 14.936C4.93817 14.8667 4.9035 14.7813 4.9035 14.68V9.784C4.9035 9.68267 4.93817 9.59733 5.0075 9.528C5.07683 9.45333 5.16217 9.416 5.2635 9.416H7.0875C7.59417 9.416 8.0075 9.50133 8.3275 9.672C8.6475 9.84267 8.87683 10.0613 9.0155 10.328C9.15417 10.5947 9.2235 10.8827 9.2235 11.192C9.2235 11.5013 9.15417 11.7893 9.0155 12.056C8.87683 12.3227 8.6475 12.5413 8.3275 12.712C8.0075 12.8827 7.59417 12.968 7.0875 12.968H5.6315V14.68C5.6315 14.7813 5.59417 14.8667 5.5195 14.936C5.45017 15.0053 5.36483 15.04 5.2635 15.04ZM7.0155 12.28C7.5595 12.28 7.94083 12.176 8.1595 11.968C8.3835 11.76 8.4955 11.5013 8.4955 11.192C8.4955 10.8827 8.3835 10.624 8.1595 10.416C7.94083 10.208 7.5595 10.104 7.0155 10.104H5.6315V12.28H7.0155ZM11.1985 15.04C11.0972 15.04 11.0118 15.0053 10.9425 14.936C10.8732 14.8667 10.8385 14.7813 10.8385 14.68V9.784C10.8385 9.68267 10.8732 9.59733 10.9425 9.528C11.0118 9.45333 11.0972 9.416 11.1985 9.416H13.0225C13.5292 9.416 13.9425 9.50133 14.2625 9.672C14.5825 9.84267 14.8118 10.0613 14.9505 10.328C15.0892 10.5947 15.1585 10.8827 15.1585 11.192C15.1585 11.5013 15.0892 11.7893 14.9505 12.056C14.8118 12.3227 14.5825 12.5413 14.2625 12.712C13.9425 12.8827 13.5292 12.968 13.0225 12.968H11.5665V14.68C11.5665 14.7813 11.5292 14.8667 11.4545 14.936C11.3852 15.0053 11.2998 15.04 11.1985 15.04ZM12.9505 12.28C13.4945 12.28 13.8758 12.176 14.0945 11.968C14.3185 11.76 14.4305 11.5013 14.4305 11.192C14.4305 10.8827 14.3185 10.624 14.0945 10.416C13.8758 10.208 13.4945 10.104 12.9505 10.104H11.5665V12.28H12.9505ZM18.4295 15.04C18.3282 15.04 18.2428 15.0053 18.1735 14.936C18.1042 14.8667 18.0695 14.7813 18.0695 14.68V10.096H16.4375C16.3415 10.096 16.2615 10.064 16.1975 10C16.1335 9.936 16.1015 9.856 16.1015 9.76C16.1015 9.664 16.1335 9.584 16.1975 9.52C16.2615 9.45067 16.3415 9.416 16.4375 9.416H20.4215C20.5175 9.416 20.5975 9.45067 20.6615 9.52C20.7308 9.584 20.7655 9.664 20.7655 9.76C20.7655 9.856 20.7308 9.936 20.6615 10C20.5975 10.064 20.5175 10.096 20.4215 10.096H18.7975V14.68C18.7975 14.7813 18.7602 14.8667 18.6855 14.936C18.6162 15.0053 18.5308 15.04 18.4295 15.04Z" fill="white"/>
<path d="M5.0075 14.936L5.18428 14.7592L5.0075 14.936ZM5.0075 9.528L5.1844 9.7049L5.1907 9.69811L5.0075 9.528ZM8.3275 9.672L8.44515 9.45141L8.3275 9.672ZM9.0155 10.328L8.7937 10.4433V10.4433L9.0155 10.328ZM9.0155 12.056L8.7937 11.9407V11.9407L9.0155 12.056ZM8.3275 12.712L8.44515 12.9326L8.3275 12.712ZM5.6315 12.968V12.718H5.3815V12.968H5.6315ZM5.5195 14.936L5.34927 14.7527L5.34272 14.7592L5.5195 14.936ZM8.1595 11.968L7.98937 11.7848L7.9872 11.7869L8.1595 11.968ZM8.1595 10.416L7.98718 10.5972L7.98939 10.5992L8.1595 10.416ZM5.6315 10.104V9.854H5.3815V10.104H5.6315ZM5.6315 12.28H5.3815V12.53H5.6315V12.28ZM5.2635 14.79C5.22599 14.79 5.205 14.7799 5.18428 14.7592L4.83072 15.1128C4.94867 15.2307 5.09834 15.29 5.2635 15.29V14.79ZM5.18428 14.7592C5.16355 14.7385 5.1535 14.7175 5.1535 14.68H4.6535C4.6535 14.8452 4.71278 14.9948 4.83072 15.1128L5.18428 14.7592ZM5.1535 14.68V9.784H4.6535V14.68H5.1535ZM5.1535 9.784C5.1535 9.74649 5.16355 9.7255 5.18428 9.70478L4.83072 9.35122C4.71278 9.46917 4.6535 9.61884 4.6535 9.784H5.1535ZM5.1907 9.69811C5.21303 9.67407 5.23212 9.666 5.2635 9.666V9.166C5.09221 9.166 4.94064 9.2326 4.8243 9.35789L5.1907 9.69811ZM5.2635 9.666H7.0875V9.166H5.2635V9.666ZM7.0875 9.666C7.56852 9.666 7.93757 9.74737 8.20985 9.89259L8.44515 9.45141C8.07743 9.2553 7.61981 9.166 7.0875 9.166V9.666ZM8.20985 9.89259C8.49466 10.0445 8.68278 10.23 8.7937 10.4433L9.2373 10.2127C9.07089 9.89263 8.80034 9.64085 8.44515 9.45141L8.20985 9.89259ZM8.7937 10.4433C8.91329 10.6733 8.9735 10.9216 8.9735 11.192H9.4735C9.4735 10.8437 9.39505 10.516 9.2373 10.2127L8.7937 10.4433ZM8.9735 11.192C8.9735 11.4624 8.91329 11.7107 8.7937 11.9407L9.2373 12.1713C9.39505 11.868 9.4735 11.5403 9.4735 11.192H8.9735ZM8.7937 11.9407C8.68278 12.154 8.49466 12.3395 8.20985 12.4914L8.44515 12.9326C8.80034 12.7432 9.07089 12.4914 9.2373 12.1713L8.7937 11.9407ZM8.20985 12.4914C7.93757 12.6366 7.56852 12.718 7.0875 12.718V13.218C7.61981 13.218 8.07743 13.1287 8.44515 12.9326L8.20985 12.4914ZM7.0875 12.718H5.6315V13.218H7.0875V12.718ZM5.3815 12.968V14.68H5.8815V12.968H5.3815ZM5.3815 14.68C5.3815 14.7114 5.37343 14.7305 5.34939 14.7528L5.68961 15.1192C5.8149 15.0029 5.8815 14.8513 5.8815 14.68H5.3815ZM5.34272 14.7592C5.322 14.7799 5.30101 14.79 5.2635 14.79V15.29C5.42866 15.29 5.57833 15.2307 5.69628 15.1128L5.34272 14.7592ZM7.0155 12.53C7.577 12.53 8.04131 12.4255 8.3318 12.1491L7.9872 11.7869C7.84036 11.9265 7.542 12.03 7.0155 12.03V12.53ZM8.32961 12.1512C8.60524 11.8953 8.7455 11.5699 8.7455 11.192H8.2455C8.2455 11.4328 8.16176 11.6247 7.98939 11.7848L8.32961 12.1512ZM8.7455 11.192C8.7455 10.8141 8.60524 10.4887 8.32961 10.2328L7.98939 10.5992C8.16176 10.7593 8.2455 10.9512 8.2455 11.192H8.7455ZM8.3318 10.2349C8.04131 9.95854 7.577 9.854 7.0155 9.854V10.354C7.542 10.354 7.84036 10.4575 7.9872 10.5971L8.3318 10.2349ZM7.0155 9.854H5.6315V10.354H7.0155V9.854ZM5.3815 10.104V12.28H5.8815V10.104H5.3815ZM5.6315 12.53H7.0155V12.03H5.6315V12.53ZM10.9425 14.936L11.1193 14.7592H11.1193L10.9425 14.936ZM10.9425 9.528L11.1194 9.7049L11.1257 9.69811L10.9425 9.528ZM14.2625 9.672L14.3801 9.45141L14.2625 9.672ZM14.9505 10.328L14.7287 10.4433V10.4433L14.9505 10.328ZM14.9505 12.056L14.7287 11.9407L14.7287 11.9407L14.9505 12.056ZM14.2625 12.712L14.3801 12.9326L14.2625 12.712ZM11.5665 12.968V12.718H11.3165V12.968H11.5665ZM11.4545 14.936L11.2843 14.7527L11.2777 14.7592L11.4545 14.936ZM14.0945 11.968L13.9244 11.7848L13.9222 11.7869L14.0945 11.968ZM14.0945 10.416L13.9222 10.5972L13.9244 10.5992L14.0945 10.416ZM11.5665 10.104V9.854H11.3165V10.104H11.5665ZM11.5665 12.28H11.3165V12.53H11.5665V12.28ZM11.1985 14.79C11.161 14.79 11.14 14.7799 11.1193 14.7592L10.7657 15.1128C10.8837 15.2307 11.0333 15.29 11.1985 15.29V14.79ZM11.1193 14.7592C11.0986 14.7385 11.0885 14.7175 11.0885 14.68H10.5885C10.5885 14.8452 10.6478 14.9948 10.7657 15.1128L11.1193 14.7592ZM11.0885 14.68V9.784H10.5885V14.68H11.0885ZM11.0885 9.784C11.0885 9.74649 11.0986 9.7255 11.1193 9.70478L10.7657 9.35122C10.6478 9.46917 10.5885 9.61884 10.5885 9.784H11.0885ZM11.1257 9.69811C11.148 9.67407 11.1671 9.666 11.1985 9.666V9.166C11.0272 9.166 10.8756 9.2326 10.7593 9.35789L11.1257 9.69811ZM11.1985 9.666H13.0225V9.166H11.1985V9.666ZM13.0225 9.666C13.5035 9.666 13.8726 9.74737 14.1449 9.89259L14.3801 9.45141C14.0124 9.2553 13.5548 9.166 13.0225 9.166V9.666ZM14.1449 9.89259C14.4297 10.0445 14.6178 10.23 14.7287 10.4433L15.1723 10.2127C15.0059 9.89263 14.7353 9.64085 14.3801 9.45141L14.1449 9.89259ZM14.7287 10.4433C14.8483 10.6733 14.9085 10.9216 14.9085 11.192H15.4085C15.4085 10.8437 15.33 10.516 15.1723 10.2127L14.7287 10.4433ZM14.9085 11.192C14.9085 11.4624 14.8483 11.7107 14.7287 11.9407L15.1723 12.1713C15.33 11.868 15.4085 11.5403 15.4085 11.192H14.9085ZM14.7287 11.9407C14.6178 12.154 14.4297 12.3395 14.1449 12.4914L14.3801 12.9326C14.7353 12.7432 15.0059 12.4914 15.1723 12.1713L14.7287 11.9407ZM14.1449 12.4914C13.8726 12.6366 13.5035 12.718 13.0225 12.718V13.218C13.5548 13.218 14.0124 13.1287 14.3801 12.9326L14.1449 12.4914ZM13.0225 12.718H11.5665V13.218H13.0225V12.718ZM11.3165 12.968V14.68H11.8165V12.968H11.3165ZM11.3165 14.68C11.3165 14.7114 11.3084 14.7305 11.2844 14.7528L11.6246 15.1192C11.7499 15.0029 11.8165 14.8513 11.8165 14.68H11.3165ZM11.2777 14.7592C11.257 14.7799 11.236 14.79 11.1985 14.79V15.29C11.3637 15.29 11.5133 15.2307 11.6313 15.1128L11.2777 14.7592ZM12.9505 12.53C13.512 12.53 13.9763 12.4255 14.2668 12.1491L13.9222 11.7869C13.7754 11.9265 13.477 12.03 12.9505 12.03V12.53ZM14.2646 12.1512C14.5402 11.8953 14.6805 11.5699 14.6805 11.192H14.1805C14.1805 11.4328 14.0968 11.6247 13.9244 11.7848L14.2646 12.1512ZM14.6805 11.192C14.6805 10.8141 14.5402 10.4887 14.2646 10.2328L13.9244 10.5992C14.0968 10.7593 14.1805 10.9512 14.1805 11.192H14.6805ZM14.2668 10.2349C13.9763 9.95854 13.512 9.854 12.9505 9.854V10.354C13.477 10.354 13.7754 10.4575 13.9222 10.5971L14.2668 10.2349ZM12.9505 9.854H11.5665V10.354H12.9505V9.854ZM11.3165 10.104V12.28H11.8165V10.104H11.3165ZM11.5665 12.53H12.9505V12.03H11.5665V12.53ZM18.1735 14.936L17.9967 15.1128L18.1735 14.936ZM18.0695 10.096H18.3195V9.846H18.0695V10.096ZM16.1975 10L16.0207 10.1768L16.0207 10.1768L16.1975 10ZM16.1975 9.52L16.3744 9.69692L16.3812 9.68957L16.1975 9.52ZM20.6615 9.52L20.4778 9.68957L20.4846 9.69692L20.4919 9.7037L20.6615 9.52ZM20.6615 10L20.4918 9.81615L20.4847 9.82322L20.6615 10ZM18.7975 10.096V9.846H18.5475V10.096H18.7975ZM18.6855 14.936L18.5153 14.7527L18.5087 14.7592L18.6855 14.936ZM18.4295 14.79C18.392 14.79 18.371 14.7799 18.3503 14.7592L17.9967 15.1128C18.1147 15.2307 18.2643 15.29 18.4295 15.29V14.79ZM18.3503 14.7592C18.3296 14.7385 18.3195 14.7175 18.3195 14.68H17.8195C17.8195 14.8452 17.8788 14.9948 17.9967 15.1128L18.3503 14.7592ZM18.3195 14.68V10.096H17.8195V14.68H18.3195ZM18.0695 9.846H16.4375V10.346H18.0695V9.846ZM16.4375 9.846C16.4033 9.846 16.3883 9.83727 16.3743 9.82322L16.0207 10.1768C16.1347 10.2907 16.2797 10.346 16.4375 10.346V9.846ZM16.3743 9.82322C16.3602 9.80917 16.3515 9.79416 16.3515 9.76H15.8515C15.8515 9.91784 15.9068 10.0628 16.0207 10.1768L16.3743 9.82322ZM16.3515 9.76C16.3515 9.72584 16.3602 9.71083 16.3743 9.69678L16.0207 9.34322C15.9068 9.45717 15.8515 9.60216 15.8515 9.76H16.3515ZM16.3812 9.68957C16.3969 9.67251 16.4099 9.666 16.4375 9.666V9.166C16.2731 9.166 16.1261 9.22882 16.0138 9.35043L16.3812 9.68957ZM16.4375 9.666H20.4215V9.166H16.4375V9.666ZM20.4215 9.666C20.4491 9.666 20.4621 9.67251 20.4778 9.68957L20.8452 9.35043C20.7329 9.22882 20.5859 9.166 20.4215 9.166V9.666ZM20.4919 9.7037C20.509 9.71944 20.5155 9.73239 20.5155 9.76H21.0155C21.0155 9.59561 20.9527 9.44855 20.8311 9.3363L20.4919 9.7037ZM20.5155 9.76C20.5155 9.78761 20.509 9.80055 20.4919 9.8163L20.8311 10.1837C20.9527 10.0714 21.0155 9.92439 21.0155 9.76H20.5155ZM20.4847 9.82322C20.4707 9.83727 20.4557 9.846 20.4215 9.846V10.346C20.5793 10.346 20.7243 10.2907 20.8383 10.1768L20.4847 9.82322ZM20.4215 9.846H18.7975V10.346H20.4215V9.846ZM18.5475 10.096V14.68H19.0475V10.096H18.5475ZM18.5475 14.68C18.5475 14.7114 18.5394 14.7305 18.5154 14.7528L18.8556 15.1192C18.9809 15.0029 19.0475 14.8513 19.0475 14.68H18.5475ZM18.5087 14.7592C18.488 14.7799 18.467 14.79 18.4295 14.79V15.29C18.5947 15.29 18.7443 15.2307 18.8623 15.1128L18.5087 14.7592Z" fill="white"/>
<defs>
<linearGradient id="paint0_linear_1165_2230" x1="12" y1="0" x2="12" y2="24" gradientUnits="userSpaceOnUse">
<stop stop-color="#FF8777"/>
<stop offset="1" stop-color="#F0695F"/>
</linearGradient>
</defs>
</svg>
