<svg width="24" height="24" viewBox="0 0 24 24" fill="none" xmlns="http://www.w3.org/2000/svg">
<rect width="24" height="24" rx="4" fill="url(#paint0_linear_1165_2224)"/>
<path d="M4.41975 15.04C4.31842 15.04 4.23308 15.0053 4.16375 14.936C4.09442 14.8667 4.05975 14.7813 4.05975 14.68V9.784C4.05975 9.68267 4.09442 9.59733 4.16375 9.528C4.23308 9.45333 4.31842 9.416 4.41975 9.416H6.24375C6.75042 9.416 7.16375 9.50133 7.48375 9.672C7.80375 9.84267 8.03308 10.0613 8.17175 10.328C8.31042 10.5947 8.37975 10.8827 8.37975 11.192C8.37975 11.5013 8.31042 11.7893 8.17175 12.056C8.03308 12.3227 7.80375 12.5413 7.48375 12.712C7.16375 12.8827 6.75042 12.968 6.24375 12.968H4.78775V14.68C4.78775 14.7813 4.75042 14.8667 4.67575 14.936C4.60642 15.0053 4.52108 15.04 4.41975 15.04ZM6.17175 12.28C6.71575 12.28 7.09708 12.176 7.31575 11.968C7.53975 11.76 7.65175 11.5013 7.65175 11.192C7.65175 10.8827 7.53975 10.624 7.31575 10.416C7.09708 10.208 6.71575 10.104 6.17175 10.104H4.78775V12.28H6.17175ZM11.7547 15.08C11.0774 15.08 10.4427 14.952 9.85075 14.696C9.78675 14.6693 9.73342 14.6267 9.69075 14.568C9.64808 14.504 9.62675 14.4373 9.62675 14.368C9.62675 14.2773 9.65608 14.2 9.71475 14.136C9.77875 14.0667 9.85875 14.032 9.95475 14.032C10.0081 14.032 10.0587 14.0427 10.1067 14.064C10.5974 14.2827 11.1227 14.392 11.6827 14.392C12.6161 14.392 13.0827 14.0853 13.0827 13.472C13.0827 13.312 13.0214 13.1787 12.8987 13.072C12.7814 12.9653 12.6347 12.8827 12.4587 12.824C12.2827 12.76 12.0321 12.6853 11.7067 12.6C11.2747 12.488 10.9254 12.3813 10.6587 12.28C10.3921 12.1733 10.1627 12.016 9.97075 11.808C9.77875 11.6 9.68275 11.3227 9.68275 10.976C9.68275 10.672 9.76275 10.3973 9.92275 10.152C10.0827 9.90133 10.3174 9.704 10.6267 9.56C10.9414 9.41067 11.3174 9.336 11.7547 9.336C12.3414 9.336 12.8721 9.424 13.3467 9.6C13.4961 9.65333 13.5707 9.76 13.5707 9.92C13.5707 10.0053 13.5414 10.0827 13.4827 10.152C13.4241 10.2213 13.3467 10.256 13.2507 10.256C13.2187 10.256 13.1761 10.2453 13.1227 10.224C12.7067 10.08 12.2774 10.008 11.8347 10.008C11.4134 10.008 11.0694 10.088 10.8027 10.248C10.5414 10.408 10.4107 10.632 10.4107 10.92C10.4107 11.112 10.4721 11.2693 10.5947 11.392C10.7227 11.5093 10.8801 11.6027 11.0667 11.672C11.2587 11.736 11.5174 11.8053 11.8427 11.88C12.2641 11.9813 12.6027 12.0827 12.8587 12.184C13.1201 12.2853 13.3414 12.4427 13.5227 12.656C13.7094 12.8693 13.8027 13.1573 13.8027 13.52C13.8027 13.8187 13.7174 14.088 13.5467 14.328C13.3761 14.5627 13.1361 14.7467 12.8267 14.88C12.5174 15.0133 12.1601 15.08 11.7547 15.08ZM15.8444 15C15.7431 15 15.6578 14.9653 15.5884 14.896C15.5191 14.8267 15.4844 14.7413 15.4844 14.64V9.784C15.4844 9.68267 15.5191 9.59733 15.5884 9.528C15.6578 9.45333 15.7431 9.416 15.8444 9.416H17.4524C18.0604 9.416 18.5751 9.552 18.9964 9.824C19.4231 10.0907 19.7431 10.4373 19.9564 10.864C20.1698 11.2907 20.2764 11.7387 20.2764 12.208C20.2764 12.6773 20.1698 13.1253 19.9564 13.552C19.7431 13.9787 19.4231 14.328 18.9964 14.6C18.5751 14.8667 18.0604 15 17.4524 15H15.8444ZM17.3644 14.32C17.8018 14.32 18.1858 14.232 18.5164 14.056C18.8471 13.8747 19.1031 13.6267 19.2844 13.312C19.4658 12.992 19.5564 12.624 19.5564 12.208C19.5564 11.792 19.4658 11.4267 19.2844 11.112C19.1031 10.792 18.8471 10.544 18.5164 10.368C18.1858 10.1867 17.8018 10.096 17.3644 10.096H16.2124V14.32H17.3644Z" fill="white"/>
<path d="M4.16375 14.936L4.34053 14.7592L4.16375 14.936ZM4.16375 9.528L4.34065 9.7049L4.34695 9.69811L4.16375 9.528ZM7.48375 9.672L7.6014 9.45141L7.48375 9.672ZM8.17175 10.328L7.94995 10.4433V10.4433L8.17175 10.328ZM8.17175 12.056L7.94995 11.9407V11.9407L8.17175 12.056ZM7.48375 12.712L7.6014 12.9326L7.48375 12.712ZM4.78775 12.968V12.718H4.53775V12.968H4.78775ZM4.67575 14.936L4.50552 14.7527L4.49897 14.7592L4.67575 14.936ZM7.31575 11.968L7.14562 11.7848L7.14345 11.7869L7.31575 11.968ZM7.31575 10.416L7.14343 10.5972L7.14564 10.5992L7.31575 10.416ZM4.78775 10.104V9.854H4.53775V10.104H4.78775ZM4.78775 12.28H4.53775V12.53H4.78775V12.28ZM4.41975 14.79C4.38224 14.79 4.36125 14.7799 4.34053 14.7592L3.98697 15.1128C4.10492 15.2307 4.25459 15.29 4.41975 15.29V14.79ZM4.34053 14.7592C4.3198 14.7385 4.30975 14.7175 4.30975 14.68H3.80975C3.80975 14.8452 3.86903 14.9948 3.98697 15.1128L4.34053 14.7592ZM4.30975 14.68V9.784H3.80975V14.68H4.30975ZM4.30975 9.784C4.30975 9.74649 4.3198 9.7255 4.34053 9.70478L3.98697 9.35122C3.86903 9.46917 3.80975 9.61884 3.80975 9.784H4.30975ZM4.34695 9.69811C4.36928 9.67407 4.38837 9.666 4.41975 9.666V9.166C4.24846 9.166 4.09689 9.2326 3.98055 9.35789L4.34695 9.69811ZM4.41975 9.666H6.24375V9.166H4.41975V9.666ZM6.24375 9.666C6.72477 9.666 7.09382 9.74737 7.3661 9.89259L7.6014 9.45141C7.23368 9.2553 6.77606 9.166 6.24375 9.166V9.666ZM7.3661 9.89259C7.65091 10.0445 7.83903 10.23 7.94995 10.4433L8.39355 10.2127C8.22714 9.89263 7.95659 9.64085 7.6014 9.45141L7.3661 9.89259ZM7.94995 10.4433C8.06954 10.6733 8.12975 10.9216 8.12975 11.192H8.62975C8.62975 10.8437 8.5513 10.516 8.39355 10.2127L7.94995 10.4433ZM8.12975 11.192C8.12975 11.4624 8.06954 11.7107 7.94995 11.9407L8.39355 12.1713C8.5513 11.868 8.62975 11.5403 8.62975 11.192H8.12975ZM7.94995 11.9407C7.83903 12.154 7.65091 12.3395 7.3661 12.4914L7.6014 12.9326C7.95659 12.7432 8.22714 12.4914 8.39355 12.1713L7.94995 11.9407ZM7.3661 12.4914C7.09382 12.6366 6.72477 12.718 6.24375 12.718V13.218C6.77606 13.218 7.23368 13.1287 7.6014 12.9326L7.3661 12.4914ZM6.24375 12.718H4.78775V13.218H6.24375V12.718ZM4.53775 12.968V14.68H5.03775V12.968H4.53775ZM4.53775 14.68C4.53775 14.7114 4.52968 14.7305 4.50564 14.7528L4.84586 15.1192C4.97115 15.0029 5.03775 14.8513 5.03775 14.68H4.53775ZM4.49897 14.7592C4.47825 14.7799 4.45726 14.79 4.41975 14.79V15.29C4.58491 15.29 4.73458 15.2307 4.85253 15.1128L4.49897 14.7592ZM6.17175 12.53C6.73325 12.53 7.19756 12.4255 7.48805 12.1491L7.14345 11.7869C6.99661 11.9265 6.69825 12.03 6.17175 12.03V12.53ZM7.48586 12.1512C7.76149 11.8953 7.90175 11.5699 7.90175 11.192H7.40175C7.40175 11.4328 7.31801 11.6247 7.14564 11.7848L7.48586 12.1512ZM7.90175 11.192C7.90175 10.8141 7.76149 10.4887 7.48586 10.2328L7.14564 10.5992C7.31801 10.7593 7.40175 10.9512 7.40175 11.192H7.90175ZM7.48805 10.2349C7.19756 9.95854 6.73325 9.854 6.17175 9.854V10.354C6.69825 10.354 6.99661 10.4575 7.14345 10.5971L7.48805 10.2349ZM6.17175 9.854H4.78775V10.354H6.17175V9.854ZM4.53775 10.104V12.28H5.03775V10.104H4.53775ZM4.78775 12.53H6.17175V12.03H4.78775V12.53ZM9.85075 14.696L9.94999 14.4665L9.9469 14.4652L9.85075 14.696ZM9.69075 14.568L9.48256 14.7068L9.48857 14.715L9.69075 14.568ZM9.71475 14.136L9.53105 13.9664L9.53046 13.9671L9.71475 14.136ZM10.1067 14.064L10.2085 13.8356L10.2083 13.8355L10.1067 14.064ZM12.8987 13.072L12.7305 13.257L12.7347 13.2607L12.8987 13.072ZM12.4587 12.824L12.3733 13.059L12.3797 13.0612L12.4587 12.824ZM11.7067 12.6L11.7702 12.3582L11.7695 12.358L11.7067 12.6ZM10.6587 12.28L10.5659 12.5122L10.5699 12.5137L10.6587 12.28ZM9.97075 11.808L9.78705 11.9776L9.97075 11.808ZM9.92275 10.152L10.1322 10.2886L10.1335 10.2865L9.92275 10.152ZM10.6267 9.56L10.7323 9.78665L10.7339 9.78586L10.6267 9.56ZM13.3468 9.6L13.2598 9.83442L13.2627 9.83544L13.3468 9.6ZM13.4827 10.152L13.6736 10.3135V10.3135L13.4827 10.152ZM13.1227 10.224L13.2157 9.99162L13.2045 9.98775L13.1227 10.224ZM10.8027 10.248L10.6741 10.0336L10.6722 10.0348L10.8027 10.248ZM10.5947 11.392L10.4178 11.5689L10.4258 11.5763L10.5947 11.392ZM11.0667 11.672L10.9797 11.9065L10.9877 11.9092L11.0667 11.672ZM11.8427 11.88L11.9012 11.6369L11.8987 11.6363L11.8427 11.88ZM12.8587 12.184L12.7667 12.4165L12.7684 12.4171L12.8587 12.184ZM13.5227 12.656L13.3322 12.8179L13.3346 12.8206L13.5227 12.656ZM13.5467 14.328L13.7489 14.4751L13.7505 14.4729L13.5467 14.328ZM12.8267 14.88L12.9257 15.1096L12.8267 14.88ZM11.7547 14.83C11.1098 14.83 10.5091 14.7083 9.94998 14.4665L9.75152 14.9255C10.3764 15.1957 11.045 15.33 11.7547 15.33V14.83ZM9.9469 14.4652C9.92727 14.457 9.90992 14.4443 9.89293 14.421L9.48857 14.715C9.55692 14.809 9.64623 14.8816 9.7546 14.9268L9.9469 14.4652ZM9.89876 14.4293C9.88036 14.4017 9.87675 14.3827 9.87675 14.368H9.37675C9.37675 14.492 9.4158 14.6063 9.48274 14.7067L9.89876 14.4293ZM9.87675 14.368C9.87675 14.3368 9.88465 14.3206 9.89904 14.3049L9.53046 13.9671C9.42751 14.0794 9.37675 14.2178 9.37675 14.368H9.87675ZM9.89845 14.3056C9.91419 14.2885 9.92714 14.282 9.95475 14.282V13.782C9.79036 13.782 9.6433 13.8448 9.53105 13.9664L9.89845 14.3056ZM9.95475 14.282C9.97366 14.282 9.98968 14.2855 10.0052 14.2925L10.2083 13.8355C10.1278 13.7998 10.0425 13.782 9.95475 13.782V14.282ZM10.005 14.2924C10.529 14.5259 11.0892 14.642 11.6827 14.642V14.142C11.1563 14.142 10.6658 14.0394 10.2085 13.8356L10.005 14.2924ZM11.6827 14.642C12.1688 14.642 12.5769 14.5636 12.87 14.3709C13.1815 14.1662 13.3327 13.853 13.3327 13.472H12.8327C12.8327 13.7043 12.7506 13.8511 12.5955 13.9531C12.422 14.0671 12.13 14.142 11.6827 14.142V14.642ZM13.3327 13.472C13.3327 13.2383 13.2391 13.0366 13.0628 12.8833L12.7347 13.2607C12.8038 13.3207 12.8327 13.3857 12.8327 13.472H13.3327ZM13.0669 12.887C12.9198 12.7533 12.7413 12.6546 12.5378 12.5868L12.3797 13.0612C12.5282 13.1107 12.643 13.1774 12.7306 13.257L13.0669 12.887ZM12.5442 12.5891C12.3574 12.5211 12.0981 12.4442 11.7702 12.3582L11.6433 12.8418C11.9661 12.9265 12.2081 12.9989 12.3733 13.0589L12.5442 12.5891ZM11.7695 12.358C11.342 12.2472 11.0023 12.1431 10.7476 12.0463L10.5699 12.5137C10.8485 12.6195 11.2075 12.7288 11.644 12.842L11.7695 12.358ZM10.7516 12.0479C10.519 11.9548 10.3208 11.8187 10.1545 11.6384L9.78705 11.9776C10.0047 12.2133 10.2652 12.3918 10.5659 12.5121L10.7516 12.0479ZM10.1545 11.6384C10.0142 11.4865 9.93275 11.2747 9.93275 10.976H9.43275C9.43275 11.3707 9.54333 11.7135 9.78705 11.9776L10.1545 11.6384ZM9.93275 10.976C9.93275 10.7186 9.99968 10.4917 10.1322 10.2886L9.71335 10.0154C9.52581 10.303 9.43275 10.6254 9.43275 10.976H9.93275ZM10.1335 10.2865C10.2643 10.0816 10.4595 9.9136 10.7323 9.78665L10.5212 9.33335C10.1753 9.4944 9.90122 9.72108 9.71202 10.0175L10.1335 10.2865ZM10.7339 9.78586C11.0077 9.65595 11.3453 9.586 11.7547 9.586V9.086C11.2896 9.086 10.8752 9.16539 10.5196 9.33414L10.7339 9.78586ZM11.7547 9.586C12.3164 9.586 12.817 9.67022 13.2598 9.83441L13.4337 9.36559C12.9271 9.17778 12.3664 9.086 11.7547 9.086V9.586ZM13.2627 9.83544C13.2993 9.84853 13.3083 9.86102 13.3099 9.86337C13.3117 9.86589 13.3207 9.87941 13.3207 9.92H13.8207C13.8207 9.80059 13.7925 9.68078 13.7196 9.57663C13.6465 9.47231 13.5435 9.4048 13.4308 9.36456L13.2627 9.83544ZM13.3207 9.92C13.3207 9.94221 13.315 9.96318 13.2919 9.99051L13.6736 10.3135C13.7678 10.2022 13.8207 10.0685 13.8207 9.92H13.3207ZM13.2919 9.99051C13.285 9.99871 13.2806 10.0009 13.2785 10.0019C13.276 10.003 13.2682 10.006 13.2507 10.006V10.506C13.4155 10.506 13.5644 10.4425 13.6736 10.3135L13.2919 9.99051ZM13.2507 10.006C13.2612 10.006 13.2637 10.0075 13.2554 10.0055C13.2477 10.0036 13.2348 9.99954 13.2156 9.99188L13.0299 10.4561C13.0931 10.4814 13.171 10.506 13.2507 10.506V10.006ZM13.2045 9.98775C12.7621 9.8346 12.3051 9.758 11.8347 9.758V10.258C12.2497 10.258 12.6514 10.3254 13.041 10.4602L13.2045 9.98775ZM11.8347 9.758C11.3836 9.758 10.9911 9.84345 10.6741 10.0336L10.9314 10.4624C11.1477 10.3325 11.4432 10.258 11.8347 10.258V9.758ZM10.6722 10.0348C10.3424 10.2367 10.1607 10.5385 10.1607 10.92H10.6607C10.6607 10.7255 10.7404 10.5793 10.9333 10.4612L10.6722 10.0348ZM10.1607 10.92C10.1607 11.1705 10.2432 11.394 10.418 11.5688L10.7715 11.2152C10.701 11.1447 10.6607 11.0535 10.6607 10.92H10.1607ZM10.4258 11.5763C10.5809 11.7184 10.7672 11.8274 10.9797 11.9064L11.1538 11.4376C10.993 11.3779 10.8646 11.3003 10.7637 11.2077L10.4258 11.5763ZM10.9877 11.9092C11.1906 11.9768 11.458 12.0482 11.7868 12.1237L11.8987 11.6363C11.5768 11.5625 11.3269 11.4952 11.1458 11.4348L10.9877 11.9092ZM11.7843 12.1231C12.1999 12.223 12.526 12.3212 12.7667 12.4165L12.9508 11.9515C12.6795 11.8442 12.3283 11.7396 11.9012 11.6369L11.7843 12.1231ZM12.7684 12.4171C12.991 12.5034 13.1779 12.6363 13.3323 12.8179L13.7132 12.4941C13.5049 12.249 13.2492 12.0673 12.9491 11.9509L12.7684 12.4171ZM13.3346 12.8206C13.4713 12.9768 13.5527 13.2005 13.5527 13.52H14.0527C14.0527 13.1142 13.9476 12.7619 13.7109 12.4914L13.3346 12.8206ZM13.5527 13.52C13.5527 13.7675 13.4831 13.9861 13.343 14.1831L13.7505 14.4729C13.9517 14.1899 14.0527 13.8698 14.0527 13.52H13.5527ZM13.3446 14.181C13.2043 14.3739 13.0027 14.5319 12.7278 14.6504L12.9257 15.1096C13.2695 14.9614 13.5479 14.7515 13.7489 14.475L13.3446 14.181ZM12.7278 14.6504C12.4554 14.7678 12.1328 14.83 11.7547 14.83V15.33C12.1873 15.33 12.5794 15.2588 12.9257 15.1096L12.7278 14.6504ZM15.5884 14.896L15.7652 14.7192L15.5884 14.896ZM15.5884 9.528L15.7653 9.7049L15.7716 9.69811L15.5884 9.528ZM18.9964 9.824L18.8608 10.0341L18.8639 10.036L18.9964 9.824ZM19.9564 10.864L19.7328 10.9758V10.9758L19.9564 10.864ZM19.9564 13.552L19.7328 13.4402L19.9564 13.552ZM18.9964 14.6L19.1301 14.8112L19.1308 14.8108L18.9964 14.6ZM18.5164 14.056L18.6339 14.2767L18.6366 14.2752L18.5164 14.056ZM19.2844 13.312L19.5011 13.4368L19.5019 13.4353L19.2844 13.312ZM19.2844 11.112L19.0669 11.2353L19.0678 11.2368L19.2844 11.112ZM18.5164 10.368L18.3962 10.5872L18.399 10.5887L18.5164 10.368ZM16.2124 10.096V9.846H15.9624V10.096H16.2124ZM16.2124 14.32H15.9624V14.57H16.2124V14.32ZM15.8444 14.75C15.8069 14.75 15.7859 14.7399 15.7652 14.7192L15.4117 15.0728C15.5296 15.1907 15.6793 15.25 15.8444 15.25V14.75ZM15.7652 14.7192C15.7445 14.6985 15.7344 14.6775 15.7344 14.64H15.2344C15.2344 14.8052 15.2937 14.9548 15.4117 15.0728L15.7652 14.7192ZM15.7344 14.64V9.784H15.2344V14.64H15.7344ZM15.7344 9.784C15.7344 9.74649 15.7445 9.7255 15.7652 9.70478L15.4117 9.35122C15.2937 9.46917 15.2344 9.61884 15.2344 9.784H15.7344ZM15.7716 9.69811C15.794 9.67407 15.8131 9.666 15.8444 9.666V9.166C15.6732 9.166 15.5216 9.2326 15.4052 9.35789L15.7716 9.69811ZM15.8444 9.666H17.4524V9.166H15.8444V9.666ZM17.4524 9.666C18.0226 9.666 18.4878 9.7932 18.8608 10.034L19.132 9.61396C18.6624 9.3108 18.0982 9.166 17.4524 9.166V9.666ZM18.8639 10.036C19.2538 10.2797 19.5412 10.5926 19.7328 10.9758L20.18 10.7522C19.945 10.2821 19.5924 9.90165 19.1289 9.612L18.8639 10.036ZM19.7328 10.9758C19.9291 11.3683 20.0264 11.7781 20.0264 12.208H20.5264C20.5264 11.6992 20.4104 11.213 20.18 10.7522L19.7328 10.9758ZM20.0264 12.208C20.0264 12.6379 19.9291 13.0477 19.7328 13.4402L20.18 13.6638C20.4104 13.203 20.5264 12.7168 20.5264 12.208H20.0264ZM19.7328 13.4402C19.541 13.8239 19.253 14.14 18.862 14.3892L19.1308 14.8108C19.5932 14.516 19.9452 14.1334 20.18 13.6638L19.7328 13.4402ZM18.8627 14.3888C18.4894 14.6251 18.0235 14.75 17.4524 14.75V15.25C18.0973 15.25 18.6608 15.1083 19.1301 14.8112L18.8627 14.3888ZM17.4524 14.75H15.8444V15.25H17.4524V14.75ZM17.3644 14.57C17.8359 14.57 18.2614 14.4749 18.6339 14.2767L18.399 13.8353C18.1101 13.9891 17.7677 14.07 17.3644 14.07V14.57ZM18.6366 14.2752C19.0059 14.0727 19.2959 13.7928 19.501 13.4368L19.0678 13.1872C18.9103 13.4606 18.6883 13.6766 18.3962 13.8368L18.6366 14.2752ZM19.5019 13.4353C19.7072 13.073 19.8064 12.6614 19.8064 12.208H19.3064C19.3064 12.5866 19.2243 12.911 19.0669 13.1887L19.5019 13.4353ZM19.8064 12.208C19.8064 11.7547 19.7073 11.345 19.501 10.9872L19.0678 11.2368C19.2243 11.5083 19.3064 11.8293 19.3064 12.208H19.8064ZM19.5019 10.9887C19.2967 10.6266 19.0057 10.3452 18.6339 10.1473L18.399 10.5887C18.6885 10.7428 18.9095 10.9574 19.0669 11.2353L19.5019 10.9887ZM18.6366 10.1488C18.2636 9.94424 17.837 9.846 17.3644 9.846V10.346C17.7665 10.346 18.1079 10.4291 18.3962 10.5872L18.6366 10.1488ZM17.3644 9.846H16.2124V10.346H17.3644V9.846ZM15.9624 10.096V14.32H16.4624V10.096H15.9624ZM16.2124 14.57H17.3644V14.07H16.2124V14.57Z" fill="white"/>
<defs>
<linearGradient id="paint0_linear_1165_2224" x1="12" y1="0" x2="12" y2="24" gradientUnits="userSpaceOnUse">
<stop stop-color="#9391FC"/>
<stop offset="1" stop-color="#5B59EF"/>
</linearGradient>
</defs>
</svg>
