<svg width="24" height="24" viewBox="0 0 24 24" fill="none" xmlns="http://www.w3.org/2000/svg">
<rect width="24" height="24" rx="4" fill="url(#paint0_linear_1165_2221)"/>
<path d="M5.78069 15.08C5.10335 15.08 4.46869 14.952 3.87669 14.696C3.81269 14.6693 3.75935 14.6267 3.71669 14.568C3.67402 14.504 3.65269 14.4373 3.65269 14.368C3.65269 14.2773 3.68202 14.2 3.74069 14.136C3.80469 14.0667 3.88469 14.032 3.98069 14.032C4.03402 14.032 4.08469 14.0427 4.13269 14.064C4.62335 14.2827 5.14869 14.392 5.70869 14.392C6.64202 14.392 7.10869 14.0853 7.10869 13.472C7.10869 13.312 7.04735 13.1787 6.92469 13.072C6.80735 12.9653 6.66069 12.8827 6.48469 12.824C6.30869 12.76 6.05802 12.6853 5.73269 12.6C5.30069 12.488 4.95135 12.3813 4.68469 12.28C4.41802 12.1733 4.18869 12.016 3.99669 11.808C3.80469 11.6 3.70869 11.3227 3.70869 10.976C3.70869 10.672 3.78869 10.3973 3.94869 10.152C4.10869 9.90133 4.34335 9.704 4.65269 9.56C4.96735 9.41067 5.34335 9.336 5.78069 9.336C6.36735 9.336 6.89802 9.424 7.37269 9.6C7.52202 9.65333 7.59669 9.76 7.59669 9.92C7.59669 10.0053 7.56735 10.0827 7.50869 10.152C7.45002 10.2213 7.37269 10.256 7.27669 10.256C7.24469 10.256 7.20202 10.2453 7.14869 10.224C6.73269 10.08 6.30335 10.008 5.86069 10.008C5.43935 10.008 5.09535 10.088 4.82869 10.248C4.56735 10.408 4.43669 10.632 4.43669 10.92C4.43669 11.112 4.49802 11.2693 4.62069 11.392C4.74869 11.5093 4.90602 11.6027 5.09269 11.672C5.28469 11.736 5.54335 11.8053 5.86869 11.88C6.29002 11.9813 6.62869 12.0827 6.88469 12.184C7.14602 12.2853 7.36735 12.4427 7.54869 12.656C7.73535 12.8693 7.82869 13.1573 7.82869 13.52C7.82869 13.8187 7.74335 14.088 7.57269 14.328C7.40202 14.5627 7.16202 14.7467 6.85269 14.88C6.54335 15.0133 6.18602 15.08 5.78069 15.08ZM11.3755 15.04C11.1568 15.04 10.9915 14.9173 10.8795 14.672L8.9035 9.88C8.8875 9.83733 8.8795 9.792 8.8795 9.744C8.8795 9.632 8.9115 9.544 8.9755 9.48C9.0395 9.41067 9.1275 9.376 9.2395 9.376C9.31417 9.376 9.38083 9.4 9.4395 9.448C9.5035 9.49067 9.5515 9.54933 9.5835 9.624L11.4635 14.312L13.3435 9.624C13.3755 9.54933 13.4208 9.49067 13.4795 9.448C13.5435 9.4 13.6128 9.376 13.6875 9.376C13.7995 9.376 13.8875 9.41067 13.9515 9.48C14.0155 9.544 14.0475 9.632 14.0475 9.744C14.0475 9.792 14.0395 9.83733 14.0235 9.88L12.0475 14.672C11.9355 14.9173 11.7702 15.04 11.5515 15.04H11.3755ZM17.9486 15.08C17.3993 15.08 16.9113 14.96 16.4846 14.72C16.058 14.4747 15.7273 14.136 15.4926 13.704C15.258 13.2667 15.1406 12.7707 15.1406 12.216C15.1406 11.6507 15.2633 11.1493 15.5086 10.712C15.754 10.2747 16.0873 9.936 16.5086 9.696C16.9353 9.456 17.4073 9.336 17.9246 9.336C18.3406 9.336 18.7033 9.38667 19.0126 9.488C19.3273 9.58933 19.6286 9.73067 19.9166 9.912C19.9593 9.93333 19.9966 9.97067 20.0286 10.024C20.0606 10.0773 20.0766 10.136 20.0766 10.2C20.0766 10.2907 20.0446 10.368 19.9806 10.432C19.922 10.496 19.842 10.528 19.7406 10.528C19.682 10.528 19.626 10.5147 19.5726 10.488C19.322 10.3387 19.0713 10.2267 18.8206 10.152C18.57 10.0773 18.298 10.04 18.0046 10.04C17.5993 10.04 17.234 10.1253 16.9086 10.296C16.5833 10.4667 16.3273 10.7173 16.1406 11.048C15.9593 11.3733 15.8686 11.7627 15.8686 12.216C15.8686 12.632 15.954 13.0053 16.1246 13.336C16.3006 13.6613 16.5513 13.92 16.8766 14.112C17.2073 14.2987 17.5966 14.392 18.0446 14.392C18.546 14.392 19.0126 14.2747 19.4446 14.04V12.592H18.1246C18.034 12.592 17.9566 12.56 17.8926 12.496C17.8286 12.432 17.7966 12.3547 17.7966 12.264C17.7966 12.1733 17.8286 12.096 17.8926 12.032C17.9566 11.968 18.034 11.936 18.1246 11.936H19.7006C19.8073 11.936 19.898 11.9733 19.9726 12.048C20.0473 12.1227 20.0846 12.2133 20.0846 12.32V14.136C20.0846 14.248 20.0553 14.3493 19.9966 14.44C19.9433 14.5253 19.8713 14.5893 19.7806 14.632C19.1833 14.9307 18.5726 15.08 17.9486 15.08Z" fill="white"/>
<path d="M3.87669 14.696L3.97592 14.4665L3.97284 14.4652L3.87669 14.696ZM3.71669 14.568L3.5085 14.7068L3.5145 14.715L3.71669 14.568ZM3.74069 14.136L3.55699 13.9664L3.5564 13.9671L3.74069 14.136ZM4.13269 14.064L4.23445 13.8356L4.23422 13.8355L4.13269 14.064ZM6.92469 13.072L6.75648 13.257L6.76064 13.2607L6.92469 13.072ZM6.48469 12.824L6.39922 13.059L6.40563 13.0612L6.48469 12.824ZM5.73269 12.6L5.79612 12.3582L5.79543 12.358L5.73269 12.6ZM4.68469 12.28L4.59183 12.5122L4.59588 12.5137L4.68469 12.28ZM3.99669 11.808L3.81299 11.9776L3.99669 11.808ZM3.94869 10.152L4.1581 10.2886L4.15942 10.2865L3.94869 10.152ZM4.65269 9.56L4.7582 9.78665L4.75987 9.78586L4.65269 9.56ZM7.37269 9.6L7.28577 9.83442L7.2886 9.83544L7.37269 9.6ZM7.50869 10.152L7.69953 10.3135L7.69953 10.3135L7.50869 10.152ZM7.14869 10.224L7.24164 9.99162L7.23046 9.98775L7.14869 10.224ZM4.82869 10.248L4.70006 10.0336L4.69815 10.0348L4.82869 10.248ZM4.62069 11.392L4.44374 11.5689L4.45176 11.5763L4.62069 11.392ZM5.09269 11.672L5.00559 11.9065L5.01363 11.9092L5.09269 11.672ZM5.86869 11.88L5.92715 11.6369L5.92461 11.6363L5.86869 11.88ZM6.88469 12.184L6.79267 12.4165L6.79431 12.4171L6.88469 12.184ZM7.54869 12.656L7.35818 12.8179L7.36054 12.8206L7.54869 12.656ZM7.57269 14.328L7.77488 14.4751L7.77643 14.4729L7.57269 14.328ZM6.85269 14.88L6.95164 15.1096L6.85269 14.88ZM5.78069 14.83C5.13574 14.83 4.53503 14.7083 3.97591 14.4665L3.77746 14.9255C4.40235 15.1957 5.07097 15.33 5.78069 15.33V14.83ZM3.97284 14.4652C3.9532 14.457 3.93585 14.4443 3.91887 14.421L3.5145 14.715C3.58285 14.809 3.67217 14.8816 3.78053 14.9268L3.97284 14.4652ZM3.9247 14.4293C3.9063 14.4017 3.90269 14.3827 3.90269 14.368H3.40269C3.40269 14.492 3.44174 14.6063 3.50867 14.7067L3.9247 14.4293ZM3.90269 14.368C3.90269 14.3368 3.91059 14.3206 3.92498 14.3049L3.5564 13.9671C3.45345 14.0794 3.40269 14.2178 3.40269 14.368H3.90269ZM3.92439 14.3056C3.94013 14.2885 3.95308 14.282 3.98069 14.282V13.782C3.81629 13.782 3.66924 13.8448 3.55699 13.9664L3.92439 14.3056ZM3.98069 14.282C3.99959 14.282 4.01562 14.2855 4.03115 14.2925L4.23422 13.8355C4.15376 13.7998 4.06845 13.782 3.98069 13.782V14.282ZM4.03092 14.2924C4.55498 14.5259 5.11515 14.642 5.70869 14.642V14.142C5.18223 14.142 4.69173 14.0394 4.23445 13.8356L4.03092 14.2924ZM5.70869 14.642C6.19479 14.642 6.60281 14.5636 6.89598 14.3709C7.20747 14.1662 7.35869 13.853 7.35869 13.472H6.85869C6.85869 13.7043 6.77657 13.8511 6.62139 13.9531C6.4479 14.0671 6.15592 14.142 5.70869 14.142V14.642ZM7.35869 13.472C7.35869 13.2383 7.265 13.0366 7.08873 12.8833L6.76064 13.2607C6.82971 13.3207 6.85869 13.3857 6.85869 13.472H7.35869ZM7.09286 12.887C6.94577 12.7533 6.7672 12.6546 6.56374 12.5868L6.40563 13.0612C6.55417 13.1107 6.66894 13.1774 6.75652 13.257L7.09286 12.887ZM6.57012 12.5891C6.38336 12.5211 6.12404 12.4442 5.79612 12.3582L5.66926 12.8418C5.992 12.9265 6.23401 12.9989 6.39925 13.0589L6.57012 12.5891ZM5.79543 12.358C5.36794 12.2472 5.02828 12.1431 4.77349 12.0463L4.59588 12.5137C4.87443 12.6195 5.23344 12.7288 5.66995 12.842L5.79543 12.358ZM4.77753 12.0479C4.54491 11.9548 4.34676 11.8187 4.18039 11.6384L3.81299 11.9776C4.03062 12.2133 4.29113 12.3918 4.59184 12.5121L4.77753 12.0479ZM4.18039 11.6384C4.04011 11.4865 3.95869 11.2747 3.95869 10.976H3.45869C3.45869 11.3707 3.56926 11.7135 3.81299 11.9776L4.18039 11.6384ZM3.95869 10.976C3.95869 10.7186 4.02562 10.4917 4.15809 10.2886L3.73928 10.0154C3.55175 10.303 3.45869 10.6254 3.45869 10.976H3.95869ZM4.15942 10.2865C4.29022 10.0816 4.48548 9.9136 4.75819 9.78665L4.54718 9.33335C4.20123 9.4944 3.92716 9.72108 3.73796 10.0175L4.15942 10.2865ZM4.75987 9.78586C5.03361 9.65595 5.37122 9.586 5.78069 9.586V9.086C5.31549 9.086 4.90109 9.16539 4.5455 9.33414L4.75987 9.78586ZM5.78069 9.586C6.34232 9.586 6.84296 9.67022 7.28577 9.83441L7.4596 9.36559C6.95308 9.17778 6.39239 9.086 5.78069 9.086V9.586ZM7.2886 9.83544C7.32527 9.84853 7.33424 9.86102 7.33588 9.86337C7.33765 9.86589 7.34669 9.87941 7.34669 9.92H7.84669C7.84669 9.80059 7.81839 9.68078 7.7455 9.57663C7.67247 9.47231 7.56943 9.4048 7.45677 9.36456L7.2886 9.83544ZM7.34669 9.92C7.34669 9.94221 7.34097 9.96318 7.31784 9.99051L7.69953 10.3135C7.79374 10.2022 7.84669 10.0685 7.84669 9.92H7.34669ZM7.31784 9.99051C7.31091 9.99871 7.30654 10.0009 7.30442 10.0019C7.30193 10.003 7.29412 10.006 7.27669 10.006V10.506C7.44144 10.506 7.59036 10.4425 7.69953 10.3135L7.31784 9.99051ZM7.27669 10.006C7.28713 10.006 7.28965 10.0075 7.28132 10.0055C7.27367 10.0036 7.26069 9.99954 7.24153 9.99188L7.05584 10.4561C7.11901 10.4814 7.19695 10.506 7.27669 10.506V10.006ZM7.23046 9.98775C6.78801 9.8346 6.33103 9.758 5.86069 9.758V10.258C6.27568 10.258 6.67736 10.3254 7.06691 10.4602L7.23046 9.98775ZM5.86069 9.758C5.40955 9.758 5.01702 9.84345 4.70006 10.0336L4.95731 10.4624C5.17369 10.3325 5.46915 10.258 5.86069 10.258V9.758ZM4.69815 10.0348C4.36835 10.2367 4.18669 10.5385 4.18669 10.92H4.68669C4.68669 10.7255 4.76636 10.5793 4.95923 10.4612L4.69815 10.0348ZM4.18669 10.92C4.18669 11.1705 4.26914 11.394 4.44391 11.5688L4.79746 11.2152C4.7269 11.1447 4.68669 11.0535 4.68669 10.92H4.18669ZM4.45176 11.5763C4.60679 11.7184 4.7931 11.8274 5.00564 11.9064L5.17973 11.4376C5.01894 11.3779 4.89058 11.3003 4.78962 11.2077L4.45176 11.5763ZM5.01363 11.9092C5.21651 11.9768 5.48392 12.0482 5.81276 12.1237L5.92461 11.6363C5.60278 11.5625 5.35287 11.4952 5.17174 11.4348L5.01363 11.9092ZM5.81023 12.1231C6.22582 12.223 6.55194 12.3212 6.79268 12.4165L6.9767 11.9515C6.70544 11.8442 6.35422 11.7396 5.92715 11.6369L5.81023 12.1231ZM6.79431 12.4171C7.01692 12.5034 7.20383 12.6363 7.3582 12.8179L7.73917 12.4941C7.53088 12.249 7.27513 12.0673 6.97507 11.9509L6.79431 12.4171ZM7.36054 12.8206C7.49721 12.9768 7.57869 13.2005 7.57869 13.52H8.07869C8.07869 13.1142 7.9735 12.7619 7.73683 12.4914L7.36054 12.8206ZM7.57869 13.52C7.57869 13.7675 7.50907 13.9861 7.36895 14.1831L7.77643 14.4729C7.97764 14.1899 8.07869 13.8698 8.07869 13.52H7.57869ZM7.3705 14.181C7.23021 14.3739 7.02859 14.5319 6.75373 14.6504L6.95164 15.1096C7.29545 14.9614 7.57383 14.7515 7.77487 14.475L7.3705 14.181ZM6.75373 14.6504C6.48132 14.7678 6.15877 14.83 5.78069 14.83V15.33C6.21327 15.33 6.60538 15.2588 6.95164 15.1096L6.75373 14.6504ZM10.8795 14.672L10.6482 14.7674L10.6521 14.7758L10.8795 14.672ZM8.9035 9.88L8.66929 9.96783L8.67238 9.9753L8.9035 9.88ZM8.9755 9.48L9.15242 9.65692L9.1592 9.64957L8.9755 9.48ZM9.4395 9.448L9.28119 9.64149L9.29065 9.64923L9.30083 9.65601L9.4395 9.448ZM9.5835 9.624L9.8156 9.53092L9.81329 9.52552L9.5835 9.624ZM11.4635 14.312L11.2315 14.4051L11.4635 14.9837L11.6955 14.4051L11.4635 14.312ZM13.3435 9.624L13.1136 9.52549L13.1115 9.53095L13.3435 9.624ZM13.4795 9.448L13.6266 9.65021L13.6295 9.648L13.4795 9.448ZM13.9515 9.48L13.7677 9.64971L13.7747 9.65678L13.9515 9.48ZM14.0235 9.88L14.2547 9.97535L14.2576 9.96778L14.0235 9.88ZM12.0475 14.672L12.2751 14.7759L12.2786 14.7673L12.0475 14.672ZM11.3755 14.79C11.3163 14.79 11.2733 14.7745 11.2365 14.7472C11.1966 14.7177 11.1506 14.664 11.1069 14.5682L10.6521 14.7758C10.7204 14.9254 10.813 15.0557 10.9385 15.1488C11.0671 15.2441 11.2161 15.29 11.3755 15.29V14.79ZM11.1106 14.5767L9.13462 9.7847L8.67238 9.9753L10.6484 14.7673L11.1106 14.5767ZM9.13758 9.79222C9.13266 9.7791 9.1295 9.76364 9.1295 9.744H8.6295C8.6295 9.82036 8.64234 9.89557 8.66942 9.96778L9.13758 9.79222ZM9.1295 9.744C9.1295 9.68162 9.14577 9.66328 9.15228 9.65678L8.79872 9.30322C8.67723 9.42472 8.6295 9.58238 8.6295 9.744H9.1295ZM9.1592 9.64957C9.16704 9.64108 9.18308 9.626 9.2395 9.626V9.126C9.07192 9.126 8.91196 9.18025 8.7918 9.31043L9.1592 9.64957ZM9.2395 9.626C9.25551 9.626 9.26645 9.62943 9.28119 9.64149L9.59781 9.25451C9.49522 9.17057 9.37283 9.126 9.2395 9.126V9.626ZM9.30083 9.65601C9.32216 9.67023 9.33969 9.68976 9.35371 9.72248L9.81329 9.52552C9.76331 9.40891 9.68484 9.3111 9.57817 9.23999L9.30083 9.65601ZM9.35146 9.71705L11.2315 14.4051L11.6955 14.2189L9.81554 9.53095L9.35146 9.71705ZM11.6955 14.4051L13.5755 9.71705L13.1115 9.53095L11.2315 14.2189L11.6955 14.4051ZM13.5733 9.72248C13.5897 9.68412 13.6085 9.66329 13.6265 9.65018L13.3325 9.24582C13.2331 9.31804 13.1613 9.41455 13.1137 9.52552L13.5733 9.72248ZM13.6295 9.648C13.6535 9.62999 13.6709 9.626 13.6875 9.626V9.126C13.5548 9.126 13.4335 9.17001 13.3295 9.248L13.6295 9.648ZM13.6875 9.626C13.7439 9.626 13.76 9.64108 13.7678 9.64957L14.1352 9.31043C14.015 9.18025 13.8551 9.126 13.6875 9.126V9.626ZM13.7747 9.65678C13.7812 9.66328 13.7975 9.68162 13.7975 9.744H14.2975C14.2975 9.58238 14.2498 9.42472 14.1283 9.30322L13.7747 9.65678ZM13.7975 9.744C13.7975 9.76364 13.7943 9.7791 13.7894 9.79222L14.2576 9.96778C14.2847 9.89557 14.2975 9.82036 14.2975 9.744H13.7975ZM13.7924 9.7847L11.8164 14.5767L12.2786 14.7673L14.2546 9.9753L13.7924 9.7847ZM11.8201 14.5682C11.7764 14.664 11.7304 14.7177 11.6905 14.7472C11.6537 14.7745 11.6107 14.79 11.5515 14.79V15.29C11.7109 15.29 11.8599 15.2441 11.9885 15.1488C12.114 15.0557 12.2066 14.9254 12.2749 14.7758L11.8201 14.5682ZM11.5515 14.79H11.3755V15.29H11.5515V14.79ZM16.4846 14.72L16.36 14.9367L16.3621 14.9379L16.4846 14.72ZM15.4926 13.704L15.2723 13.8222L15.2729 13.8233L15.4926 13.704ZM15.5086 10.712L15.7267 10.8343H15.7267L15.5086 10.712ZM16.5086 9.696L16.3861 9.4781L16.3849 9.47877L16.5086 9.696ZM19.0126 9.488L18.9348 9.72558L18.936 9.72597L19.0126 9.488ZM19.9166 9.912L19.7834 10.1236L19.7938 10.1301L19.8048 10.1356L19.9166 9.912ZM20.0286 10.024L19.8143 10.1526V10.1526L20.0286 10.024ZM19.9806 10.432L19.8037 10.2551L19.7963 10.2631L19.9806 10.432ZM19.5726 10.488L19.4447 10.7028L19.4526 10.7075L19.4608 10.7116L19.5726 10.488ZM18.8206 10.152L18.892 9.9124L18.8206 10.152ZM16.9086 10.296L17.0248 10.5174L16.9086 10.296ZM16.1406 11.048L15.9229 10.9251L15.9223 10.9263L16.1406 11.048ZM16.1246 13.336L15.9024 13.4507L15.9047 13.455L16.1246 13.336ZM16.8766 14.112L16.7495 14.3273L16.7537 14.3297L16.8766 14.112ZM19.4446 14.04L19.564 14.2597L19.6946 14.1887V14.04H19.4446ZM19.4446 12.592H19.6946V12.342H19.4446V12.592ZM19.9966 14.44L19.7867 14.3042L19.7846 14.3075L19.9966 14.44ZM19.7806 14.632L19.6741 14.4057L19.6688 14.4084L19.7806 14.632ZM17.9486 14.83C17.4369 14.83 16.992 14.7186 16.6072 14.5021L16.3621 14.9379C16.8305 15.2014 17.3617 15.33 17.9486 15.33V14.83ZM16.6092 14.5033C16.2226 14.281 15.9249 13.976 15.7123 13.5847L15.2729 13.8233C15.5297 14.296 15.8933 14.6684 16.36 14.9367L16.6092 14.5033ZM15.7129 13.5858C15.5 13.1889 15.3906 12.7343 15.3906 12.216H14.8906C14.8906 12.807 15.016 13.3444 15.2723 13.8222L15.7129 13.5858ZM15.3906 12.216C15.3906 11.6879 15.5048 11.2297 15.7267 10.8343L15.2906 10.5897C15.0217 11.0689 14.8906 11.6134 14.8906 12.216H15.3906ZM15.7267 10.8343C15.9506 10.4352 16.2519 10.13 16.6324 9.91323L16.3849 9.47877C15.9227 9.74205 15.5574 10.1142 15.2906 10.5897L15.7267 10.8343ZM16.6312 9.91389C17.0183 9.69615 17.4477 9.586 17.9246 9.586V9.086C17.3669 9.086 16.8523 9.21585 16.3861 9.47811L16.6312 9.91389ZM17.9246 9.586C18.3212 9.586 18.6565 9.6344 18.9348 9.72558L19.0905 9.25042C18.7501 9.13894 18.3601 9.086 17.9246 9.086V9.586ZM18.936 9.72597C19.2302 9.82071 19.5126 9.95303 19.7834 10.1236L20.0498 9.70044C19.7447 9.50831 19.4244 9.35796 19.0893 9.25003L18.936 9.72597ZM19.8048 10.1356C19.7938 10.1301 19.7994 10.1279 19.8143 10.1526L20.243 9.89538C20.1938 9.81345 20.1248 9.73656 20.0284 9.68839L19.8048 10.1356ZM19.8143 10.1526C19.8222 10.1659 19.8266 10.1799 19.8266 10.2H20.3266C20.3266 10.0921 20.299 9.98873 20.243 9.89538L19.8143 10.1526ZM19.8266 10.2C19.8266 10.2245 19.8209 10.2382 19.8038 10.2552L20.1574 10.6088C20.2684 10.4978 20.3266 10.3568 20.3266 10.2H19.8266ZM19.7963 10.2631C19.793 10.2667 19.7847 10.278 19.7406 10.278V10.778C19.8992 10.778 20.0509 10.7253 20.1649 10.6009L19.7963 10.2631ZM19.7406 10.278C19.7214 10.278 19.7036 10.274 19.6844 10.2644L19.4608 10.7116C19.5483 10.7553 19.6425 10.778 19.7406 10.778V10.278ZM19.7006 10.2732C19.4342 10.1145 19.1646 9.99361 18.892 9.9124L18.7493 10.3916C18.978 10.4597 19.2098 10.5628 19.4447 10.7028L19.7006 10.2732ZM18.892 9.9124C18.6155 9.83006 18.3192 9.79 18.0046 9.79V10.29C18.2767 10.29 18.5244 10.3246 18.7493 10.3916L18.892 9.9124ZM18.0046 9.79C17.5631 9.79 17.1572 9.88327 16.7925 10.0746L17.0248 10.5174C17.3107 10.3674 17.6355 10.29 18.0046 10.29V9.79ZM16.7925 10.0746C16.423 10.2684 16.1324 10.554 15.9229 10.9251L16.3583 11.1709C16.5222 10.8807 16.7435 10.6649 17.0248 10.5174L16.7925 10.0746ZM15.9223 10.9263C15.7161 11.2961 15.6186 11.7293 15.6186 12.216H16.1186C16.1186 11.7961 16.2025 11.4506 16.359 11.1697L15.9223 10.9263ZM15.6186 12.216C15.6186 12.6671 15.7114 13.0805 15.9025 13.4507L16.3468 13.2213C16.1965 12.9301 16.1186 12.5969 16.1186 12.216H15.6186ZM15.9047 13.455C16.1028 13.8211 16.386 14.1127 16.7496 14.3273L17.0037 13.8967C16.7166 13.7273 16.4984 13.5015 16.3445 13.217L15.9047 13.455ZM16.7537 14.3297C17.1281 14.5411 17.5613 14.642 18.0446 14.642V14.142C17.6319 14.142 17.2865 14.0563 16.9995 13.8943L16.7537 14.3297ZM18.0446 14.642C18.5868 14.642 19.0946 14.5146 19.564 14.2597L19.3253 13.8203C18.9307 14.0347 18.5051 14.142 18.0446 14.142V14.642ZM19.6946 14.04V12.592H19.1946V14.04H19.6946ZM19.4446 12.342H18.1246V12.842H19.4446V12.342ZM18.1246 12.342C18.1001 12.342 18.0864 12.3362 18.0694 12.3192L17.7158 12.6728C17.8268 12.7838 17.9678 12.842 18.1246 12.842V12.342ZM18.0694 12.3192C18.0524 12.3022 18.0466 12.2885 18.0466 12.264H17.5466C17.5466 12.4208 17.6049 12.5618 17.7158 12.6728L18.0694 12.3192ZM18.0466 12.264C18.0466 12.2395 18.0524 12.2258 18.0694 12.2088L17.7158 11.8552C17.6049 11.9662 17.5466 12.1072 17.5466 12.264H18.0466ZM18.0694 12.2088C18.0864 12.1918 18.1001 12.186 18.1246 12.186V11.686C17.9678 11.686 17.8268 11.7442 17.7158 11.8552L18.0694 12.2088ZM18.1246 12.186H19.7006V11.686H18.1246V12.186ZM19.7006 12.186C19.7417 12.186 19.7686 12.1975 19.7958 12.2248L20.1494 11.8712C20.0273 11.7491 19.8728 11.686 19.7006 11.686V12.186ZM19.7958 12.2248C19.8231 12.252 19.8346 12.2789 19.8346 12.32H20.3346C20.3346 12.1478 20.2715 11.9933 20.1494 11.8712L19.7958 12.2248ZM19.8346 12.32V14.136H20.3346V12.32H19.8346ZM19.8346 14.136C19.8346 14.2017 19.8182 14.2555 19.7867 14.3042L20.2065 14.5758C20.2924 14.4431 20.3346 14.2943 20.3346 14.136H19.8346ZM19.7846 14.3075C19.7566 14.3523 19.7212 14.3837 19.6742 14.4058L19.8871 14.8582C20.0214 14.795 20.13 14.6984 20.2086 14.5725L19.7846 14.3075ZM19.6688 14.4084C19.1037 14.691 18.5311 14.83 17.9486 14.83V15.33C18.6141 15.33 19.2629 15.1704 19.8924 14.8556L19.6688 14.4084Z" fill="white"/>
<defs>
<linearGradient id="paint0_linear_1165_2221" x1="12" y1="0" x2="12" y2="24" gradientUnits="userSpaceOnUse">
<stop stop-color="#FF6AC3"/>
<stop offset="1" stop-color="#DD3C9C"/>
</linearGradient>
</defs>
</svg>
