<svg width="24" height="24" viewBox="0 0 24 24" fill="none" xmlns="http://www.w3.org/2000/svg">
<rect width="24" height="24" rx="4" fill="url(#paint0_linear_1165_2416)"/>
<path d="M6.54387 15.04C6.44254 15.04 6.35721 15.0053 6.28787 14.936C6.21854 14.8667 6.18387 14.7813 6.18387 14.68V10.096H4.55187C4.45587 10.096 4.37587 10.064 4.31187 10C4.24787 9.936 4.21587 9.856 4.21587 9.76C4.21587 9.664 4.24787 9.584 4.31187 9.52C4.37587 9.45067 4.45587 9.416 4.55187 9.416H8.53587C8.63187 9.416 8.71187 9.45067 8.77587 9.52C8.84521 9.584 8.87987 9.664 8.87987 9.76C8.87987 9.856 8.84521 9.936 8.77587 10C8.71187 10.064 8.63187 10.096 8.53587 10.096H6.91187V14.68C6.91187 14.7813 6.87454 14.8667 6.79987 14.936C6.73054 15.0053 6.64521 15.04 6.54387 15.04ZM10.5161 15.04C10.4255 15.04 10.3455 15.008 10.2761 14.944C10.2121 14.8747 10.1801 14.7947 10.1801 14.704C10.1801 14.6187 10.2041 14.544 10.2521 14.48L12.1001 12.208L10.2681 9.952C10.2201 9.888 10.1961 9.81333 10.1961 9.728C10.1961 9.62667 10.2281 9.544 10.2921 9.48C10.3615 9.41067 10.4468 9.376 10.5481 9.376C10.6068 9.376 10.6628 9.38933 10.7161 9.416C10.7695 9.44267 10.8121 9.47733 10.8441 9.52L12.5321 11.664L14.2201 9.504C14.2788 9.41867 14.3668 9.376 14.4841 9.376C14.5801 9.376 14.6628 9.41067 14.7321 9.48C14.8015 9.544 14.8361 9.624 14.8361 9.72C14.8361 9.79467 14.8148 9.86133 14.7721 9.92L12.9241 12.2L14.7721 14.472C14.8201 14.5253 14.8441 14.5947 14.8441 14.68C14.8441 14.7813 14.8095 14.8667 14.7401 14.936C14.6761 15.0053 14.5908 15.04 14.4841 15.04C14.3668 15.04 14.2708 14.9893 14.1961 14.888L12.4841 12.736L10.7961 14.896C10.7161 14.992 10.6228 15.04 10.5161 15.04ZM18.4451 15.04C18.3438 15.04 18.2585 15.0053 18.1891 14.936C18.1198 14.8667 18.0851 14.7813 18.0851 14.68V10.096H16.4531C16.3571 10.096 16.2771 10.064 16.2131 10C16.1491 9.936 16.1171 9.856 16.1171 9.76C16.1171 9.664 16.1491 9.584 16.2131 9.52C16.2771 9.45067 16.3571 9.416 16.4531 9.416H20.4371C20.5331 9.416 20.6131 9.45067 20.6771 9.52C20.7465 9.584 20.7811 9.664 20.7811 9.76C20.7811 9.856 20.7465 9.936 20.6771 10C20.6131 10.064 20.5331 10.096 20.4371 10.096H18.8131V14.68C18.8131 14.7813 18.7758 14.8667 18.7011 14.936C18.6318 15.0053 18.5465 15.04 18.4451 15.04Z" fill="white"/>
<path d="M6.28787 14.936L6.1111 15.1128L6.28787 14.936ZM6.18387 10.096H6.43387V9.846H6.18387V10.096ZM4.31187 10L4.1351 10.1768L4.1351 10.1768L4.31187 10ZM4.31187 9.52L4.48879 9.69692L4.49558 9.68957L4.31187 9.52ZM8.77587 9.52L8.59217 9.68957L8.59896 9.69692L8.6063 9.7037L8.77587 9.52ZM8.77587 10L8.60617 9.81615L8.5991 9.82322L8.77587 10ZM6.91187 10.096V9.846H6.66187V10.096H6.91187ZM6.79987 14.936L6.62965 14.7527L6.6231 14.7592L6.79987 14.936ZM6.54387 14.79C6.50637 14.79 6.48538 14.7799 6.46465 14.7592L6.1111 15.1128C6.22904 15.2307 6.37872 15.29 6.54387 15.29V14.79ZM6.46465 14.7592C6.44393 14.7385 6.43387 14.7175 6.43387 14.68H5.93387C5.93387 14.8452 5.99316 14.9948 6.1111 15.1128L6.46465 14.7592ZM6.43387 14.68V10.096H5.93387V14.68H6.43387ZM6.18387 9.846H4.55187V10.346H6.18387V9.846ZM4.55187 9.846C4.51771 9.846 4.5027 9.83727 4.48865 9.82322L4.1351 10.1768C4.24905 10.2907 4.39403 10.346 4.55187 10.346V9.846ZM4.48865 9.82322C4.4746 9.80917 4.46587 9.79416 4.46587 9.76H3.96587C3.96587 9.91784 4.02115 10.0628 4.1351 10.1768L4.48865 9.82322ZM4.46587 9.76C4.46587 9.72584 4.4746 9.71083 4.48865 9.69678L4.1351 9.34322C4.02115 9.45717 3.96587 9.60216 3.96587 9.76H4.46587ZM4.49558 9.68957C4.51132 9.67251 4.52427 9.666 4.55187 9.666V9.166C4.38748 9.166 4.24043 9.22882 4.12817 9.35043L4.49558 9.68957ZM4.55187 9.666H8.53587V9.166H4.55187V9.666ZM8.53587 9.666C8.56348 9.666 8.57643 9.67251 8.59217 9.68957L8.95958 9.35043C8.84732 9.22882 8.70027 9.166 8.53587 9.166V9.666ZM8.6063 9.7037C8.62336 9.71944 8.62987 9.73239 8.62987 9.76H9.12987C9.12987 9.59561 9.06706 9.44855 8.94544 9.3363L8.6063 9.7037ZM8.62987 9.76C8.62987 9.78761 8.62336 9.80055 8.6063 9.8163L8.94544 10.1837C9.06706 10.0714 9.12987 9.92439 9.12987 9.76H8.62987ZM8.5991 9.82322C8.58505 9.83727 8.57003 9.846 8.53587 9.846V10.346C8.69372 10.346 8.8387 10.2907 8.95265 10.1768L8.5991 9.82322ZM8.53587 9.846H6.91187V10.346H8.53587V9.846ZM6.66187 10.096V14.68H7.16187V10.096H6.66187ZM6.66187 14.68C6.66187 14.7114 6.65381 14.7305 6.62976 14.7528L6.96999 15.1192C7.09528 15.0029 7.16187 14.8513 7.16187 14.68H6.66187ZM6.6231 14.7592C6.60237 14.7799 6.58138 14.79 6.54387 14.79V15.29C6.70903 15.29 6.85871 15.2307 6.97665 15.1128L6.6231 14.7592ZM10.2761 14.944L10.0924 15.1136L10.0992 15.1209L10.1066 15.1277L10.2761 14.944ZM10.2521 14.48L10.058 14.3221L10.0521 14.33L10.2521 14.48ZM12.1001 12.208L12.2941 12.3658L12.4223 12.2081L12.2942 12.0504L12.1001 12.208ZM10.2681 9.952L10.068 10.1021L10.0741 10.1096L10.2681 9.952ZM10.2921 9.48L10.1153 9.30322L10.1153 9.30322L10.2921 9.48ZM10.7161 9.416L10.8279 9.19239L10.7161 9.416ZM10.8441 9.52L10.6441 9.67004L10.6477 9.67465L10.8441 9.52ZM12.5321 11.664L12.3357 11.8186L12.5329 12.0691L12.7291 11.8179L12.5321 11.664ZM14.2201 9.504L14.4171 9.65794L14.4218 9.65192L14.4261 9.64563L14.2201 9.504ZM14.7321 9.48L14.5552 9.65692L14.5626 9.6637L14.7321 9.48ZM14.7721 9.92L14.9666 10.0776L14.9743 10.067L14.7721 9.92ZM12.9241 12.2L12.7299 12.0426L12.6021 12.2003L12.7302 12.3578L12.9241 12.2ZM14.7721 14.472L14.5779 14.6299L14.5863 14.6392L14.7721 14.472ZM14.7401 14.936L14.5632 14.7591L14.5564 14.7664L14.7401 14.936ZM14.1961 14.888L14.3975 14.7396L14.3918 14.7324L14.1961 14.888ZM12.4841 12.736L12.6798 12.5804L12.4824 12.3322L12.2871 12.5821L12.4841 12.736ZM10.7961 14.896L10.9883 15.0561L10.9931 15.0499L10.7961 14.896ZM10.5161 14.79C10.4911 14.79 10.4709 14.7836 10.4457 14.7603L10.1066 15.1277C10.22 15.2324 10.3598 15.29 10.5161 15.29V14.79ZM10.4598 14.7744C10.4365 14.7492 10.4301 14.7291 10.4301 14.704H9.93012C9.93012 14.8603 9.98771 15.0001 10.0924 15.1136L10.4598 14.7744ZM10.4301 14.704C10.4301 14.6689 10.4388 14.6478 10.4521 14.63L10.0521 14.33C9.96944 14.4402 9.93012 14.5684 9.93012 14.704H10.4301ZM10.4461 14.6378L12.2941 12.3658L11.9062 12.0502L10.0582 14.3222L10.4461 14.6378ZM12.2942 12.0504L10.4622 9.7944L10.0741 10.1096L11.9061 12.3656L12.2942 12.0504ZM10.4681 9.802C10.4548 9.78425 10.4461 9.76308 10.4461 9.728H9.94612C9.94612 9.86359 9.98544 9.99175 10.0681 10.102L10.4681 9.802ZM10.4461 9.728C10.4461 9.6843 10.4576 9.6681 10.4689 9.65678L10.1153 9.30322C9.99867 9.4199 9.94612 9.56903 9.94612 9.728H10.4461ZM10.4689 9.65678C10.4896 9.63605 10.5106 9.626 10.5481 9.626V9.126C10.383 9.126 10.2333 9.18528 10.1153 9.30322L10.4689 9.65678ZM10.5481 9.626C10.5673 9.626 10.5851 9.63 10.6043 9.63961L10.8279 9.19239C10.7405 9.14866 10.6463 9.126 10.5481 9.126V9.626ZM10.6043 9.63961C10.6271 9.65099 10.638 9.66189 10.6441 9.67L11.0441 9.37C10.9862 9.29278 10.9118 9.23435 10.8279 9.19239L10.6043 9.63961ZM10.6477 9.67465L12.3357 11.8186L12.7286 11.5094L11.0406 9.36535L10.6477 9.67465ZM12.7291 11.8179L14.4171 9.65794L14.0231 9.35006L12.3351 11.5101L12.7291 11.8179ZM14.4261 9.64563C14.4324 9.63649 14.4365 9.63426 14.4392 9.63295C14.4431 9.63107 14.4558 9.626 14.4841 9.626V9.126C14.2972 9.126 14.1262 9.19933 14.0141 9.36237L14.4261 9.64563ZM14.4841 9.626C14.5122 9.626 14.5318 9.6332 14.5553 9.65678L14.9089 9.30322C14.7938 9.18813 14.648 9.126 14.4841 9.126V9.626ZM14.5626 9.6637C14.5796 9.67944 14.5861 9.69239 14.5861 9.72H15.0861C15.0861 9.55561 15.0233 9.40855 14.9017 9.2963L14.5626 9.6637ZM14.5861 9.72C14.5861 9.74349 14.5806 9.75834 14.5699 9.77296L14.9743 10.067C15.049 9.96432 15.0861 9.84584 15.0861 9.72H14.5861ZM14.5779 9.76258L12.7299 12.0426L13.1183 12.3574L14.9663 10.0774L14.5779 9.76258ZM12.7302 12.3578L14.5782 14.6298L14.9661 14.3142L13.1181 12.0422L12.7302 12.3578ZM14.5863 14.6392C14.5874 14.6405 14.5886 14.642 14.5899 14.6458C14.5914 14.6502 14.5941 14.6607 14.5941 14.68H15.0941C15.0941 14.5453 15.0548 14.4124 14.9579 14.3048L14.5863 14.6392ZM14.5941 14.68C14.5941 14.7175 14.5841 14.7385 14.5633 14.7592L14.9169 15.1128C15.0348 14.9948 15.0941 14.8452 15.0941 14.68H14.5941ZM14.5564 14.7664C14.5462 14.7775 14.5311 14.79 14.4841 14.79V15.29C14.6505 15.29 14.8061 15.2331 14.9238 15.1056L14.5564 14.7664ZM14.4841 14.79C14.4527 14.79 14.4289 14.7825 14.3974 14.7397L13.9949 15.0363C14.1126 15.1962 14.2808 15.29 14.4841 15.29V14.79ZM14.3918 14.7324L12.6798 12.5804L12.2885 12.8916L14.0005 15.0436L14.3918 14.7324ZM12.2871 12.5821L10.5991 14.7421L10.9931 15.0499L12.6811 12.8899L12.2871 12.5821ZM10.6041 14.736C10.5625 14.7858 10.5355 14.79 10.5161 14.79V15.29C10.7101 15.29 10.8697 15.1982 10.9882 15.056L10.6041 14.736ZM18.1891 14.936L18.0123 15.1128L18.1891 14.936ZM18.0851 10.096H18.3351V9.846H18.0851V10.096ZM16.2131 10L16.0363 10.1768L16.0363 10.1768L16.2131 10ZM16.2131 9.52L16.39 9.69692L16.3968 9.68957L16.2131 9.52ZM20.6771 9.52L20.4934 9.68957L20.5002 9.69692L20.5076 9.7037L20.6771 9.52ZM20.6771 10L20.5074 9.81615L20.5003 9.82322L20.6771 10ZM18.8131 10.096V9.846H18.5631V10.096H18.8131ZM18.7011 14.936L18.5309 14.7527L18.5243 14.7592L18.7011 14.936ZM18.4451 14.79C18.4076 14.79 18.3866 14.7799 18.3659 14.7592L18.0123 15.1128C18.1303 15.2307 18.28 15.29 18.4451 15.29V14.79ZM18.3659 14.7592C18.3452 14.7385 18.3351 14.7175 18.3351 14.68H17.8351C17.8351 14.8452 17.8944 14.9948 18.0123 15.1128L18.3659 14.7592ZM18.3351 14.68V10.096H17.8351V14.68H18.3351ZM18.0851 9.846H16.4531V10.346H18.0851V9.846ZM16.4531 9.846C16.419 9.846 16.404 9.83727 16.3899 9.82322L16.0363 10.1768C16.1503 10.2907 16.2953 10.346 16.4531 10.346V9.846ZM16.3899 9.82322C16.3758 9.80917 16.3671 9.79416 16.3671 9.76H15.8671C15.8671 9.91784 15.9224 10.0628 16.0363 10.1768L16.3899 9.82322ZM16.3671 9.76C16.3671 9.72584 16.3758 9.71083 16.3899 9.69678L16.0363 9.34322C15.9224 9.45717 15.8671 9.60216 15.8671 9.76H16.3671ZM16.3968 9.68957C16.4126 9.67251 16.4255 9.666 16.4531 9.666V9.166C16.2887 9.166 16.1417 9.22882 16.0294 9.35043L16.3968 9.68957ZM16.4531 9.666H20.4371V9.166H16.4531V9.666ZM20.4371 9.666C20.4647 9.666 20.4777 9.67251 20.4934 9.68957L20.8608 9.35043C20.7486 9.22882 20.6015 9.166 20.4371 9.166V9.666ZM20.5076 9.7037C20.5246 9.71944 20.5311 9.73239 20.5311 9.76H21.0311C21.0311 9.59561 20.9683 9.44855 20.8467 9.3363L20.5076 9.7037ZM20.5311 9.76C20.5311 9.78761 20.5246 9.80055 20.5076 9.8163L20.8467 10.1837C20.9683 10.0714 21.0311 9.92439 21.0311 9.76H20.5311ZM20.5003 9.82322C20.4863 9.83727 20.4713 9.846 20.4371 9.846V10.346C20.595 10.346 20.74 10.2907 20.8539 10.1768L20.5003 9.82322ZM20.4371 9.846H18.8131V10.346H20.4371V9.846ZM18.5631 10.096V14.68H19.0631V10.096H18.5631ZM18.5631 14.68C18.5631 14.7114 18.5551 14.7305 18.531 14.7528L18.8712 15.1192C18.9965 15.0029 19.0631 14.8513 19.0631 14.68H18.5631ZM18.5243 14.7592C18.5036 14.7799 18.4826 14.79 18.4451 14.79V15.29C18.6103 15.29 18.76 15.2307 18.8779 15.1128L18.5243 14.7592Z" fill="white"/>
<defs>
<linearGradient id="paint0_linear_1165_2416" x1="12" y1="0" x2="12" y2="24" gradientUnits="userSpaceOnUse">
<stop stop-color="#B4B7BD"/>
<stop offset="1" stop-color="#8E9095"/>
</linearGradient>
</defs>
</svg>
