<svg width="24" height="24" viewBox="0 0 24 24" fill="none" xmlns="http://www.w3.org/2000/svg">
<rect width="24" height="24" rx="4" fill="url(#paint0_linear_1165_2228)"/>
<path d="M5.17487 15.04C5.08421 15.04 5.00421 15.008 4.93487 14.944C4.87087 14.8747 4.83887 14.7947 4.83887 14.704C4.83887 14.6187 4.86287 14.544 4.91087 14.48L6.75887 12.208L4.92687 9.952C4.87887 9.888 4.85487 9.81333 4.85487 9.728C4.85487 9.62667 4.88687 9.544 4.95087 9.48C5.02021 9.41067 5.10554 9.376 5.20687 9.376C5.26554 9.376 5.32154 9.38933 5.37487 9.416C5.42821 9.44267 5.47087 9.47733 5.50287 9.52L7.19087 11.664L8.87887 9.504C8.93754 9.41867 9.02554 9.376 9.14287 9.376C9.23887 9.376 9.32154 9.41067 9.39087 9.48C9.46021 9.544 9.49487 9.624 9.49487 9.72C9.49487 9.79467 9.47354 9.86133 9.43087 9.92L7.58287 12.2L9.43087 14.472C9.47887 14.5253 9.50287 14.5947 9.50287 14.68C9.50287 14.7813 9.46821 14.8667 9.39887 14.936C9.33487 15.0053 9.24954 15.04 9.14287 15.04C9.02554 15.04 8.92954 14.9893 8.85487 14.888L7.14287 12.736L5.45487 14.896C5.37487 14.992 5.28154 15.04 5.17487 15.04ZM11.6941 15C11.5554 15 11.4354 14.952 11.3341 14.856C11.2381 14.7547 11.1901 14.6347 11.1901 14.496V9.744C11.1901 9.64267 11.2247 9.55733 11.2941 9.488C11.3634 9.41333 11.4487 9.376 11.5501 9.376C11.6514 9.376 11.7367 9.41333 11.8061 9.488C11.8807 9.55733 11.9181 9.64267 11.9181 9.744V14.272H14.5341C14.6354 14.272 14.7207 14.3093 14.7901 14.384C14.8647 14.4533 14.9021 14.5387 14.9021 14.64C14.9021 14.7413 14.8647 14.8267 14.7901 14.896C14.7207 14.9653 14.6354 15 14.5341 15H11.6941ZM18.1194 15.08C17.4421 15.08 16.8074 14.952 16.2154 14.696C16.1514 14.6693 16.0981 14.6267 16.0554 14.568C16.0128 14.504 15.9914 14.4373 15.9914 14.368C15.9914 14.2773 16.0208 14.2 16.0794 14.136C16.1434 14.0667 16.2234 14.032 16.3194 14.032C16.3728 14.032 16.4234 14.0427 16.4714 14.064C16.9621 14.2827 17.4874 14.392 18.0474 14.392C18.9808 14.392 19.4474 14.0853 19.4474 13.472C19.4474 13.312 19.3861 13.1787 19.2634 13.072C19.1461 12.9653 18.9994 12.8827 18.8234 12.824C18.6474 12.76 18.3968 12.6853 18.0714 12.6C17.6394 12.488 17.2901 12.3813 17.0234 12.28C16.7568 12.1733 16.5274 12.016 16.3354 11.808C16.1434 11.6 16.0474 11.3227 16.0474 10.976C16.0474 10.672 16.1274 10.3973 16.2874 10.152C16.4474 9.90133 16.6821 9.704 16.9914 9.56C17.3061 9.41067 17.6821 9.336 18.1194 9.336C18.7061 9.336 19.2368 9.424 19.7114 9.6C19.8608 9.65333 19.9354 9.76 19.9354 9.92C19.9354 10.0053 19.9061 10.0827 19.8474 10.152C19.7888 10.2213 19.7114 10.256 19.6154 10.256C19.5834 10.256 19.5408 10.2453 19.4874 10.224C19.0714 10.08 18.6421 10.008 18.1994 10.008C17.7781 10.008 17.4341 10.088 17.1674 10.248C16.9061 10.408 16.7754 10.632 16.7754 10.92C16.7754 11.112 16.8368 11.2693 16.9594 11.392C17.0874 11.5093 17.2448 11.6027 17.4314 11.672C17.6234 11.736 17.8821 11.8053 18.2074 11.88C18.6288 11.9813 18.9674 12.0827 19.2234 12.184C19.4848 12.2853 19.7061 12.4427 19.8874 12.656C20.0741 12.8693 20.1674 13.1573 20.1674 13.52C20.1674 13.8187 20.0821 14.088 19.9114 14.328C19.7408 14.5627 19.5008 14.7467 19.1914 14.88C18.8821 15.0133 18.5248 15.08 18.1194 15.08Z" fill="white"/>
<path d="M4.93487 14.944L4.75117 15.1136L4.75796 15.1209L4.7653 15.1277L4.93487 14.944ZM4.91087 14.48L4.71678 14.3221L4.71087 14.33L4.91087 14.48ZM6.75887 12.208L6.95282 12.3658L7.08103 12.2081L6.95295 12.0504L6.75887 12.208ZM4.92687 9.952L4.72673 10.1021L4.7328 10.1096L4.92687 9.952ZM4.95087 9.48L4.7741 9.30322L4.7741 9.30322L4.95087 9.48ZM5.37487 9.416L5.48668 9.19239H5.48668L5.37487 9.416ZM5.50287 9.52L5.30282 9.67004L5.30645 9.67465L5.50287 9.52ZM7.19087 11.664L6.99445 11.8186L7.19161 12.0691L7.38786 11.8179L7.19087 11.664ZM8.87887 9.504L9.07586 9.65794L9.08056 9.65192L9.08489 9.64563L8.87887 9.504ZM9.39087 9.48L9.21396 9.65692L9.2213 9.6637L9.39087 9.48ZM9.43087 9.92L9.62536 10.0776L9.63306 10.067L9.43087 9.92ZM7.58287 12.2L7.38866 12.0426L7.26084 12.2003L7.38893 12.3578L7.58287 12.2ZM9.43087 14.472L9.23669 14.6299L9.24505 14.6392L9.43087 14.472ZM9.39887 14.936L9.22196 14.7591L9.21517 14.7664L9.39887 14.936ZM8.85487 14.888L9.05628 14.7396L9.05052 14.7324L8.85487 14.888ZM7.14287 12.736L7.33852 12.5804L7.14112 12.3322L6.94589 12.5821L7.14287 12.736ZM5.45487 14.896L5.64702 15.0561L5.65186 15.0499L5.45487 14.896ZM5.17487 14.79C5.14982 14.79 5.12967 14.7836 5.10444 14.7603L4.7653 15.1277C4.87875 15.2324 5.0186 15.29 5.17487 15.29V14.79ZM5.11858 14.7744C5.09529 14.7492 5.08887 14.7291 5.08887 14.704H4.58887C4.58887 14.8603 4.64646 15.0001 4.75117 15.1136L5.11858 14.7744ZM5.08887 14.704C5.08887 14.6689 5.09756 14.6478 5.11087 14.63L4.71087 14.33C4.62819 14.4402 4.58887 14.5684 4.58887 14.704H5.08887ZM5.10482 14.6378L6.95282 12.3658L6.56493 12.0502L4.71693 14.3222L5.10482 14.6378ZM6.95295 12.0504L5.12095 9.7944L4.7328 10.1096L6.5648 12.3656L6.95295 12.0504ZM5.12687 9.802C5.11356 9.78425 5.10487 9.76308 5.10487 9.728H4.60487C4.60487 9.86359 4.64419 9.99175 4.72687 10.102L5.12687 9.802ZM5.10487 9.728C5.10487 9.6843 5.11633 9.6681 5.12765 9.65678L4.7741 9.30322C4.65742 9.4199 4.60487 9.56903 4.60487 9.728H5.10487ZM5.12765 9.65678C5.14838 9.63605 5.16937 9.626 5.20687 9.626V9.126C5.04172 9.126 4.89204 9.18528 4.7741 9.30322L5.12765 9.65678ZM5.20687 9.626C5.22608 9.626 5.24386 9.63 5.26307 9.63961L5.48668 9.19239C5.39922 9.14866 5.30501 9.126 5.20687 9.126V9.626ZM5.26307 9.63961C5.28583 9.65099 5.29679 9.66189 5.30287 9.67L5.70287 9.37C5.64496 9.29278 5.57058 9.23435 5.48668 9.19239L5.26307 9.63961ZM5.30645 9.67465L6.99445 11.8186L7.3873 11.5094L5.6993 9.36535L5.30645 9.67465ZM7.38786 11.8179L9.07586 9.65794L8.68189 9.35006L6.99389 11.5101L7.38786 11.8179ZM9.08489 9.64563C9.09117 9.63649 9.09524 9.63426 9.09794 9.63295C9.10182 9.63107 9.11454 9.626 9.14287 9.626V9.126C8.95595 9.126 8.78495 9.19933 8.67286 9.36237L9.08489 9.64563ZM9.14287 9.626C9.171 9.626 9.19053 9.6332 9.2141 9.65678L9.56765 9.30322C9.45256 9.18813 9.30675 9.126 9.14287 9.126V9.626ZM9.2213 9.6637C9.23836 9.67944 9.24487 9.69239 9.24487 9.72H9.74487C9.74487 9.55561 9.68206 9.40855 9.56044 9.2963L9.2213 9.6637ZM9.24487 9.72C9.24487 9.74349 9.23932 9.75834 9.22869 9.77296L9.63306 10.067C9.70776 9.96432 9.74487 9.84584 9.74487 9.72H9.24487ZM9.23666 9.76258L7.38866 12.0426L7.77709 12.3574L9.62509 10.0774L9.23666 9.76258ZM7.38893 12.3578L9.23693 14.6298L9.62482 14.3142L7.77682 12.0422L7.38893 12.3578ZM9.24505 14.6392C9.24619 14.6405 9.2473 14.642 9.24863 14.6458C9.25017 14.6502 9.25287 14.6607 9.25287 14.68H9.75287C9.75287 14.5453 9.71359 14.4124 9.6167 14.3048L9.24505 14.6392ZM9.25287 14.68C9.25287 14.7175 9.24282 14.7385 9.2221 14.7592L9.57565 15.1128C9.69359 14.9948 9.75287 14.8452 9.75287 14.68H9.25287ZM9.21517 14.7664C9.20491 14.7775 9.18982 14.79 9.14287 14.79V15.29C9.30926 15.29 9.46484 15.2331 9.58258 15.1056L9.21517 14.7664ZM9.14287 14.79C9.11148 14.79 9.08768 14.7825 9.05614 14.7397L8.65361 15.0363C8.7714 15.1962 8.9396 15.29 9.14287 15.29V14.79ZM9.05052 14.7324L7.33852 12.5804L6.94723 12.8916L8.65923 15.0436L9.05052 14.7324ZM6.94589 12.5821L5.25789 14.7421L5.65186 15.0499L7.33986 12.8899L6.94589 12.5821ZM5.26282 14.736C5.22126 14.7858 5.19427 14.79 5.17487 14.79V15.29C5.36881 15.29 5.52849 15.1982 5.64693 15.056L5.26282 14.736ZM11.3341 14.856L11.1523 15.0282L11.1621 15.0375L11.3341 14.856ZM11.2941 9.488L11.471 9.6649L11.4773 9.65811L11.2941 9.488ZM11.8061 9.488L11.6229 9.65811L11.6292 9.6649L11.6359 9.6712L11.8061 9.488ZM11.9181 14.272H11.6681V14.522H11.9181V14.272ZM14.7901 14.384L14.6069 14.5541L14.6132 14.5609L14.6199 14.5672L14.7901 14.384ZM14.7901 14.896L14.6198 14.7127L14.6133 14.7192L14.7901 14.896ZM11.6941 14.75C11.6198 14.75 11.5612 14.7268 11.506 14.6745L11.1621 15.0375C11.3096 15.1772 11.491 15.25 11.6941 15.25V14.75ZM11.5156 14.6841C11.4632 14.6288 11.4401 14.5702 11.4401 14.496H10.9401C10.9401 14.6991 11.0129 14.8805 11.1526 15.0279L11.5156 14.6841ZM11.4401 14.496V9.744H10.9401V14.496H11.4401ZM11.4401 9.744C11.4401 9.70649 11.4501 9.6855 11.4708 9.66478L11.1173 9.31122C10.9993 9.42916 10.9401 9.57884 10.9401 9.744H11.4401ZM11.4773 9.65811C11.4996 9.63407 11.5187 9.626 11.5501 9.626V9.126C11.3788 9.126 11.2272 9.1926 11.1109 9.31789L11.4773 9.65811ZM11.5501 9.626C11.5814 9.626 11.6005 9.63407 11.6229 9.65811L11.9893 9.31789C11.8729 9.1926 11.7213 9.126 11.5501 9.126V9.626ZM11.6359 9.6712C11.66 9.69353 11.6681 9.71262 11.6681 9.744H12.1681C12.1681 9.57271 12.1015 9.42114 11.9762 9.3048L11.6359 9.6712ZM11.6681 9.744V14.272H12.1681V9.744H11.6681ZM11.9181 14.522H14.5341V14.022H11.9181V14.522ZM14.5341 14.522C14.5654 14.522 14.5845 14.5301 14.6069 14.5541L14.9733 14.2139C14.8569 14.0886 14.7053 14.022 14.5341 14.022V14.522ZM14.6199 14.5672C14.644 14.5895 14.6521 14.6086 14.6521 14.64H15.1521C15.1521 14.4687 15.0855 14.3171 14.9602 14.2008L14.6199 14.5672ZM14.6521 14.64C14.6521 14.6714 14.644 14.6905 14.6199 14.7128L14.9602 15.0792C15.0855 14.9629 15.1521 14.8113 15.1521 14.64H14.6521ZM14.6133 14.7192C14.5926 14.7399 14.5716 14.75 14.5341 14.75V15.25C14.6992 15.25 14.8489 15.1907 14.9668 15.0728L14.6133 14.7192ZM14.5341 14.75H11.6941V15.25H14.5341V14.75ZM16.2154 14.696L16.3147 14.4665L16.3116 14.4652L16.2154 14.696ZM16.0554 14.568L15.8473 14.7068L15.8533 14.715L16.0554 14.568ZM16.0794 14.136L15.8957 13.9664L15.8951 13.9671L16.0794 14.136ZM16.4714 14.064L16.5732 13.8356L16.573 13.8355L16.4714 14.064ZM19.2634 13.072L19.0952 13.257L19.0994 13.2607L19.2634 13.072ZM18.8234 12.824L18.738 13.059L18.7444 13.0612L18.8234 12.824ZM18.0714 12.6L18.1349 12.3582L18.1342 12.358L18.0714 12.6ZM17.0234 12.28L16.9306 12.5122L16.9346 12.5137L17.0234 12.28ZM16.3354 11.808L16.1517 11.9776L16.3354 11.808ZM16.2874 10.152L16.4969 10.2886L16.4982 10.2865L16.2874 10.152ZM16.9914 9.56L17.0969 9.78665L17.0986 9.78586L16.9914 9.56ZM19.7114 9.6L19.6245 9.83442L19.6274 9.83544L19.7114 9.6ZM19.8474 10.152L20.0383 10.3135V10.3135L19.8474 10.152ZM19.4874 10.224L19.5804 9.99162L19.5692 9.98775L19.4874 10.224ZM17.1674 10.248L17.0388 10.0336L17.0369 10.0348L17.1674 10.248ZM16.9594 11.392L16.7825 11.5689L16.7905 11.5763L16.9594 11.392ZM17.4314 11.672L17.3443 11.9065L17.3524 11.9092L17.4314 11.672ZM18.2074 11.88L18.2659 11.6369L18.2634 11.6363L18.2074 11.88ZM19.2234 12.184L19.1314 12.4165L19.1331 12.4171L19.2234 12.184ZM19.8874 12.656L19.6969 12.8179L19.6993 12.8206L19.8874 12.656ZM19.9114 14.328L20.1136 14.4751L20.1152 14.4729L19.9114 14.328ZM19.1914 14.88L19.2904 15.1096L19.1914 14.88ZM18.1194 14.83C17.4745 14.83 16.8738 14.7083 16.3147 14.4665L16.1162 14.9255C16.7411 15.1957 17.4097 15.33 18.1194 15.33V14.83ZM16.3116 14.4652C16.292 14.457 16.2746 14.4443 16.2576 14.421L15.8533 14.715C15.9216 14.809 16.0109 14.8816 16.1193 14.9268L16.3116 14.4652ZM16.2634 14.4293C16.245 14.4017 16.2414 14.3827 16.2414 14.368H15.7414C15.7414 14.492 15.7805 14.6063 15.8474 14.7067L16.2634 14.4293ZM16.2414 14.368C16.2414 14.3368 16.2493 14.3206 16.2637 14.3049L15.8951 13.9671C15.7922 14.0794 15.7414 14.2178 15.7414 14.368H16.2414ZM16.2631 14.3056C16.2789 14.2885 16.2918 14.282 16.3194 14.282V13.782C16.155 13.782 16.008 13.8448 15.8957 13.9664L16.2631 14.3056ZM16.3194 14.282C16.3383 14.282 16.3544 14.2855 16.3699 14.2925L16.573 13.8355C16.4925 13.7998 16.4072 13.782 16.3194 13.782V14.282ZM16.3697 14.2924C16.8937 14.5259 17.4539 14.642 18.0474 14.642V14.142C17.521 14.142 17.0305 14.0394 16.5732 13.8356L16.3697 14.2924ZM18.0474 14.642C18.5335 14.642 18.9416 14.5636 19.2347 14.3709C19.5462 14.1662 19.6974 13.853 19.6974 13.472H19.1974C19.1974 13.7043 19.1153 13.8511 18.9601 13.9531C18.7867 14.0671 18.4947 14.142 18.0474 14.142V14.642ZM19.6974 13.472C19.6974 13.2383 19.6037 13.0366 19.4275 12.8833L19.0994 13.2607C19.1685 13.3207 19.1974 13.3857 19.1974 13.472H19.6974ZM19.4316 12.887C19.2845 12.7533 19.106 12.6546 18.9025 12.5868L18.7444 13.0612C18.8929 13.1107 19.0077 13.1774 19.0953 13.257L19.4316 12.887ZM18.9089 12.5891C18.7221 12.5211 18.4628 12.4442 18.1349 12.3582L18.008 12.8418C18.3307 12.9265 18.5728 12.9989 18.738 13.0589L18.9089 12.5891ZM18.1342 12.358C17.7067 12.2472 17.367 12.1431 17.1122 12.0463L16.9346 12.5137C17.2132 12.6195 17.5722 12.7288 18.0087 12.842L18.1342 12.358ZM17.1163 12.0479C16.8837 11.9548 16.6855 11.8187 16.5191 11.6384L16.1517 11.9776C16.3694 12.2133 16.6299 12.3918 16.9306 12.5121L17.1163 12.0479ZM16.5191 11.6384C16.3789 11.4865 16.2974 11.2747 16.2974 10.976H15.7974C15.7974 11.3707 15.908 11.7135 16.1517 11.9776L16.5191 11.6384ZM16.2974 10.976C16.2974 10.7186 16.3644 10.4917 16.4968 10.2886L16.078 10.0154C15.8905 10.303 15.7974 10.6254 15.7974 10.976H16.2974ZM16.4982 10.2865C16.629 10.0816 16.8242 9.9136 17.0969 9.78665L16.8859 9.33335C16.54 9.4944 16.2659 9.72108 16.0767 10.0175L16.4982 10.2865ZM17.0986 9.78586C17.3724 9.65595 17.71 9.586 18.1194 9.586V9.086C17.6542 9.086 17.2398 9.16539 16.8843 9.33414L17.0986 9.78586ZM18.1194 9.586C18.6811 9.586 19.1817 9.67022 19.6245 9.83441L19.7984 9.36559C19.2918 9.17778 18.7311 9.086 18.1194 9.086V9.586ZM19.6274 9.83544C19.664 9.84853 19.673 9.86102 19.6746 9.86337C19.6764 9.86589 19.6854 9.87941 19.6854 9.92H20.1854C20.1854 9.80059 20.1571 9.68078 20.0842 9.57663C20.0112 9.47231 19.9082 9.4048 19.7955 9.36456L19.6274 9.83544ZM19.6854 9.92C19.6854 9.94221 19.6797 9.96318 19.6566 9.99051L20.0383 10.3135C20.1325 10.2022 20.1854 10.0685 20.1854 9.92H19.6854ZM19.6566 9.99051C19.6497 9.99871 19.6453 10.0009 19.6432 10.0019C19.6407 10.003 19.6329 10.006 19.6154 10.006V10.506C19.7802 10.506 19.9291 10.4425 20.0383 10.3135L19.6566 9.99051ZM19.6154 10.006C19.6259 10.006 19.6284 10.0075 19.6201 10.0055C19.6124 10.0036 19.5994 9.99954 19.5803 9.99188L19.3946 10.4561C19.4578 10.4814 19.5357 10.506 19.6154 10.506V10.006ZM19.5692 9.98775C19.1268 9.8346 18.6698 9.758 18.1994 9.758V10.258C18.6144 10.258 19.0161 10.3254 19.4057 10.4602L19.5692 9.98775ZM18.1994 9.758C17.7483 9.758 17.3558 9.84345 17.0388 10.0336L17.2961 10.4624C17.5124 10.3325 17.8079 10.258 18.1994 10.258V9.758ZM17.0369 10.0348C16.7071 10.2367 16.5254 10.5385 16.5254 10.92H17.0254C17.0254 10.7255 17.1051 10.5793 17.298 10.4612L17.0369 10.0348ZM16.5254 10.92C16.5254 11.1705 16.6079 11.394 16.7827 11.5688L17.1362 11.2152C17.0656 11.1447 17.0254 11.0535 17.0254 10.92H16.5254ZM16.7905 11.5763C16.9455 11.7184 17.1319 11.8274 17.3444 11.9064L17.5185 11.4376C17.3577 11.3779 17.2293 11.3003 17.1284 11.2077L16.7905 11.5763ZM17.3524 11.9092C17.5553 11.9768 17.8227 12.0482 18.1515 12.1237L18.2634 11.6363C17.9415 11.5625 17.6916 11.4952 17.5105 11.4348L17.3524 11.9092ZM18.149 12.1231C18.5646 12.223 18.8907 12.3212 19.1314 12.4165L19.3154 11.9515C19.0442 11.8442 18.693 11.7396 18.2659 11.6369L18.149 12.1231ZM19.1331 12.4171C19.3557 12.5034 19.5426 12.6363 19.697 12.8179L20.0779 12.4941C19.8696 12.249 19.6139 12.0673 19.3138 11.9509L19.1331 12.4171ZM19.6993 12.8206C19.836 12.9768 19.9174 13.2005 19.9174 13.52H20.4174C20.4174 13.1142 20.3123 12.7619 20.0756 12.4914L19.6993 12.8206ZM19.9174 13.52C19.9174 13.7675 19.8478 13.9861 19.7077 14.1831L20.1152 14.4729C20.3164 14.1899 20.4174 13.8698 20.4174 13.52H19.9174ZM19.7093 14.181C19.569 14.3739 19.3673 14.5319 19.0925 14.6504L19.2904 15.1096C19.6342 14.9614 19.9126 14.7515 20.1136 14.475L19.7093 14.181ZM19.0925 14.6504C18.8201 14.7678 18.4975 14.83 18.1194 14.83V15.33C18.552 15.33 18.9441 15.2588 19.2904 15.1096L19.0925 14.6504Z" fill="white"/>
<defs>
<linearGradient id="paint0_linear_1165_2228" x1="12" y1="0" x2="12" y2="24" gradientUnits="userSpaceOnUse">
<stop offset="0.000265127" stop-color="#83CC70"/>
<stop offset="1" stop-color="#61A850"/>
</linearGradient>
</defs>
</svg>
