<svg width="24" height="24" viewBox="0 0 24 24" fill="none" xmlns="http://www.w3.org/2000/svg">
<rect width="24" height="24" rx="4" fill="url(#paint0_linear_1165_2232)"/>
<path d="M5.90109 15C5.77309 15 5.66376 14.9547 5.57309 14.864C5.48243 14.7733 5.43709 14.664 5.43709 14.536C5.43709 14.4187 5.46909 14.32 5.53309 14.24L8.87709 10.112H5.79709C5.70109 10.112 5.61843 10.08 5.54909 10.016C5.48509 9.94667 5.45309 9.864 5.45309 9.768C5.45309 9.672 5.48509 9.58933 5.54909 9.52C5.61843 9.45067 5.70109 9.416 5.79709 9.416H9.26909C9.41843 9.416 9.53576 9.464 9.62109 9.56C9.71176 9.656 9.75709 9.77333 9.75709 9.912C9.75709 9.96533 9.74376 10.0213 9.71709 10.08C9.69576 10.1387 9.66643 10.1893 9.62909 10.232L6.32509 14.32H9.46109C9.55709 14.32 9.63709 14.3547 9.70109 14.424C9.77043 14.488 9.80509 14.568 9.80509 14.664C9.80509 14.76 9.77043 14.84 9.70109 14.904C9.63709 14.968 9.55709 15 9.46109 15H5.90109ZM11.8587 15.04C11.7573 15.04 11.672 15.0053 11.6027 14.936C11.5333 14.8667 11.4987 14.7813 11.4987 14.68V9.744C11.4987 9.64267 11.5333 9.55733 11.6027 9.488C11.672 9.41333 11.7573 9.376 11.8587 9.376C11.96 9.376 12.0453 9.41333 12.1147 9.488C12.1893 9.55733 12.2267 9.64267 12.2267 9.744V14.68C12.2267 14.7813 12.1893 14.8667 12.1147 14.936C12.0453 15.0053 11.96 15.04 11.8587 15.04ZM14.6999 15.04C14.5986 15.04 14.5132 15.0053 14.4439 14.936C14.3746 14.8667 14.3399 14.7813 14.3399 14.68V9.784C14.3399 9.68267 14.3746 9.59733 14.4439 9.528C14.5132 9.45333 14.5986 9.416 14.6999 9.416H16.5239C17.0306 9.416 17.4439 9.50133 17.7639 9.672C18.0839 9.84267 18.3132 10.0613 18.4519 10.328C18.5906 10.5947 18.6599 10.8827 18.6599 11.192C18.6599 11.5013 18.5906 11.7893 18.4519 12.056C18.3132 12.3227 18.0839 12.5413 17.7639 12.712C17.4439 12.8827 17.0306 12.968 16.5239 12.968H15.0679V14.68C15.0679 14.7813 15.0306 14.8667 14.9559 14.936C14.8866 15.0053 14.8012 15.04 14.6999 15.04ZM16.4519 12.28C16.9959 12.28 17.3772 12.176 17.5959 11.968C17.8199 11.76 17.9319 11.5013 17.9319 11.192C17.9319 10.8827 17.8199 10.624 17.5959 10.416C17.3772 10.208 16.9959 10.104 16.4519 10.104H15.0679V12.28H16.4519Z" fill="white"/>
<path d="M5.57309 14.864L5.74987 14.6872L5.57309 14.864ZM5.53309 14.24L5.33883 14.0826L5.33788 14.0838L5.53309 14.24ZM8.87709 10.112L9.07135 10.2694L9.40135 9.862H8.87709V10.112ZM5.54909 10.016L5.36539 10.1856L5.37218 10.1929L5.37952 10.1997L5.54909 10.016ZM5.54909 9.52L5.37218 9.34308L5.36539 9.35043L5.54909 9.52ZM9.62109 9.56L9.43416 9.72617L9.43934 9.73166L9.62109 9.56ZM9.71709 10.08L9.4895 9.97655L9.48547 9.98541L9.48215 9.99456L9.71709 10.08ZM9.62909 10.232L9.44081 10.0672L9.43466 10.0749L9.62909 10.232ZM6.32509 14.32L6.13066 14.1629L5.8016 14.57H6.32509V14.32ZM9.70109 14.424L9.51739 14.5936L9.52418 14.6009L9.53152 14.6077L9.70109 14.424ZM9.70109 14.904L9.53139 14.7202L9.52432 14.7272L9.70109 14.904ZM5.90109 14.75C5.83953 14.75 5.79374 14.7311 5.74987 14.6872L5.39632 15.0408C5.53378 15.1782 5.70666 15.25 5.90109 15.25V14.75ZM5.74987 14.6872C5.706 14.6433 5.68709 14.5976 5.68709 14.536H5.18709C5.18709 14.7304 5.25886 14.9033 5.39632 15.0408L5.74987 14.6872ZM5.68709 14.536C5.68709 14.4668 5.70484 14.4255 5.72831 14.3962L5.33788 14.0838C5.23335 14.2145 5.18709 14.3706 5.18709 14.536H5.68709ZM5.72735 14.3974L9.07135 10.2694L8.68284 9.95464L5.33884 14.0826L5.72735 14.3974ZM8.87709 9.862H5.79709V10.362H8.87709V9.862ZM5.79709 9.862C5.76273 9.862 5.74093 9.85285 5.71866 9.8323L5.37952 10.1997C5.49592 10.3071 5.63946 10.362 5.79709 10.362V9.862ZM5.73279 9.84643C5.71224 9.82416 5.70309 9.80237 5.70309 9.768H5.20309C5.20309 9.92563 5.25795 10.0692 5.36539 10.1856L5.73279 9.84643ZM5.70309 9.768C5.70309 9.73363 5.71224 9.71184 5.73279 9.68957L5.36539 9.35043C5.25795 9.46683 5.20309 9.61037 5.20309 9.768H5.70309ZM5.72587 9.69678C5.74944 9.6732 5.76897 9.666 5.79709 9.666V9.166C5.63322 9.166 5.48741 9.22813 5.37232 9.34322L5.72587 9.69678ZM5.79709 9.666H9.26909V9.166H5.79709V9.666ZM9.26909 9.666C9.35981 9.666 9.40424 9.69233 9.43424 9.72609L9.80795 9.39391C9.66729 9.23567 9.47704 9.166 9.26909 9.166V9.666ZM9.43934 9.73166C9.48381 9.77874 9.50709 9.83364 9.50709 9.912H10.0071C10.0071 9.71303 9.93971 9.53326 9.80285 9.38834L9.43934 9.73166ZM9.50709 9.912C9.50709 9.92301 9.50442 9.94373 9.4895 9.97655L9.94469 10.1835C9.9831 10.0989 10.0071 10.0077 10.0071 9.912H9.50709ZM9.48215 9.99456C9.47031 10.0271 9.45596 10.0502 9.44095 10.0674L9.81724 10.3966C9.8769 10.3284 9.92121 10.2502 9.95204 10.1654L9.48215 9.99456ZM9.43466 10.0749L6.13066 14.1629L6.51953 14.4771L9.82353 10.3891L9.43466 10.0749ZM6.32509 14.57H9.46109V14.07H6.32509V14.57ZM9.46109 14.57C9.4887 14.57 9.50165 14.5765 9.51739 14.5936L9.88479 14.2544C9.77254 14.1328 9.62549 14.07 9.46109 14.07V14.57ZM9.53152 14.6077C9.54858 14.6234 9.55509 14.6364 9.55509 14.664H10.0551C10.0551 14.4996 9.99227 14.3526 9.87066 14.2403L9.53152 14.6077ZM9.55509 14.664C9.55509 14.6916 9.54858 14.7046 9.53152 14.7203L9.87066 15.0877C9.99227 14.9754 10.0551 14.8284 10.0551 14.664H9.55509ZM9.52432 14.7272C9.51027 14.7413 9.49525 14.75 9.46109 14.75V15.25C9.61893 15.25 9.76392 15.1947 9.87787 15.0808L9.52432 14.7272ZM9.46109 14.75H5.90109V15.25H9.46109V14.75ZM11.6027 14.936L11.7794 14.7592H11.7794L11.6027 14.936ZM11.6027 9.488L11.7796 9.6649L11.7859 9.65811L11.6027 9.488ZM12.1147 9.488L11.9315 9.65811L11.9378 9.6649L11.9445 9.6712L12.1147 9.488ZM12.1147 14.936L11.9444 14.7527L11.9379 14.7592L12.1147 14.936ZM11.8587 14.79C11.8211 14.79 11.8002 14.7799 11.7794 14.7592L11.4259 15.1128C11.5438 15.2307 11.6935 15.29 11.8587 15.29V14.79ZM11.7794 14.7592C11.7587 14.7385 11.7487 14.7175 11.7487 14.68H11.2487C11.2487 14.8452 11.3079 14.9948 11.4259 15.1128L11.7794 14.7592ZM11.7487 14.68V9.744H11.2487V14.68H11.7487ZM11.7487 9.744C11.7487 9.70649 11.7587 9.6855 11.7794 9.66478L11.4259 9.31122C11.3079 9.42916 11.2487 9.57884 11.2487 9.744H11.7487ZM11.7859 9.65811C11.8082 9.63407 11.8273 9.626 11.8587 9.626V9.126C11.6874 9.126 11.5358 9.1926 11.4195 9.31789L11.7859 9.65811ZM11.8587 9.626C11.89 9.626 11.9091 9.63407 11.9315 9.65811L12.2979 9.31789C12.1815 9.1926 12.0299 9.126 11.8587 9.126V9.626ZM11.9445 9.6712C11.9686 9.69353 11.9767 9.71262 11.9767 9.744H12.4767C12.4767 9.57271 12.4101 9.42114 12.2848 9.3048L11.9445 9.6712ZM11.9767 9.744V14.68H12.4767V9.744H11.9767ZM11.9767 14.68C11.9767 14.7114 11.9686 14.7305 11.9445 14.7528L12.2848 15.1192C12.4101 15.0029 12.4767 14.8513 12.4767 14.68H11.9767ZM11.9379 14.7592C11.9172 14.7799 11.8962 14.79 11.8587 14.79V15.29C12.0238 15.29 12.1735 15.2307 12.2914 15.1128L11.9379 14.7592ZM14.4439 14.936L14.6207 14.7592L14.4439 14.936ZM14.4439 9.528L14.6208 9.7049L14.6271 9.69811L14.4439 9.528ZM17.7639 9.672L17.8816 9.45141L17.7639 9.672ZM18.4519 10.328L18.2301 10.4433V10.4433L18.4519 10.328ZM18.4519 12.056L18.2301 11.9407V11.9407L18.4519 12.056ZM17.7639 12.712L17.8816 12.9326L17.7639 12.712ZM15.0679 12.968V12.718H14.8179V12.968H15.0679ZM14.9559 14.936L14.7857 14.7527L14.7791 14.7592L14.9559 14.936ZM17.5959 11.968L17.4258 11.7848L17.4236 11.7869L17.5959 11.968ZM17.5959 10.416L17.4236 10.5972L17.4258 10.5992L17.5959 10.416ZM15.0679 10.104V9.854H14.8179V10.104H15.0679ZM15.0679 12.28H14.8179V12.53H15.0679V12.28ZM14.6999 14.79C14.6624 14.79 14.6414 14.7799 14.6207 14.7592L14.2671 15.1128C14.3851 15.2307 14.5347 15.29 14.6999 15.29V14.79ZM14.6207 14.7592C14.6 14.7385 14.5899 14.7175 14.5899 14.68H14.0899C14.0899 14.8452 14.1492 14.9948 14.2671 15.1128L14.6207 14.7592ZM14.5899 14.68V9.784H14.0899V14.68H14.5899ZM14.5899 9.784C14.5899 9.74649 14.6 9.7255 14.6207 9.70478L14.2671 9.35122C14.1492 9.46917 14.0899 9.61884 14.0899 9.784H14.5899ZM14.6271 9.69811C14.6494 9.67407 14.6685 9.666 14.6999 9.666V9.166C14.5286 9.166 14.377 9.2326 14.2607 9.35789L14.6271 9.69811ZM14.6999 9.666H16.5239V9.166H14.6999V9.666ZM16.5239 9.666C17.0049 9.666 17.374 9.74737 17.6463 9.89259L17.8816 9.45141C17.5138 9.2553 17.0562 9.166 16.5239 9.166V9.666ZM17.6463 9.89259C17.9311 10.0445 18.1192 10.23 18.2301 10.4433L18.6737 10.2127C18.5073 9.89263 18.2367 9.64085 17.8816 9.45141L17.6463 9.89259ZM18.2301 10.4433C18.3497 10.6733 18.4099 10.9216 18.4099 11.192H18.9099C18.9099 10.8437 18.8315 10.516 18.6737 10.2127L18.2301 10.4433ZM18.4099 11.192C18.4099 11.4624 18.3497 11.7107 18.2301 11.9407L18.6737 12.1713C18.8315 11.868 18.9099 11.5403 18.9099 11.192H18.4099ZM18.2301 11.9407C18.1192 12.154 17.9311 12.3395 17.6463 12.4914L17.8816 12.9326C18.2367 12.7432 18.5073 12.4914 18.6737 12.1713L18.2301 11.9407ZM17.6463 12.4914C17.374 12.6366 17.0049 12.718 16.5239 12.718V13.218C17.0562 13.218 17.5138 13.1287 17.8816 12.9326L17.6463 12.4914ZM16.5239 12.718H15.0679V13.218H16.5239V12.718ZM14.8179 12.968V14.68H15.3179V12.968H14.8179ZM14.8179 14.68C14.8179 14.7114 14.8098 14.7305 14.7858 14.7528L15.126 15.1192C15.2513 15.0029 15.3179 14.8513 15.3179 14.68H14.8179ZM14.7791 14.7592C14.7584 14.7799 14.7374 14.79 14.6999 14.79V15.29C14.8651 15.29 15.0147 15.2307 15.1327 15.1128L14.7791 14.7592ZM16.4519 12.53C17.0134 12.53 17.4777 12.4255 17.7682 12.1491L17.4236 11.7869C17.2768 11.9265 16.9784 12.03 16.4519 12.03V12.53ZM17.766 12.1512C18.0416 11.8953 18.1819 11.5699 18.1819 11.192H17.6819C17.6819 11.4328 17.5982 11.6247 17.4258 11.7848L17.766 12.1512ZM18.1819 11.192C18.1819 10.8141 18.0416 10.4887 17.766 10.2328L17.4258 10.5992C17.5982 10.7593 17.6819 10.9512 17.6819 11.192H18.1819ZM17.7682 10.2349C17.4777 9.95854 17.0134 9.854 16.4519 9.854V10.354C16.9784 10.354 17.2768 10.4575 17.4236 10.5971L17.7682 10.2349ZM16.4519 9.854H15.0679V10.354H16.4519V9.854ZM14.8179 10.104V12.28H15.3179V10.104H14.8179ZM15.0679 12.53H16.4519V12.03H15.0679V12.53Z" fill="white"/>
<defs>
<linearGradient id="paint0_linear_1165_2232" x1="12" y1="0" x2="12" y2="24" gradientUnits="userSpaceOnUse">
<stop stop-color="#2EBC89"/>
<stop offset="1" stop-color="#1DA473"/>
</linearGradient>
</defs>
</svg>
